SplineFontDB: 3.2
FontName: Mason-Regular
FullName: Mason Regular
FamilyName: Mason
Weight: Thin
Copyright: Copyright (C) 1993 Emigre Graphics; Designed by Jonathan Barnbrook
Version: Altsys Fontographer 3.5  3/24/94
ItalicAngle: 0
UnderlinePosition: -143
UnderlineWidth: 20
Ascent: 800
Descent: 200
InvalidEm: 0
sfntRevision: 0x00010000
LayerCount: 2
Layer: 0 1 "Back" 1
Layer: 1 1 "Fore" 0
XUID: [1021 528 -197706373 375]
StyleMap: 0x0040
FSType: 1
OS2Version: 0
OS2_WeightWidthSlopeOnly: 0
OS2_UseTypoMetrics: 0
CreationTime: 764509134
ModificationTime: 1587138114
PfmFamily: 81
TTFWeight: 5
TTFWidth: 5
LineGap: 0
VLineGap: 0
Panose: 0 0 0 0 0 0 0 0 0 0
OS2TypoAscent: 895
OS2TypoAOffset: 0
OS2TypoDescent: -282
OS2TypoDOffset: 0
OS2TypoLinegap: 0
OS2WinAscent: 895
OS2WinAOffset: 0
OS2WinDescent: 282
OS2WinDOffset: 0
HheadAscent: 895
HheadAOffset: 0
HheadDescent: -282
HheadDOffset: 0
OS2SubXSize: 700
OS2SubYSize: 650
OS2SubXOff: 0
OS2SubYOff: 143
OS2SupXSize: 700
OS2SupYSize: 650
OS2SupXOff: 0
OS2SupYOff: 453
OS2StrikeYSize: 50
OS2StrikeYPos: 259
OS2Vendor: 'Alts'
OS2UnicodeRanges: 00000000.00000000.00000000.00000000
Lookup: 258 0 0 "'kern' Horizontal Kerning in Latin lookup 0" { "'kern' Horizontal Kerning in Latin lookup 0 subtable"  } ['kern' ('latn' <'dflt' > ) ]
DEI: 91125
TtTable: prep
NPUSHB
 14
 58
 58
 57
 57
 25
 25
 2
 2
 0
 0
 30
 30
 69
 1
SCANTYPE
PUSHW_1
 511
SCANCTRL
SROUND
RCVT
ROUND[Grey]
WCVTP
RTG
PUSHB_4
 1
 25
 70
 0
CALL
PUSHB_4
 3
 0
 70
 0
CALL
PUSHB_4
 4
 0
 70
 0
CALL
PUSHB_4
 5
 0
 70
 0
CALL
PUSHB_4
 6
 0
 70
 0
CALL
PUSHB_4
 7
 25
 70
 0
CALL
PUSHB_4
 8
 0
 70
 0
CALL
PUSHB_4
 9
 2
 70
 0
CALL
PUSHB_4
 10
 0
 70
 0
CALL
PUSHB_4
 11
 2
 70
 0
CALL
PUSHB_4
 12
 0
 70
 0
CALL
PUSHB_4
 13
 0
 70
 0
CALL
PUSHB_4
 14
 2
 70
 0
CALL
PUSHB_4
 15
 30
 70
 0
CALL
PUSHB_4
 16
 2
 70
 0
CALL
PUSHB_4
 17
 2
 70
 0
CALL
PUSHB_4
 18
 0
 70
 0
CALL
PUSHB_4
 19
 0
 70
 0
CALL
PUSHB_4
 20
 0
 70
 0
CALL
PUSHB_4
 21
 0
 70
 0
CALL
PUSHB_4
 22
 2
 70
 0
CALL

StartChar: .notdef
Encoding: 65536 -1 0
Width: 800
Flags: W
LayerCount: 2
Fore
SplineSet
50 0 m 1,0,-1
 50 800 l 1,1,-1
 750 800 l 1,2,-1
 750 0 l 1,3,-1
 50 0 l 1,0,-1
700 50 m 1,4,-1
 700 750 l 1,5,-1
 100 750 l 1,6,-1
 100 50 l 1,7,-1
 700 50 l 1,4,-1
EndSplineSet
EndChar

StartChar: exclam
Encoding: 33 33 4
Width: 300
Flags: W
LayerCount: 2
Fore
SplineSet
200 568 m 1,0,1
 189 564 189 564 174.5 468.5 c 128,-1,2
 160 373 160 373 149.5 267.5 c 128,-1,3
 139 162 139 162 139 141 c 1,4,-1
 131 141 l 1,5,6
 131 169 131 169 121 275.5 c 128,-1,7
 111 382 111 382 99 460 c 0,8,9
 83 563 83 563 70 568 c 1,10,-1
 70 576 l 1,11,12
 91 583 91 583 107 599.5 c 128,-1,13
 123 616 123 616 131 637 c 1,14,-1
 139 637 l 1,15,16
 146 616 146 616 162.5 600 c 128,-1,17
 179 584 179 584 200 576 c 1,18,-1
 200 568 l 1,0,1
200 30 m 1,19,20
 182 23 182 23 166.5 6.5 c 128,-1,21
 151 -10 151 -10 139 -31 c 1,22,-1
 131 -31 l 1,23,24
 123 -12 123 -12 106.5 5.5 c 128,-1,25
 90 23 90 23 70 30 c 1,26,-1
 70 38 l 1,27,28
 91 45 91 45 107 61.5 c 128,-1,29
 123 78 123 78 131 99 c 1,30,-1
 139 99 l 1,31,32
 146 78 146 78 162.5 62 c 128,-1,33
 179 46 179 46 200 38 c 1,34,-1
 200 30 l 1,19,20
EndSplineSet
EndChar

StartChar: quotedbl
Encoding: 34 34 5
Width: 470
Flags: W
LayerCount: 2
Fore
SplineSet
200 568 m 1,0,1
 178 560 178 560 162 519.5 c 128,-1,2
 146 479 146 479 139 397 c 1,3,-1
 131 397 l 1,4,5
 124 480 124 480 108.5 520 c 128,-1,6
 93 560 93 560 70 568 c 1,7,-1
 70 576 l 1,8,9
 91 583 91 583 107 599.5 c 128,-1,10
 123 616 123 616 131 637 c 1,11,-1
 139 637 l 1,12,13
 146 616 146 616 162.5 600 c 128,-1,14
 179 584 179 584 200 576 c 1,15,-1
 200 568 l 1,0,1
400 568 m 1,16,17
 378 560 378 560 362 519.5 c 128,-1,18
 346 479 346 479 339 397 c 1,19,-1
 331 397 l 1,20,21
 324 480 324 480 308.5 520 c 128,-1,22
 293 560 293 560 270 568 c 1,23,-1
 270 576 l 1,24,25
 291 583 291 583 307 599.5 c 128,-1,26
 323 616 323 616 331 637 c 1,27,-1
 339 637 l 1,28,29
 346 616 346 616 362.5 600 c 128,-1,30
 379 584 379 584 400 576 c 1,31,-1
 400 568 l 1,16,17
EndSplineSet
EndChar

StartChar: numbersign
Encoding: 35 35 6
Width: 668
Flags: W
LayerCount: 2
Fore
SplineSet
622 177 m 1,0,-1
 462 177 l 1,1,-1
 421 -23 l 1,2,-1
 369 -23 l 1,3,-1
 412 177 l 1,4,-1
 196 177 l 1,5,-1
 155 -23 l 1,6,-1
 104 -23 l 1,7,-1
 146 177 l 1,8,-1
 45 177 l 1,9,-1
 45 228 l 1,10,-1
 156 228 l 1,11,-1
 196 418 l 1,12,-1
 45 418 l 1,13,-1
 45 469 l 1,14,-1
 207 469 l 1,15,-1
 249 669 l 1,16,-1
 299 669 l 1,17,-1
 257 469 l 1,18,-1
 472 469 l 1,19,-1
 514 669 l 1,20,-1
 564 669 l 1,21,-1
 522 469 l 1,22,-1
 622 469 l 1,23,-1
 622 418 l 1,24,-1
 512 418 l 1,25,-1
 472 228 l 1,26,-1
 622 228 l 1,27,-1
 622 177 l 1,0,-1
462 418 m 1,28,-1
 246 418 l 1,29,-1
 206 229 l 1,30,-1
 422 229 l 1,31,-1
 462 418 l 1,28,-1
EndSplineSet
EndChar

StartChar: dollar
Encoding: 36 36 7
Width: 530
Flags: W
LayerCount: 2
Fore
SplineSet
462 156 m 0,0,1
 462 105 462 105 426 62 c 128,-1,2
 390 19 390 19 328 -2 c 1,3,-1
 328 -65 l 1,4,-1
 290 -65 l 1,5,-1
 290 -11 l 1,6,7
 271 -15 271 -15 245 -15 c 2,8,-1
 228 -14 l 1,9,-1
 228 -65 l 1,10,-1
 190 -65 l 1,11,-1
 190 -10 l 1,12,13
 160 -5 160 -5 130.5 6.5 c 128,-1,14
 101 18 101 18 93 21 c 1,15,-1
 73 149 l 1,16,-1
 87 149 l 1,17,18
 110 38 110 38 190 16 c 1,19,-1
 190 335 l 1,20,21
 140 367 140 367 114 400 c 0,22,23
 82 440 82 440 82 482 c 0,24,25
 82 537 82 537 110.5 574.5 c 128,-1,26
 139 612 139 612 190 627 c 1,27,-1
 190 687 l 1,28,-1
 228 687 l 1,29,-1
 228 635 l 1,30,-1
 260 637 l 1,31,-1
 290 635 l 1,32,-1
 290 687 l 1,33,-1
 328 687 l 1,34,-1
 328 627 l 1,35,36
 347 621 347 621 356 618 c 0,37,38
 384 609 384 609 411 609 c 1,39,-1
 426 514 l 1,40,-1
 418 514 l 1,41,42
 403 553 403 553 380.5 574 c 128,-1,43
 358 595 358 595 328 604 c 1,44,-1
 328 339 l 1,45,46
 393 299 393 299 423 262 c 0,47,48
 462 214 462 214 462 156 c 0,0,1
290 361 m 1,49,-1
 290 612 l 1,50,-1
 255 613 l 1,51,-1
 228 610 l 1,52,-1
 228 398 l 1,53,-1
 271 372 l 1,54,-1
 290 361 l 1,49,-1
190 425 m 1,55,-1
 190 594 l 1,56,57
 145 563 145 563 145 510 c 0,58,59
 145 483 145 483 156 463 c 128,-1,60
 167 443 167 443 190 425 c 1,55,-1
390 128 m 0,61,62
 390 195 390 195 328 247 c 1,63,-1
 328 28 l 1,64,65
 390 59 390 59 390 128 c 0,61,62
290 15 m 1,66,-1
 290 275 l 1,67,-1
 228 313 l 1,68,-1
 228 10 l 1,69,-1
 245 10 l 2,70,71
 259 10 259 10 267 11 c 128,-1,72
 275 12 275 12 290 15 c 1,66,-1
EndSplineSet
EndChar

StartChar: percent
Encoding: 37 37 8
Width: 754
Flags: W
LayerCount: 2
Fore
SplineSet
378 497 m 0,0,1
 378 437 378 437 334.5 392.5 c 128,-1,2
 291 348 291 348 227 348 c 0,3,4
 162 348 162 348 119 386.5 c 128,-1,5
 76 425 76 425 76 489 c 0,6,7
 76 550 76 550 119.5 593.5 c 128,-1,8
 163 637 163 637 227 637 c 256,9,10
 291 637 291 637 334.5 598.5 c 128,-1,11
 378 560 378 560 378 497 c 0,0,1
641 654 m 1,12,-1
 155 -27 l 1,13,-1
 114 -27 l 1,14,-1
 600 654 l 1,15,-1
 641 654 l 1,12,-1
678 134 m 0,16,17
 678 74 678 74 634.5 29.5 c 128,-1,18
 591 -15 591 -15 527 -15 c 0,19,20
 462 -15 462 -15 419 23.5 c 128,-1,21
 376 62 376 62 376 126 c 0,22,23
 376 187 376 187 419.5 230.5 c 128,-1,24
 463 274 463 274 527 274 c 256,25,26
 591 274 591 274 634.5 235.5 c 128,-1,27
 678 197 678 197 678 134 c 0,16,17
316 493 m 0,28,29
 316 544 316 544 288 579 c 128,-1,30
 260 614 260 614 218 614 c 0,31,32
 180 614 180 614 158.5 579.5 c 128,-1,33
 137 545 137 545 137 493 c 1,34,35
 143 439 143 439 169.5 404.5 c 128,-1,36
 196 370 196 370 237 370 c 0,37,38
 272 370 272 370 294.5 400.5 c 128,-1,39
 317 431 317 431 317 477 c 0,40,41
 316 488 316 488 316 493 c 0,28,29
616 130 m 0,42,43
 616 181 616 181 588 216 c 128,-1,44
 560 251 560 251 518 251 c 0,45,46
 480 251 480 251 458.5 216.5 c 128,-1,47
 437 182 437 182 437 130 c 1,48,49
 443 76 443 76 469.5 41.5 c 128,-1,50
 496 7 496 7 537 7 c 0,51,52
 572 7 572 7 594.5 37.5 c 128,-1,53
 617 68 617 68 617 114 c 0,54,55
 616 125 616 125 616 130 c 0,42,43
EndSplineSet
EndChar

StartChar: ampersand
Encoding: 38 38 9
Width: 778
Flags: W
LayerCount: 2
Fore
SplineSet
658 245 m 1,0,-1
 645 246 l 1,1,-1
 644 257 l 2,2,3
 640 294 640 294 628 308 c 128,-1,4
 616 322 616 322 585 322 c 2,5,-1
 526 322 l 1,6,-1
 526 -23 l 2,7,8
 526 -52 526 -52 540 -65 c 128,-1,9
 554 -78 554 -78 591 -82 c 2,10,-1
 602 -83 l 1,11,-1
 603 -96 l 1,12,-1
 589 -95 l 1,13,-1
 511 -90 l 1,14,-1
 473 -90 l 1,15,-1
 395 -95 l 1,16,-1
 381 -96 l 1,17,-1
 382 -83 l 1,18,-1
 393 -82 l 2,19,20
 430 -78 430 -78 444 -66 c 128,-1,21
 458 -54 458 -54 458 -23 c 2,22,-1
 458 -4 l 1,23,24
 431 -8 431 -8 415 -9 c 0,25,26
 361 -15 361 -15 339 -15 c 0,27,28
 217 -15 217 -15 148.5 43.5 c 128,-1,29
 80 102 80 102 80 200 c 0,30,31
 80 263 80 263 127 309.5 c 128,-1,32
 174 356 174 356 249 372 c 1,33,34
 211 388 211 388 187 416 c 0,35,36
 156 453 156 453 156 504 c 0,37,38
 156 562 156 562 196.5 599.5 c 128,-1,39
 237 637 237 637 310 637 c 0,40,41
 388 637 388 637 433 598 c 0,42,43
 465 570 465 570 489 512 c 1,44,-1
 411 426 l 1,45,-1
 402 436 l 1,46,47
 424 470 424 470 424 509 c 0,48,49
 424 552 424 552 397 581 c 128,-1,50
 370 610 370 610 325 610 c 0,51,52
 287 610 287 610 260 582 c 128,-1,53
 233 554 233 554 233 509 c 0,54,55
 233 431 233 431 297 395 c 0,56,57
 369 355 369 355 540 355 c 2,58,-1
 585 355 l 2,59,60
 614 355 614 355 627 369 c 128,-1,61
 640 383 640 383 644 420 c 2,62,-1
 645 431 l 1,63,-1
 658 432 l 1,64,-1
 657 418 l 1,65,-1
 652 340 l 1,66,-1
 657 259 l 1,67,-1
 658 245 l 1,0,-1
458 66 m 1,68,-1
 458 322 l 1,69,-1
 321 322 l 2,70,71
 252 322 252 322 201 279 c 0,72,73
 145 232 145 232 145 161 c 0,74,75
 145 94 145 94 192 51 c 128,-1,76
 239 8 239 8 317 8 c 0,77,78
 365 8 365 8 403 27 c 0,79,80
 424 37 424 37 458 66 c 1,68,-1
EndSplineSet
EndChar

StartChar: quotesingle
Encoding: 39 39 10
Width: 300
Flags: W
LayerCount: 2
Fore
SplineSet
200 568 m 1,0,1
 178 560 178 560 162 519.5 c 128,-1,2
 146 479 146 479 139 397 c 1,3,-1
 131 397 l 1,4,5
 124 480 124 480 108.5 520 c 128,-1,6
 93 560 93 560 70 568 c 1,7,-1
 70 576 l 1,8,9
 91 583 91 583 107 599.5 c 128,-1,10
 123 616 123 616 131 637 c 1,11,-1
 139 637 l 1,12,13
 146 616 146 616 162.5 600 c 128,-1,14
 179 584 179 584 200 576 c 1,15,-1
 200 568 l 1,0,1
EndSplineSet
EndChar

StartChar: parenleft
Encoding: 40 40 11
Width: 402
Flags: W
LayerCount: 2
Fore
SplineSet
336 -112 m 1,0,-1
 329 -126 l 1,1,2
 227 -28 227 -28 169 78 c 0,3,4
 100 204 100 204 100 331 c 0,5,6
 100 456 100 456 169 583 c 0,7,8
 228 691 228 691 329 788 c 1,9,-1
 336 774 l 1,10,11
 262 691 262 691 217 582 c 0,12,13
 167 460 167 460 167 331 c 256,14,15
 167 202 167 202 217 80 c 0,16,17
 261 -28 261 -28 336 -112 c 1,0,-1
EndSplineSet
EndChar

StartChar: parenright
Encoding: 41 41 12
Width: 402
Flags: W
LayerCount: 2
Fore
SplineSet
300 331 m 0,0,1
 300 206 300 206 231 79 c 0,2,3
 172 -29 172 -29 71 -126 c 1,4,-1
 64 -112 l 1,5,6
 138 -29 138 -29 183 80 c 0,7,8
 233 202 233 202 233 331 c 256,9,10
 233 460 233 460 183 582 c 0,11,12
 139 690 139 690 64 774 c 1,13,-1
 71 788 l 1,14,15
 173 690 173 690 231 584 c 0,16,17
 300 458 300 458 300 331 c 0,0,1
EndSplineSet
EndChar

StartChar: asterisk
Encoding: 42 42 13
Width: 478
Flags: W
LayerCount: 2
Fore
SplineSet
428 443 m 1,0,1
 323 443 323 443 283.5 403.5 c 128,-1,2
 244 364 244 364 244 259 c 1,3,-1
 234 259 l 1,4,5
 234 364 234 364 194.5 403.5 c 128,-1,6
 155 443 155 443 50 443 c 1,7,-1
 50 453 l 1,8,9
 155 453 155 453 194.5 492.5 c 128,-1,10
 234 532 234 532 234 637 c 1,11,-1
 244 637 l 1,12,13
 244 532 244 532 283.5 492.5 c 128,-1,14
 323 453 323 453 428 453 c 1,15,-1
 428 443 l 1,0,1
EndSplineSet
EndChar

StartChar: plus
Encoding: 43 43 14
Width: 667
Flags: W
LayerCount: 2
Fore
SplineSet
597 281 m 1,0,-1
 359 281 l 1,1,-1
 359 45 l 1,2,-1
 306 45 l 1,3,-1
 306 281 l 1,4,-1
 69 281 l 1,5,-1
 69 333 l 1,6,-1
 306 333 l 1,7,-1
 306 571 l 1,8,-1
 359 571 l 1,9,-1
 359 333 l 1,10,-1
 597 333 l 1,11,-1
 597 281 l 1,0,-1
EndSplineSet
EndChar

StartChar: comma
Encoding: 44 44 15
Width: 300
Flags: W
LayerCount: 2
Fore
SplineSet
200 30 m 1,0,1
 187 19 187 19 157.5 -41 c 128,-1,2
 128 -101 128 -101 109 -116 c 1,3,-1
 98 -108 l 1,4,5
 110 -91 110 -91 117.5 -72 c 128,-1,6
 125 -53 125 -53 125 -37 c 0,7,8
 125 -15 125 -15 112 2 c 128,-1,9
 99 19 99 19 70 30 c 1,10,-1
 70 38 l 1,11,12
 91 45 91 45 107 61.5 c 128,-1,13
 123 78 123 78 131 99 c 1,14,-1
 139 99 l 1,15,16
 146 78 146 78 162.5 62 c 128,-1,17
 179 46 179 46 200 38 c 1,18,-1
 200 30 l 1,0,1
EndSplineSet
EndChar

StartChar: hyphen
Encoding: 45 45 16
Width: 407
Flags: W
LayerCount: 2
Fore
SplineSet
367 284 m 1,0,-1
 40 284 l 1,1,-1
 40 330 l 1,2,-1
 367 330 l 1,3,-1
 367 284 l 1,0,-1
EndSplineSet
EndChar

StartChar: period
Encoding: 46 46 17
Width: 300
Flags: W
LayerCount: 2
Fore
SplineSet
206 30 m 1,0,1
 186 22 186 22 169.5 4.5 c 128,-1,2
 153 -13 153 -13 139 -37 c 1,3,-1
 131 -37 l 1,4,5
 121 -14 121 -14 104 3.5 c 128,-1,6
 87 21 87 21 64 30 c 1,7,-1
 64 38 l 1,8,9
 87 46 87 46 104.5 64 c 128,-1,10
 122 82 122 82 131 105 c 1,11,-1
 139 105 l 1,12,13
 147 82 147 82 165 64.5 c 128,-1,14
 183 47 183 47 206 38 c 1,15,-1
 206 30 l 1,0,1
EndSplineSet
EndChar

StartChar: slash
Encoding: 47 47 18
Width: 458
Flags: W
LayerCount: 2
Fore
SplineSet
420 637 m 1,0,-1
 101 -15 l 1,1,-1
 39 -15 l 1,2,-1
 357 637 l 1,3,-1
 420 637 l 1,0,-1
EndSplineSet
EndChar

StartChar: zero
Encoding: 48 48 19
Width: 610
Flags: W
LayerCount: 2
Fore
SplineSet
520 321 m 0,0,1
 520 183 520 183 460 86 c 0,2,3
 397 -15 397 -15 305 -15 c 0,4,5
 214 -15 214 -15 152 72.5 c 128,-1,6
 90 160 90 160 90 301 c 0,7,8
 90 439 90 439 151.5 538 c 128,-1,9
 213 637 213 637 305 637 c 0,10,11
 396 637 396 637 458 549.5 c 128,-1,12
 520 462 520 462 520 321 c 0,0,1
450 311 m 0,13,14
 450 434 450 434 404 520.5 c 128,-1,15
 358 607 358 607 290 607 c 0,16,17
 229 607 229 607 194 522.5 c 128,-1,18
 159 438 159 438 159 311 c 0,19,20
 159 188 159 188 206 101.5 c 128,-1,21
 253 15 253 15 321 15 c 0,22,23
 382 15 382 15 416 99.5 c 128,-1,24
 450 184 450 184 450 311 c 0,13,14
EndSplineSet
EndChar

StartChar: one
Encoding: 49 49 20
Width: 482
Flags: W
LayerCount: 2
Fore
SplineSet
352 -5 m 1,0,-1
 338 -4 l 1,1,-1
 260 1 l 1,2,-1
 222 1 l 1,3,-1
 144 -4 l 1,4,-1
 130 -5 l 1,5,-1
 131 8 l 1,6,-1
 142 9 l 2,7,8
 179 13 179 13 193 25 c 128,-1,9
 207 37 207 37 207 68 c 2,10,-1
 207 554 l 2,11,12
 207 583 207 583 193 596 c 128,-1,13
 179 609 179 609 142 613 c 2,14,-1
 131 614 l 1,15,-1
 130 627 l 1,16,-1
 144 626 l 1,17,-1
 222 621 l 1,18,-1
 260 621 l 1,19,-1
 338 626 l 1,20,-1
 352 627 l 1,21,-1
 351 614 l 1,22,-1
 340 613 l 2,23,24
 303 609 303 609 289 597 c 128,-1,25
 275 585 275 585 275 554 c 2,26,-1
 275 68 l 2,27,28
 275 39 275 39 289 26 c 128,-1,29
 303 13 303 13 340 9 c 2,30,-1
 351 8 l 1,31,-1
 352 -5 l 1,0,-1
EndSplineSet
EndChar

StartChar: two
Encoding: 50 50 21
Width: 593
Flags: W
LayerCount: 2
Fore
SplineSet
513 -77 m 1,0,-1
 500 -76 l 1,1,-1
 499 -65 l 2,2,3
 495 -28 495 -28 483 -14 c 128,-1,4
 471 0 471 0 440 0 c 2,5,-1
 77 0 l 1,6,-1
 80 17 l 1,7,8
 108 52 108 52 214 164 c 0,9,10
 299 255 299 255 339 315 c 0,11,12
 395 400 395 400 395 468 c 0,13,14
 395 532 395 532 359.5 572.5 c 128,-1,15
 324 613 324 613 264 613 c 0,16,17
 215 613 215 613 182 581 c 128,-1,18
 149 549 149 549 149 502 c 0,19,20
 149 496 149 496 149 493 c 0,21,22
 149 436 149 436 213 426 c 1,23,-1
 224 425 l 1,24,-1
 225 412 l 1,25,26
 188 414 188 414 167 415 c 0,27,28
 107 419 107 419 80 425 c 1,29,30
 80 528 80 528 144 586 c 0,31,32
 200 637 200 637 279 637 c 0,33,34
 363 637 363 637 418 593.5 c 128,-1,35
 473 550 473 550 473 474 c 0,36,37
 473 387 473 387 356 260 c 1,38,39
 261 164 261 164 167 68 c 1,40,-1
 440 68 l 2,41,42
 469 68 469 68 482 82 c 128,-1,43
 495 96 495 96 499 133 c 2,44,-1
 500 144 l 1,45,-1
 513 145 l 1,46,-1
 512 131 l 1,47,-1
 507 53 l 1,48,-1
 507 15 l 1,49,-1
 512 -63 l 1,50,-1
 513 -77 l 1,0,-1
EndSplineSet
EndChar

StartChar: three
Encoding: 51 51 22
Width: 570
Flags: W
LayerCount: 2
Fore
SplineSet
488 191 m 0,0,1
 488 107 488 107 429 46 c 128,-1,2
 370 -15 370 -15 283 -15 c 0,3,4
 236 -15 236 -15 199 0 c 128,-1,5
 162 15 162 15 131 44 c 0,6,7
 110 63 110 63 92 63 c 0,8,9
 72 63 72 63 43 40 c 2,10,-1
 35 33 l 1,11,-1
 25 41 l 1,12,-1
 36 50 l 2,13,14
 55 66 55 66 62 72 c 0,15,16
 82 89 82 89 94 102 c 2,17,-1
 121 129 l 2,18,19
 126 134 126 134 143 153 c 0,20,21
 152 163 152 163 173 187 c 2,22,-1
 182 198 l 1,23,-1
 190 188 l 1,24,-1
 183 180 l 2,25,26
 161 152 161 152 161 132 c 0,27,28
 161 121 161 121 166 108 c 0,29,30
 168 102 168 102 173 92 c 0,31,32
 188 59 188 59 221 35.5 c 128,-1,33
 254 12 254 12 298 12 c 0,34,35
 350 12 350 12 383.5 55.5 c 128,-1,36
 417 99 417 99 417 164 c 0,37,38
 417 178 417 178 416 185 c 0,39,40
 410 253 410 253 368 292 c 128,-1,41
 326 331 326 331 268 331 c 0,42,43
 253 331 253 331 236 325 c 0,44,45
 233 324 233 324 229 322 c 1,46,47
 301 381 301 381 343 435 c 0,48,49
 390 494 390 494 404 554 c 1,50,-1
 206 554 l 2,51,52
 177 554 177 554 164 540 c 128,-1,53
 151 526 151 526 147 489 c 2,54,-1
 146 478 l 1,55,-1
 133 477 l 1,56,-1
 134 491 l 1,57,-1
 139 569 l 1,58,-1
 139 607 l 1,59,-1
 134 685 l 1,60,-1
 133 699 l 1,61,-1
 146 698 l 1,62,-1
 147 687 l 2,63,64
 151 650 151 650 163 636 c 128,-1,65
 175 622 175 622 206 622 c 2,66,-1
 465 622 l 1,67,68
 451 553 451 553 417 490.5 c 128,-1,69
 383 428 383 428 334 379 c 1,70,71
 402 364 402 364 445 314 c 128,-1,72
 488 264 488 264 488 191 c 0,0,1
EndSplineSet
EndChar

StartChar: four
Encoding: 52 52 23
Width: 590
Flags: W
LayerCount: 2
Fore
SplineSet
502 91 m 1,0,-1
 489 92 l 1,1,-1
 488 103 l 2,2,3
 484 140 484 140 472 154 c 128,-1,4
 460 168 460 168 429 168 c 2,5,-1
 400 168 l 1,6,-1
 400 68 l 2,7,8
 400 39 400 39 414 26 c 128,-1,9
 428 13 428 13 465 9 c 2,10,-1
 476 8 l 1,11,-1
 477 -5 l 1,12,-1
 463 -4 l 1,13,-1
 385 1 l 1,14,-1
 347 1 l 1,15,-1
 269 -4 l 1,16,-1
 255 -5 l 1,17,-1
 256 8 l 1,18,-1
 267 9 l 2,19,20
 304 13 304 13 318 25 c 128,-1,21
 332 37 332 37 332 68 c 2,22,-1
 332 168 l 1,23,-1
 40 168 l 1,24,-1
 345 621 l 1,25,-1
 385 621 l 1,26,-1
 463 626 l 1,27,-1
 477 627 l 1,28,-1
 476 614 l 1,29,-1
 465 613 l 2,30,31
 428 609 428 609 414 597 c 128,-1,32
 400 585 400 585 400 554 c 2,33,-1
 400 217 l 1,34,-1
 429 217 l 2,35,36
 458 217 458 217 471 231 c 128,-1,37
 484 245 484 245 488 282 c 2,38,-1
 489 293 l 1,39,-1
 502 294 l 1,40,-1
 501 280 l 1,41,-1
 496 202 l 1,42,-1
 496 183 l 1,43,-1
 501 105 l 1,44,-1
 502 91 l 1,0,-1
332 217 m 1,45,-1
 332 533 l 1,46,-1
 120 217 l 1,47,-1
 332 217 l 1,45,-1
EndSplineSet
EndChar

StartChar: five
Encoding: 53 53 24
Width: 558
Flags: W
LayerCount: 2
Fore
SplineSet
468 191 m 0,0,1
 468 107 468 107 409 46 c 128,-1,2
 350 -15 350 -15 263 -15 c 0,3,4
 197 -15 197 -15 145 17 c 0,5,6
 85 54 85 54 64 122 c 1,7,8
 103 142 103 142 156 162 c 0,9,10
 172 168 172 168 198 177 c 1,11,-1
 201 164 l 1,12,-1
 191 160 l 1,13,14
 145 137 145 137 145 107 c 0,15,16
 145 96 145 96 151 82 c 0,17,18
 169 43 169 43 205 25 c 0,19,20
 235 10 235 10 271 10 c 0,21,22
 327 10 327 10 361.5 50.5 c 128,-1,23
 396 91 396 91 396 154 c 0,24,25
 396 167 396 167 395 174 c 0,26,27
 388 244 388 244 348 289 c 0,28,29
 305 337 305 337 241 337 c 0,30,31
 169 337 169 337 129 300 c 1,32,-1
 111 318 l 1,33,-1
 131 622 l 1,34,-1
 360 622 l 2,35,36
 389 622 389 622 402 636 c 128,-1,37
 415 650 415 650 419 687 c 2,38,-1
 420 698 l 1,39,-1
 433 699 l 1,40,-1
 432 685 l 1,41,-1
 427 607 l 1,42,-1
 427 569 l 1,43,-1
 432 491 l 1,44,-1
 433 477 l 1,45,-1
 420 478 l 1,46,-1
 419 489 l 2,47,48
 415 526 415 526 403 540 c 128,-1,49
 391 554 391 554 360 554 c 2,50,-1
 166 554 l 1,51,-1
 152 353 l 1,52,53
 177 368 177 368 204 376 c 128,-1,54
 231 384 231 384 263 384 c 0,55,56
 349 384 349 384 408.5 330.5 c 128,-1,57
 468 277 468 277 468 191 c 0,0,1
EndSplineSet
EndChar

StartChar: six
Encoding: 54 54 25
Width: 573
Flags: W
LayerCount: 2
Fore
SplineSet
495 175 m 0,0,1
 495 90 495 90 442.5 37.5 c 128,-1,2
 390 -15 390 -15 313 -15 c 0,3,4
 213 -15 213 -15 155 56 c 0,5,6
 94 130 94 130 94 262 c 0,7,8
 94 274 94 274 94 286 c 128,-1,9
 94 298 94 298 96 314 c 0,10,11
 107 442 107 442 179 536 c 0,12,13
 243 620 243 620 334 653 c 0,14,15
 341 656 341 656 347 654 c 0,16,17
 352 653 352 653 352 649 c 0,18,19
 352 641 352 641 338 634 c 0,20,21
 265 594 265 594 222 516 c 0,22,23
 172 426 172 426 172 300 c 1,24,25
 193 334 193 334 231.5 354.5 c 128,-1,26
 270 375 270 375 313 375 c 0,27,28
 391 375 391 375 443 316 c 128,-1,29
 495 257 495 257 495 175 c 0,0,1
428 180 m 1,30,31
 428 253 428 253 399 301.5 c 128,-1,32
 370 350 370 350 316 350 c 0,33,34
 260 350 260 350 222.5 301 c 128,-1,35
 185 252 185 252 179 180 c 1,36,37
 179 107 179 107 208 59.5 c 128,-1,38
 237 12 237 12 290 12 c 0,39,40
 346 12 346 12 384 60 c 128,-1,41
 422 108 422 108 428 180 c 1,30,31
EndSplineSet
EndChar

StartChar: seven
Encoding: 55 55 26
Width: 530
Flags: W
LayerCount: 2
Fore
SplineSet
488 622 m 1,0,-1
 341 320 l 2,1,2
 265 164 265 164 222.5 99.5 c 128,-1,3
 180 35 180 35 134 -2 c 0,4,5
 121 -12 121 -12 113 -12 c 0,6,7
 106 -12 106 -12 107 -5 c 128,-1,8
 108 2 108 2 120 15 c 0,9,10
 150 48 150 48 180 104 c 0,11,12
 220 179 220 179 283 338 c 2,13,-1
 369 554 l 1,14,-1
 117 554 l 2,15,16
 88 554 88 554 75 540 c 128,-1,17
 62 526 62 526 58 489 c 2,18,-1
 57 478 l 1,19,-1
 44 477 l 1,20,-1
 45 491 l 1,21,-1
 50 569 l 1,22,-1
 50 622 l 1,23,-1
 488 622 l 1,0,-1
EndSplineSet
EndChar

StartChar: eight
Encoding: 56 56 27
Width: 575
Flags: W
LayerCount: 2
Fore
SplineSet
490 156 m 0,0,1
 490 92 490 92 431 38.5 c 128,-1,2
 372 -15 372 -15 292 -15 c 0,3,4
 197 -15 197 -15 142 45 c 0,5,6
 95 96 95 96 95 163 c 0,7,8
 95 221 95 221 127.5 268.5 c 128,-1,9
 160 316 160 316 214 338 c 1,10,11
 164 371 164 371 140 401 c 0,12,13
 110 439 110 439 110 482 c 0,14,15
 110 553 110 553 166 597 c 0,16,17
 217 637 217 637 288 637 c 0,18,19
 362 637 362 637 412.5 596.5 c 128,-1,20
 463 556 463 556 463 495 c 0,21,22
 463 458 463 458 436.5 423 c 128,-1,23
 410 388 410 388 374 371 c 0,24,25
 366 367 366 367 361 367 c 256,26,27
 356 367 356 367 356 370 c 0,28,29
 356 374 356 374 361 379 c 0,30,31
 383 399 383 399 395.5 426 c 128,-1,32
 408 453 408 453 408 489 c 0,33,34
 408 542 408 542 377 575 c 0,35,36
 343 611 343 611 289 611 c 0,37,38
 234 611 234 611 203.5 581.5 c 128,-1,39
 173 552 173 552 173 510 c 0,40,41
 173 476 173 476 195.5 447.5 c 128,-1,42
 218 419 218 419 299 372 c 0,43,44
 394 318 394 318 432 282 c 0,45,46
 490 226 490 226 490 156 c 0,0,1
418 128 m 0,47,48
 418 184 418 184 378 227 c 0,49,50
 344 263 344 263 252 315 c 2,51,-1
 245 319 l 1,52,53
 200 304 200 304 171.5 263.5 c 128,-1,54
 143 223 143 223 143 169 c 0,55,56
 143 102 143 102 190 57 c 0,57,58
 233 16 233 16 287 16 c 0,59,60
 340 16 340 16 379 48 c 128,-1,61
 418 80 418 80 418 128 c 0,47,48
EndSplineSet
EndChar

StartChar: nine
Encoding: 57 57 28
Width: 573
Flags: W
LayerCount: 2
Fore
SplineSet
479 308 m 0,0,1
 468 180 468 180 396 86 c 0,2,3
 332 2 332 2 241 -31 c 0,4,5
 234 -34 234 -34 228 -32 c 0,6,7
 223 -31 223 -31 223 -27 c 0,8,9
 223 -19 223 -19 237 -12 c 0,10,11
 310 28 310 28 353 106 c 0,12,13
 403 196 403 196 403 322 c 1,14,15
 382 288 382 288 343.5 267.5 c 128,-1,16
 305 247 305 247 262 247 c 0,17,18
 184 247 184 247 132 306 c 128,-1,19
 80 365 80 365 80 447 c 0,20,21
 80 532 80 532 132.5 584.5 c 128,-1,22
 185 637 185 637 262 637 c 0,23,24
 362 637 362 637 421.5 564.5 c 128,-1,25
 481 492 481 492 481 360 c 0,26,27
 481 347 481 347 481 341 c 0,28,29
 481 333 481 333 481 325 c 0,30,31
 479 313 479 313 479 308 c 0,0,1
396 442 m 1,32,33
 396 515 396 515 367 562.5 c 128,-1,34
 338 610 338 610 285 610 c 0,35,36
 229 610 229 610 191 562 c 128,-1,37
 153 514 153 514 147 442 c 1,38,39
 147 369 147 369 176 320.5 c 128,-1,40
 205 272 205 272 259 272 c 0,41,42
 315 272 315 272 352.5 321 c 128,-1,43
 390 370 390 370 396 442 c 1,32,33
EndSplineSet
EndChar

StartChar: colon
Encoding: 58 58 29
Width: 300
Flags: W
LayerCount: 2
Fore
SplineSet
200 360 m 1,0,1
 182 353 182 353 166.5 336.5 c 128,-1,2
 151 320 151 320 139 299 c 1,3,-1
 131 299 l 1,4,5
 123 318 123 318 106.5 335.5 c 128,-1,6
 90 353 90 353 70 360 c 1,7,-1
 70 368 l 1,8,9
 91 375 91 375 107 391.5 c 128,-1,10
 123 408 123 408 131 429 c 1,11,-1
 139 429 l 1,12,13
 146 408 146 408 162.5 392 c 128,-1,14
 179 376 179 376 200 368 c 1,15,-1
 200 360 l 1,0,1
200 30 m 1,16,17
 182 23 182 23 166.5 6.5 c 128,-1,18
 151 -10 151 -10 139 -31 c 1,19,-1
 131 -31 l 1,20,21
 123 -12 123 -12 106.5 5.5 c 128,-1,22
 90 23 90 23 70 30 c 1,23,-1
 70 38 l 1,24,25
 91 45 91 45 107 61.5 c 128,-1,26
 123 78 123 78 131 99 c 1,27,-1
 139 99 l 1,28,29
 146 78 146 78 162.5 62 c 128,-1,30
 179 46 179 46 200 38 c 1,31,-1
 200 30 l 1,16,17
EndSplineSet
EndChar

StartChar: semicolon
Encoding: 59 59 30
Width: 300
Flags: W
LayerCount: 2
Fore
SplineSet
200 360 m 1,0,1
 182 353 182 353 166.5 336.5 c 128,-1,2
 151 320 151 320 139 299 c 1,3,-1
 131 299 l 1,4,5
 123 318 123 318 106.5 335.5 c 128,-1,6
 90 353 90 353 70 360 c 1,7,-1
 70 368 l 1,8,9
 91 375 91 375 107 391.5 c 128,-1,10
 123 408 123 408 131 429 c 1,11,-1
 139 429 l 1,12,13
 146 408 146 408 162.5 392 c 128,-1,14
 179 376 179 376 200 368 c 1,15,-1
 200 360 l 1,0,1
200 30 m 1,16,17
 187 19 187 19 157.5 -41 c 128,-1,18
 128 -101 128 -101 109 -116 c 1,19,-1
 98 -108 l 1,20,21
 110 -91 110 -91 117.5 -72 c 128,-1,22
 125 -53 125 -53 125 -37 c 0,23,24
 125 -15 125 -15 112 2 c 128,-1,25
 99 19 99 19 70 30 c 1,26,-1
 70 38 l 1,27,28
 91 45 91 45 107 61.5 c 128,-1,29
 123 78 123 78 131 99 c 1,30,-1
 139 99 l 1,31,32
 146 78 146 78 162.5 62 c 128,-1,33
 179 46 179 46 200 38 c 1,34,-1
 200 30 l 1,16,17
EndSplineSet
EndChar

StartChar: less
Encoding: 60 60 31
Width: 330
Flags: W
LayerCount: 2
Fore
SplineSet
255 65 m 1,0,-1
 237 65 l 1,1,-1
 90 249 l 1,2,-1
 237 435 l 1,3,-1
 255 435 l 1,4,-1
 160 249 l 1,5,-1
 255 65 l 1,0,-1
EndSplineSet
EndChar

StartChar: equal
Encoding: 61 61 32
Width: 667
Flags: W
LayerCount: 2
Fore
SplineSet
597 391 m 1,0,-1
 70 391 l 1,1,-1
 70 444 l 1,2,-1
 597 444 l 1,3,-1
 597 391 l 1,0,-1
597 163 m 1,4,-1
 70 163 l 1,5,-1
 70 216 l 1,6,-1
 597 216 l 1,7,-1
 597 163 l 1,4,-1
EndSplineSet
EndChar

StartChar: greater
Encoding: 62 62 33
Width: 330
Flags: W
LayerCount: 2
Fore
SplineSet
240 249 m 1,0,-1
 93 65 l 1,1,-1
 75 65 l 1,2,-1
 170 249 l 1,3,-1
 75 435 l 1,4,-1
 93 435 l 1,5,-1
 240 249 l 1,0,-1
EndSplineSet
EndChar

StartChar: question
Encoding: 63 63 34
Width: 438
Flags: W
LayerCount: 2
Fore
SplineSet
386 461 m 0,0,1
 386 407 386 407 341.5 359.5 c 128,-1,2
 297 312 297 312 233 289 c 0,3,4
 195 274 195 274 183 262 c 0,5,6
 175 253 175 253 172 233 c 2,7,-1
 162 152 l 1,8,-1
 152 152 l 1,9,-1
 135 312 l 1,10,11
 212 312 212 312 261.5 357.5 c 128,-1,12
 311 403 311 403 311 462 c 0,13,14
 311 520 311 520 276 564 c 0,15,16
 238 612 238 612 184 612 c 0,17,18
 125 612 125 612 101 583 c 0,19,20
 84 562 84 562 71 501 c 1,21,-1
 60 501 l 1,22,23
 60 569 60 569 55 611 c 1,24,25
 93 626 93 626 117.5 631.5 c 128,-1,26
 142 637 142 637 184 637 c 0,27,28
 272 637 272 637 329 588.5 c 128,-1,29
 386 540 386 540 386 461 c 0,0,1
222 30 m 1,30,31
 204 23 204 23 188.5 6.5 c 128,-1,32
 173 -10 173 -10 161 -31 c 1,33,-1
 153 -31 l 1,34,35
 145 -12 145 -12 128.5 5.5 c 128,-1,36
 112 23 112 23 92 30 c 1,37,-1
 92 38 l 1,38,39
 113 45 113 45 129 61.5 c 128,-1,40
 145 78 145 78 153 99 c 1,41,-1
 161 99 l 1,42,43
 168 78 168 78 184.5 62 c 128,-1,44
 201 46 201 46 222 38 c 1,45,-1
 222 30 l 1,30,31
EndSplineSet
EndChar

StartChar: at
Encoding: 64 64 35
Width: 918
Flags: W
LayerCount: 2
Fore
SplineSet
775 197 m 1,0,1
 742 99 742 99 656 40 c 128,-1,2
 570 -19 570 -19 458 -19 c 0,3,4
 320 -19 320 -19 229 70 c 128,-1,5
 138 159 138 159 138 293 c 0,6,7
 138 438 138 438 238.5 537.5 c 128,-1,8
 339 637 339 637 485 637 c 0,9,10
 601 637 601 637 674 570 c 128,-1,11
 747 503 747 503 747 396 c 0,12,13
 747 293 747 293 688 220.5 c 128,-1,14
 629 148 629 148 545 148 c 0,15,16
 489 148 489 148 489 197 c 0,17,18
 489 211 489 211 492 236 c 0,19,20
 492 240 492 240 494 249 c 1,21,22
 463 197 463 197 423 171 c 0,23,24
 387 148 387 148 351 148 c 0,25,26
 322 148 322 148 303.5 173.5 c 128,-1,27
 285 199 285 199 285 242 c 0,28,29
 285 339 285 339 351 410 c 0,30,31
 412 476 412 476 486 476 c 0,32,33
 537 476 537 476 549 427 c 1,34,-1
 564 476 l 1,35,-1
 645 476 l 1,36,-1
 652 464 l 1,37,-1
 612 459 l 1,38,-1
 554 258 l 2,39,40
 543 222 543 222 543 201 c 0,41,42
 543 185 543 185 550 179 c 128,-1,43
 557 173 557 173 570 173 c 0,44,45
 624 173 624 173 672 236 c 0,46,47
 724 304 724 304 724 395 c 0,48,49
 724 487 724 487 661 545 c 128,-1,50
 598 603 598 603 501 603 c 0,51,52
 375 603 375 603 286 511 c 128,-1,53
 197 419 197 419 197 285 c 0,54,55
 197 168 197 168 274 90 c 128,-1,56
 351 12 351 12 466 12 c 0,57,58
 565 12 565 12 639 58.5 c 128,-1,59
 713 105 713 105 754 197 c 1,60,-1
 775 197 l 1,0,1
536 408 m 0,61,62
 536 431 536 431 523 445 c 128,-1,63
 510 459 510 459 490 459 c 0,64,65
 440 459 440 459 391 394 c 128,-1,66
 342 329 342 329 342 253 c 0,67,68
 342 226 342 226 354 208 c 128,-1,69
 366 190 366 190 384 190 c 0,70,71
 435 190 435 190 485.5 265 c 128,-1,72
 536 340 536 340 536 408 c 0,61,62
EndSplineSet
EndChar

StartChar: A
Encoding: 65 65 36
Width: 706
Flags: W
LayerCount: 2
Fore
SplineSet
656 -6 m 1,0,-1
 642 -5 l 1,1,-1
 564 0 l 1,2,-1
 526 0 l 1,3,-1
 448 -5 l 1,4,-1
 434 -6 l 1,5,-1
 435 7 l 1,6,-1
 446 8 l 2,7,8
 483 12 483 12 497 24 c 128,-1,9
 511 36 511 36 511 67 c 2,10,-1
 511 81 l 1,11,-1
 508 189 l 1,12,-1
 198 189 l 1,13,-1
 195 81 l 1,14,-1
 195 67 l 2,15,16
 195 38 195 38 209 25 c 128,-1,17
 223 12 223 12 260 8 c 2,18,-1
 271 7 l 1,19,-1
 272 -6 l 1,20,-1
 258 -5 l 1,21,-1
 180 0 l 1,22,-1
 142 0 l 1,23,-1
 64 -5 l 1,24,-1
 50 -6 l 1,25,-1
 51 7 l 1,26,-1
 62 8 l 2,27,28
 99 12 99 12 113 24 c 128,-1,29
 127 36 127 36 127 67 c 2,30,-1
 127 84 l 2,31,32
 127 286 127 286 172 416 c 0,33,34
 227 574 227 574 353 649 c 1,35,36
 478 575 478 575 533 417 c 0,37,38
 579 285 579 285 579 84 c 2,39,-1
 579 67 l 2,40,41
 579 38 579 38 593 25 c 128,-1,42
 607 12 607 12 644 8 c 2,43,-1
 655 7 l 1,44,-1
 656 -6 l 1,0,-1
506 227 m 1,45,46
 506 385 506 385 460 492 c 0,47,48
 420 584 420 584 353 623 c 1,49,50
 286 585 286 585 246 492 c 0,51,52
 200 386 200 386 200 227 c 1,53,-1
 506 227 l 1,45,46
EndSplineSet
EndChar

StartChar: B
Encoding: 66 66 37
Width: 680
Flags: W
LayerCount: 2
Fore
SplineSet
606 189 m 0,0,1
 606 110 606 110 551 59 c 0,2,3
 487 -1 487 -1 361 -1 c 2,4,-1
 172 1 l 1,5,-1
 94 -4 l 1,6,-1
 80 -5 l 1,7,-1
 81 8 l 1,8,-1
 92 9 l 2,9,10
 129 13 129 13 143 25 c 128,-1,11
 157 37 157 37 157 68 c 2,12,-1
 157 554 l 2,13,14
 157 583 157 583 143 596 c 128,-1,15
 129 609 129 609 92 613 c 2,16,-1
 81 614 l 1,17,-1
 80 627 l 1,18,-1
 359 628 l 2,19,20
 448 628 448 628 504 590.5 c 128,-1,21
 560 553 560 553 560 488 c 0,22,23
 560 445 560 445 532.5 409.5 c 128,-1,24
 505 374 505 374 458 358 c 1,25,26
 606 312 606 312 606 189 c 0,0,1
491 479 m 0,27,28
 491 544 491 544 447.5 576 c 128,-1,29
 404 608 404 608 301 608 c 1,30,-1
 225 604 l 1,31,-1
 225 372 l 1,32,-1
 359 372 l 2,33,34
 427 372 427 372 462 407 c 0,35,36
 491 436 491 436 491 479 c 0,27,28
527 187 m 0,37,38
 527 258 527 258 483 301 c 0,39,40
 435 348 435 348 352 348 c 2,41,-1
 225 348 l 1,42,-1
 225 146 l 2,43,44
 225 62 225 62 246 43 c 128,-1,45
 267 24 267 24 353 24 c 0,46,47
 429 24 429 24 478 71 c 128,-1,48
 527 118 527 118 527 187 c 0,37,38
EndSplineSet
EndChar

StartChar: C
Encoding: 67 67 38
Width: 735
Flags: W
LayerCount: 2
Fore
SplineSet
667 169 m 1,0,-1
 651 36 l 1,1,2
 623 15 623 15 560.5 0 c 128,-1,3
 498 -15 498 -15 439 -15 c 0,4,5
 286 -15 286 -15 185 71 c 0,6,7
 80 160 80 160 80 301 c 0,8,9
 80 438 80 438 181 536 c 0,10,11
 286 637 286 637 439 637 c 0,12,13
 492 637 492 637 536 624 c 128,-1,14
 580 611 580 611 625 597 c 0,15,16
 636 597 636 597 644 602 c 1,17,-1
 651 474 l 1,18,-1
 640 474 l 1,19,20
 617 552 617 552 561 585 c 0,21,22
 512 614 512 614 426 614 c 0,23,24
 311 614 311 614 238.5 522.5 c 128,-1,25
 166 431 166 431 166 302 c 256,26,27
 166 173 166 173 252 89 c 0,28,29
 335 8 335 8 452 8 c 0,30,31
 542 8 542 8 587 40 c 0,32,33
 640 77 640 77 650 169 c 1,34,-1
 667 169 l 1,0,-1
EndSplineSet
EndChar

StartChar: D
Encoding: 68 68 39
Width: 816
Flags: W
LayerCount: 2
Fore
SplineSet
736 323 m 0,0,1
 736 190 736 190 633.5 94.5 c 128,-1,2
 531 -1 531 -1 377 -1 c 2,3,-1
 172 1 l 1,4,-1
 94 -4 l 1,5,-1
 80 -5 l 1,6,-1
 81 8 l 1,7,-1
 92 9 l 2,8,9
 129 13 129 13 143 25 c 128,-1,10
 157 37 157 37 157 68 c 2,11,-1
 157 554 l 2,12,13
 157 583 157 583 143 596 c 128,-1,14
 129 609 129 609 92 613 c 2,15,-1
 81 614 l 1,16,-1
 80 627 l 1,17,-1
 94 626 l 1,18,-1
 172 621 l 1,19,-1
 377 626 l 2,20,21
 529 626 529 626 632.5 541.5 c 128,-1,22
 736 457 736 457 736 323 c 0,0,1
656 320 m 0,23,24
 656 443 656 443 575 521 c 128,-1,25
 494 599 494 599 376 599 c 2,26,-1
 225 595 l 1,27,-1
 225 112 l 2,28,29
 225 60 225 60 254 41.5 c 128,-1,30
 283 23 283 23 376 23 c 0,31,32
 496 23 496 23 576 110.5 c 128,-1,33
 656 198 656 198 656 320 c 0,23,24
EndSplineSet
EndChar

StartChar: E
Encoding: 69 69 40
Width: 596
Flags: W
LayerCount: 2
Fore
SplineSet
529 119 m 1,0,1
 506 77 506 77 497 48 c 0,2,3
 490 15 490 15 485 -4 c 1,4,-1
 328 1 l 1,5,-1
 172 1 l 1,6,-1
 94 -4 l 1,7,-1
 80 -5 l 1,8,-1
 81 8 l 1,9,-1
 92 9 l 2,10,11
 129 13 129 13 143 25 c 128,-1,12
 157 37 157 37 157 68 c 2,13,-1
 157 554 l 2,14,15
 157 583 157 583 143 596 c 128,-1,16
 129 609 129 609 92 613 c 2,17,-1
 81 614 l 1,18,-1
 80 627 l 1,19,-1
 94 626 l 1,20,-1
 172 621 l 1,21,-1
 484 621 l 1,22,-1
 503 513 l 1,23,-1
 489 513 l 1,24,25
 476 563 476 563 462.5 574.5 c 128,-1,26
 449 586 449 586 403 586 c 2,27,-1
 225 588 l 1,28,-1
 225 360 l 1,29,-1
 451 360 l 1,30,-1
 451 328 l 1,31,-1
 225 328 l 1,32,-1
 225 94 l 2,33,34
 225 53 225 53 232.5 44.5 c 128,-1,35
 240 36 240 36 276 36 c 2,36,-1
 383 36 l 2,37,38
 436 36 436 36 458 51 c 128,-1,39
 480 66 480 66 512 117 c 1,40,-1
 529 119 l 1,0,1
EndSplineSet
EndChar

StartChar: F
Encoding: 70 70 41
Width: 550
Flags: W
LayerCount: 2
Fore
SplineSet
502 513 m 1,0,-1
 488 513 l 1,1,2
 475 569 475 569 459.5 577.5 c 128,-1,3
 444 586 444 586 375 586 c 2,4,-1
 225 588 l 1,5,-1
 225 360 l 1,6,-1
 437 360 l 1,7,-1
 437 328 l 1,8,-1
 225 328 l 1,9,-1
 225 68 l 2,10,11
 225 39 225 39 239 26 c 128,-1,12
 253 13 253 13 290 9 c 2,13,-1
 301 8 l 1,14,-1
 302 -5 l 1,15,-1
 288 -4 l 1,16,-1
 210 1 l 1,17,-1
 172 1 l 1,18,-1
 94 -4 l 1,19,-1
 80 -5 l 1,20,-1
 81 8 l 1,21,-1
 92 9 l 2,22,23
 129 13 129 13 143 25 c 128,-1,24
 157 37 157 37 157 68 c 2,25,-1
 157 554 l 2,26,27
 157 583 157 583 143 596 c 128,-1,28
 129 609 129 609 92 613 c 2,29,-1
 81 614 l 1,30,-1
 80 627 l 1,31,-1
 94 626 l 1,32,-1
 172 621 l 1,33,-1
 483 622 l 1,34,-1
 502 513 l 1,0,-1
EndSplineSet
EndChar

StartChar: G
Encoding: 71 71 42
Width: 780
Flags: W
LayerCount: 2
Fore
SplineSet
739 273 m 1,0,-1
 738 260 l 1,1,-1
 727 259 l 2,2,3
 690 255 690 255 676 243 c 128,-1,4
 662 231 662 231 662 200 c 2,5,-1
 662 38 l 1,6,7
 608 9 608 9 553 -3 c 128,-1,8
 498 -15 498 -15 439 -15 c 0,9,10
 286 -15 286 -15 185 71 c 0,11,12
 80 160 80 160 80 301 c 0,13,14
 80 438 80 438 181 536 c 0,15,16
 286 637 286 637 439 637 c 0,17,18
 492 637 492 637 536 625 c 0,19,20
 582 610 582 610 628 596 c 0,21,22
 639 596 639 596 647 601 c 1,23,-1
 670 472 l 1,24,-1
 656 472 l 1,25,26
 631 545 631 545 570.5 579.5 c 128,-1,27
 510 614 510 614 426 614 c 0,28,29
 311 614 311 614 238.5 522.5 c 128,-1,30
 166 431 166 431 166 302 c 256,31,32
 166 173 166 173 252 89 c 0,33,34
 335 8 335 8 452 8 c 0,35,36
 493 8 493 8 528.5 17 c 128,-1,37
 564 26 564 26 594 46 c 1,38,-1
 594 200 l 2,39,40
 594 229 594 229 572 242 c 128,-1,41
 550 255 550 255 508 259 c 2,42,-1
 487 260 l 1,43,-1
 486 273 l 1,44,-1
 510 272 l 2,45,46
 541 269 541 269 562 268 c 128,-1,47
 583 267 583 267 609 267 c 2,48,-1
 647 267 l 1,49,-1
 725 272 l 1,50,-1
 739 273 l 1,0,-1
EndSplineSet
EndChar

StartChar: H
Encoding: 72 72 43
Width: 816
Flags: W
LayerCount: 2
Fore
SplineSet
736 -5 m 1,0,-1
 722 -4 l 1,1,-1
 644 1 l 1,2,-1
 606 1 l 1,3,-1
 528 -4 l 1,4,-1
 514 -5 l 1,5,-1
 515 8 l 1,6,-1
 526 9 l 2,7,8
 563 13 563 13 577 25 c 128,-1,9
 591 37 591 37 591 68 c 2,10,-1
 591 296 l 1,11,-1
 225 296 l 1,12,-1
 225 68 l 2,13,14
 225 39 225 39 239 26 c 128,-1,15
 253 13 253 13 290 9 c 2,16,-1
 301 8 l 1,17,-1
 302 -5 l 1,18,-1
 288 -4 l 1,19,-1
 210 1 l 1,20,-1
 172 1 l 1,21,-1
 94 -4 l 1,22,-1
 80 -5 l 1,23,-1
 81 8 l 1,24,-1
 92 9 l 2,25,26
 129 13 129 13 143 25 c 128,-1,27
 157 37 157 37 157 68 c 2,28,-1
 157 554 l 2,29,30
 157 583 157 583 143 596 c 128,-1,31
 129 609 129 609 92 613 c 2,32,-1
 81 614 l 1,33,-1
 80 627 l 1,34,-1
 94 626 l 1,35,-1
 172 621 l 1,36,-1
 210 621 l 1,37,-1
 288 626 l 1,38,-1
 302 627 l 1,39,-1
 301 614 l 1,40,-1
 290 613 l 2,41,42
 253 609 253 609 239 597 c 128,-1,43
 225 585 225 585 225 554 c 2,44,-1
 225 392 l 1,45,-1
 591 392 l 1,46,-1
 591 554 l 2,47,48
 591 583 591 583 577 596 c 128,-1,49
 563 609 563 609 526 613 c 2,50,-1
 515 614 l 1,51,-1
 514 627 l 1,52,-1
 528 626 l 1,53,-1
 606 621 l 1,54,-1
 644 621 l 1,55,-1
 722 626 l 1,56,-1
 736 627 l 1,57,-1
 735 614 l 1,58,-1
 724 613 l 2,59,60
 687 609 687 609 673 597 c 128,-1,61
 659 585 659 585 659 554 c 2,62,-1
 659 68 l 2,63,64
 659 39 659 39 673 26 c 128,-1,65
 687 13 687 13 724 9 c 2,66,-1
 735 8 l 1,67,-1
 736 -5 l 1,0,-1
591 328 m 1,68,-1
 591 360 l 1,69,-1
 225 360 l 1,70,-1
 225 328 l 1,71,-1
 591 328 l 1,68,-1
EndSplineSet
EndChar

StartChar: I
Encoding: 73 73 44
Width: 402
Flags: W
LayerCount: 2
Fore
SplineSet
266 731 m 1,0,1
 223 713 223 713 205 670 c 1,2,-1
 197 670 l 1,3,4
 179 713 179 713 136 731 c 1,5,-1
 136 739 l 1,6,7
 179 757 179 757 197 800 c 1,8,-1
 205 800 l 1,9,10
 223 757 223 757 266 739 c 1,11,-1
 266 731 l 1,0,1
312 -5 m 1,12,-1
 298 -4 l 1,13,-1
 220 1 l 1,14,-1
 182 1 l 1,15,-1
 104 -4 l 1,16,-1
 90 -5 l 1,17,-1
 91 8 l 1,18,-1
 102 9 l 2,19,20
 139 13 139 13 153 25 c 128,-1,21
 167 37 167 37 167 68 c 2,22,-1
 167 554 l 2,23,24
 167 583 167 583 153 596 c 128,-1,25
 139 609 139 609 102 613 c 2,26,-1
 91 614 l 1,27,-1
 90 627 l 1,28,-1
 104 626 l 1,29,-1
 182 621 l 1,30,-1
 220 621 l 1,31,-1
 298 626 l 1,32,-1
 312 627 l 1,33,-1
 311 614 l 1,34,-1
 300 613 l 2,35,36
 263 609 263 609 249 597 c 128,-1,37
 235 585 235 585 235 554 c 2,38,-1
 235 68 l 2,39,40
 235 39 235 39 249 26 c 128,-1,41
 263 13 263 13 300 9 c 2,42,-1
 311 8 l 1,43,-1
 312 -5 l 1,12,-1
EndSplineSet
EndChar

StartChar: J
Encoding: 74 74 45
Width: 402
Flags: W
LayerCount: 2
Fore
SplineSet
266 731 m 1,0,1
 223 713 223 713 205 670 c 1,2,-1
 197 670 l 1,3,4
 179 713 179 713 136 731 c 1,5,-1
 136 739 l 1,6,7
 179 757 179 757 197 800 c 1,8,-1
 205 800 l 1,9,10
 223 757 223 757 266 739 c 1,11,-1
 266 731 l 1,0,1
312 627 m 1,12,-1
 311 614 l 1,13,-1
 300 613 l 2,14,15
 263 609 263 609 249 597 c 128,-1,16
 235 585 235 585 235 554 c 2,17,-1
 235 -136 l 1,18,-1
 167 -230 l 1,19,-1
 167 554 l 2,20,21
 167 583 167 583 153 596 c 128,-1,22
 139 609 139 609 102 613 c 2,23,-1
 91 614 l 1,24,-1
 90 627 l 1,25,-1
 104 626 l 1,26,-1
 182 621 l 1,27,-1
 220 621 l 1,28,-1
 298 626 l 1,29,-1
 312 627 l 1,12,-1
EndSplineSet
EndChar

StartChar: K
Encoding: 75 75 46
Width: 650
Flags: W
LayerCount: 2
Fore
SplineSet
932 -77 m 1,0,1
 926 -92 926 -92 885.5 -104.5 c 128,-1,2
 845 -117 845 -117 788 -117 c 0,3,4
 672 -117 672 -117 555 -25 c 0,5,6
 474 38 474 38 384 155 c 0,7,8
 291 275 291 275 289 277 c 0,9,10
 280 284 280 284 272 288 c 0,11,12
 255 296 255 296 238 296 c 0,13,14
 230 296 230 296 225 295 c 1,15,-1
 225 68 l 2,16,17
 225 39 225 39 239 26 c 128,-1,18
 253 13 253 13 290 9 c 2,19,-1
 301 8 l 1,20,-1
 302 -5 l 1,21,-1
 288 -4 l 1,22,-1
 210 1 l 1,23,-1
 172 1 l 1,24,-1
 94 -4 l 1,25,-1
 80 -5 l 1,26,-1
 81 8 l 1,27,-1
 92 9 l 2,28,29
 129 13 129 13 143 25 c 128,-1,30
 157 37 157 37 157 68 c 2,31,-1
 157 554 l 2,32,33
 157 583 157 583 143 596 c 128,-1,34
 129 609 129 609 92 613 c 2,35,-1
 81 614 l 1,36,-1
 80 627 l 1,37,-1
 94 626 l 1,38,-1
 172 621 l 1,39,-1
 210 621 l 1,40,-1
 288 626 l 1,41,-1
 302 627 l 1,42,-1
 301 614 l 1,43,-1
 290 613 l 2,44,45
 253 609 253 609 239 597 c 128,-1,46
 225 585 225 585 225 554 c 2,47,-1
 225 315 l 1,48,49
 294 315 294 315 395 424 c 0,50,51
 490 527 490 527 490 577 c 0,52,53
 490 594 490 594 471.5 601.5 c 128,-1,54
 453 609 453 609 419 613 c 2,55,-1
 408 614 l 1,56,-1
 407 627 l 1,57,-1
 421 626 l 1,58,-1
 499 621 l 1,59,-1
 537 621 l 1,60,-1
 615 626 l 1,61,-1
 629 627 l 1,62,-1
 628 614 l 1,63,-1
 617 613 l 2,64,65
 573 608 573 608 546 579 c 0,66,67
 535 567 535 567 506 521 c 0,68,69
 460 449 460 449 417 405 c 0,70,71
 379 366 379 366 317 322 c 1,72,73
 338 320 338 320 404 234 c 0,74,75
 494 116 494 116 547 61 c 0,76,77
 648 -43 648 -43 744 -77 c 0,78,79
 788 -93 788 -93 843 -93 c 0,80,81
 899 -93 899 -93 932 -77 c 1,0,1
EndSplineSet
EndChar

StartChar: L
Encoding: 76 76 47
Width: 592
Flags: W
LayerCount: 2
Fore
SplineSet
565 146 m 1,0,1
 532 101 532 101 512 59 c 0,2,3
 498 30 498 30 489 -6 c 1,4,5
 419 -4 419 -4 380 -3 c 0,6,7
 237 1 237 1 210 1 c 2,8,-1
 172 1 l 1,9,-1
 94 -4 l 1,10,-1
 80 -5 l 1,11,-1
 81 8 l 1,12,-1
 92 9 l 2,13,14
 129 13 129 13 143 25 c 128,-1,15
 157 37 157 37 157 68 c 2,16,-1
 157 554 l 2,17,18
 157 583 157 583 143 596 c 128,-1,19
 129 609 129 609 92 613 c 2,20,-1
 81 614 l 1,21,-1
 80 627 l 1,22,-1
 94 626 l 1,23,-1
 172 621 l 1,24,-1
 210 621 l 1,25,-1
 288 626 l 1,26,-1
 302 627 l 1,27,-1
 301 614 l 1,28,-1
 290 613 l 2,29,30
 253 609 253 609 239 597 c 128,-1,31
 225 585 225 585 225 554 c 2,32,-1
 225 94 l 2,33,34
 225 53 225 53 232.5 44.5 c 128,-1,35
 240 36 240 36 276 36 c 2,36,-1
 380 36 l 2,37,38
 436 36 436 36 455.5 46 c 128,-1,39
 475 56 475 56 512 104 c 2,40,-1
 544 146 l 1,41,-1
 565 146 l 1,0,1
EndSplineSet
EndChar

StartChar: M
Encoding: 77 77 48
Width: 957
Flags: W
LayerCount: 2
Fore
SplineSet
880 -5 m 1,0,-1
 866 -4 l 1,1,-1
 788 1 l 1,2,-1
 750 1 l 1,3,-1
 672 -4 l 1,4,-1
 658 -5 l 1,5,-1
 659 8 l 1,6,-1
 670 9 l 2,7,8
 707 13 707 13 721 25 c 128,-1,9
 735 37 735 37 735 68 c 2,10,-1
 735 561 l 1,11,-1
 514 493 l 1,12,-1
 514 68 l 2,13,14
 514 39 514 39 528 26 c 128,-1,15
 542 13 542 13 579 9 c 2,16,-1
 590 8 l 1,17,-1
 591 -5 l 1,18,-1
 577 -4 l 1,19,-1
 499 1 l 1,20,-1
 461 1 l 1,21,-1
 383 -4 l 1,22,-1
 369 -5 l 1,23,-1
 370 8 l 1,24,-1
 381 9 l 2,25,26
 418 13 418 13 432 25 c 128,-1,27
 446 37 446 37 446 68 c 2,28,-1
 446 493 l 1,29,-1
 225 561 l 1,30,-1
 225 68 l 2,31,32
 225 39 225 39 239 26 c 128,-1,33
 253 13 253 13 290 9 c 2,34,-1
 301 8 l 1,35,-1
 302 -5 l 1,36,-1
 288 -4 l 1,37,-1
 210 1 l 1,38,-1
 172 1 l 1,39,-1
 94 -4 l 1,40,-1
 80 -5 l 1,41,-1
 81 8 l 1,42,-1
 92 9 l 2,43,44
 129 13 129 13 143 25 c 128,-1,45
 157 37 157 37 157 68 c 2,46,-1
 157 554 l 2,47,48
 157 583 157 583 143 596 c 128,-1,49
 129 609 129 609 92 613 c 2,50,-1
 81 614 l 1,51,-1
 80 627 l 1,52,-1
 94 626 l 2,53,54
 136 622 136 622 149 620 c 0,55,56
 179 614 179 614 238 596 c 2,57,-1
 480 522 l 1,58,-1
 722 596 l 2,59,60
 773 612 773 612 803.5 617.5 c 128,-1,61
 834 623 834 623 866 626 c 2,62,-1
 880 627 l 1,63,-1
 879 614 l 1,64,-1
 868 613 l 2,65,66
 831 609 831 609 817 597 c 128,-1,67
 803 585 803 585 803 554 c 2,68,-1
 803 68 l 2,69,70
 803 39 803 39 817 26 c 128,-1,71
 831 13 831 13 868 9 c 2,72,-1
 879 8 l 1,73,-1
 880 -5 l 1,0,-1
EndSplineSet
EndChar

StartChar: N
Encoding: 78 78 49
Width: 734
Flags: W
LayerCount: 2
Fore
SplineSet
689 -5 m 1,0,-1
 675 -4 l 1,1,-1
 597 1 l 1,2,-1
 559 1 l 1,3,-1
 481 -4 l 1,4,-1
 467 -5 l 1,5,-1
 468 8 l 1,6,-1
 479 9 l 2,7,8
 516 13 516 13 530 25 c 128,-1,9
 544 37 544 37 544 68 c 2,10,-1
 544 583 l 1,11,-1
 225 583 l 1,12,-1
 225 68 l 2,13,14
 225 39 225 39 239 26 c 128,-1,15
 253 13 253 13 290 9 c 2,16,-1
 301 8 l 1,17,-1
 302 -5 l 1,18,-1
 288 -4 l 1,19,-1
 210 1 l 1,20,-1
 172 1 l 1,21,-1
 94 -4 l 1,22,-1
 80 -5 l 1,23,-1
 81 8 l 1,24,-1
 92 9 l 2,25,26
 129 13 129 13 143 25 c 128,-1,27
 157 37 157 37 157 68 c 2,28,-1
 157 554 l 2,29,30
 157 583 157 583 143 596 c 128,-1,31
 129 609 129 609 92 613 c 2,32,-1
 81 614 l 1,33,-1
 80 627 l 1,34,-1
 94 626 l 1,35,-1
 172 621 l 1,36,-1
 597 621 l 1,37,-1
 675 626 l 1,38,-1
 689 627 l 1,39,-1
 688 614 l 1,40,-1
 677 613 l 2,41,42
 640 609 640 609 626 597 c 128,-1,43
 612 585 612 585 612 554 c 2,44,-1
 612 68 l 2,45,46
 612 39 612 39 626 26 c 128,-1,47
 640 13 640 13 677 9 c 2,48,-1
 688 8 l 1,49,-1
 689 -5 l 1,0,-1
EndSplineSet
EndChar

StartChar: O
Encoding: 79 79 50
Width: 876
Flags: W
LayerCount: 2
Fore
SplineSet
798 321 m 0,0,1
 798 184 798 184 695 84.5 c 128,-1,2
 592 -15 592 -15 439 -15 c 256,3,4
 286 -15 286 -15 185 71 c 0,5,6
 80 160 80 160 80 301 c 0,7,8
 80 438 80 438 181 536 c 0,9,10
 286 637 286 637 439 637 c 256,11,12
 592 637 592 637 695 549.5 c 128,-1,13
 798 462 798 462 798 321 c 0,0,1
729 311 m 0,14,15
 716 437 716 437 630 520 c 0,16,17
 540 607 540 607 408 607 c 0,18,19
 291 607 291 607 219 532 c 128,-1,20
 147 457 147 457 147 345 c 0,21,22
 147 336 147 336 147 328 c 0,23,24
 149 316 149 316 149 311 c 0,25,26
 162 185 162 185 248 102 c 0,27,28
 338 15 338 15 470 15 c 0,29,30
 587 15 587 15 659 90 c 128,-1,31
 731 165 731 165 731 277 c 0,32,33
 731 285 731 285 731 294 c 0,34,35
 729 306 729 306 729 311 c 0,14,15
EndSplineSet
EndChar

StartChar: P
Encoding: 80 80 51
Width: 590
Flags: W
LayerCount: 2
Fore
SplineSet
547 470 m 0,0,1
 547 383 547 383 472 325 c 128,-1,2
 397 267 397 267 294 267 c 1,3,-1
 260 270 l 1,4,-1
 260 279 l 1,5,-1
 285 278 l 2,6,7
 366 278 366 278 423.5 324.5 c 128,-1,8
 481 371 481 371 481 447 c 0,9,10
 481 511 481 511 436 555 c 0,11,12
 386 603 386 603 300 603 c 0,13,14
 251 603 251 603 238 595.5 c 128,-1,15
 225 588 225 588 225 554 c 2,16,-1
 225 68 l 2,17,18
 225 39 225 39 239 26 c 128,-1,19
 253 13 253 13 290 9 c 2,20,-1
 301 8 l 1,21,-1
 302 -5 l 1,22,-1
 288 -4 l 1,23,-1
 210 1 l 1,24,-1
 172 1 l 1,25,-1
 94 -4 l 1,26,-1
 80 -5 l 1,27,-1
 81 8 l 1,28,-1
 92 9 l 2,29,30
 129 13 129 13 143 25 c 128,-1,31
 157 37 157 37 157 68 c 2,32,-1
 157 554 l 2,33,34
 157 583 157 583 143 596 c 128,-1,35
 129 609 129 609 92 613 c 2,36,-1
 81 614 l 1,37,-1
 80 627 l 1,38,-1
 94 626 l 2,39,40
 115 624 115 624 131.5 622.5 c 128,-1,41
 148 621 148 621 172 621 c 0,42,43
 189 621 189 621 252.5 623.5 c 128,-1,44
 316 626 316 626 328 626 c 0,45,46
 429 626 429 626 488 581.5 c 128,-1,47
 547 537 547 537 547 470 c 0,0,1
EndSplineSet
EndChar

StartChar: Q
Encoding: 81 81 52
Width: 876
Flags: W
LayerCount: 2
Fore
SplineSet
1322 -194 m 1,0,1
 1319 -218 1319 -218 1267 -247 c 0,2,3
 1203 -282 1203 -282 1126 -282 c 0,4,5
 998 -282 998 -282 825 -221 c 0,6,7
 702 -178 702 -178 558 -102 c 0,8,9
 457 -49 457 -49 430 -28 c 1,10,-1
 399 -13 l 1,11,12
 261 -1 261 -1 172 83 c 0,13,14
 80 170 80 170 80 301 c 0,15,16
 80 438 80 438 181 536 c 0,17,18
 286 637 286 637 439 637 c 256,19,20
 592 637 592 637 695 549.5 c 128,-1,21
 798 462 798 462 798 321 c 0,22,23
 798 207 798 207 726.5 117.5 c 128,-1,24
 655 28 655 28 539 -2 c 1,25,26
 632 -54 632 -54 726 -107 c 0,27,28
 841 -169 841 -169 931 -202 c 0,29,30
 1047 -244 1047 -244 1143 -244 c 0,31,32
 1202 -244 1202 -244 1244 -231 c 128,-1,33
 1286 -218 1286 -218 1322 -194 c 1,0,1
729 311 m 0,34,35
 716 437 716 437 630 520 c 0,36,37
 540 607 540 607 408 607 c 0,38,39
 291 607 291 607 219 532 c 128,-1,40
 147 457 147 457 147 345 c 0,41,42
 147 336 147 336 147 328 c 0,43,44
 149 316 149 316 149 311 c 0,45,46
 162 185 162 185 248 102 c 0,47,48
 338 15 338 15 470 15 c 0,49,50
 587 15 587 15 659 90 c 128,-1,51
 731 165 731 165 731 277 c 0,52,53
 731 285 731 285 731 294 c 0,54,55
 729 306 729 306 729 311 c 0,34,35
EndSplineSet
EndChar

StartChar: R
Encoding: 82 82 53
Width: 698
Flags: W
LayerCount: 2
Fore
SplineSet
1081 -89 m 1,0,1
 1075 -104 1075 -104 1025 -125.5 c 128,-1,2
 975 -147 975 -147 924 -147 c 0,3,4
 808 -147 808 -147 674 -50 c 0,5,6
 597 6 597 6 463 141 c 0,7,8
 350 255 350 255 313 271 c 1,9,-1
 225 271 l 1,10,-1
 225 68 l 2,11,12
 225 39 225 39 239 26 c 128,-1,13
 253 13 253 13 290 9 c 2,14,-1
 301 8 l 1,15,-1
 302 -5 l 1,16,-1
 288 -4 l 1,17,-1
 210 1 l 1,18,-1
 172 1 l 1,19,-1
 94 -4 l 1,20,-1
 80 -5 l 1,21,-1
 81 8 l 1,22,-1
 92 9 l 2,23,24
 129 13 129 13 143 25 c 128,-1,25
 157 37 157 37 157 68 c 2,26,-1
 157 554 l 2,27,28
 157 583 157 583 143 596 c 128,-1,29
 129 609 129 609 92 613 c 2,30,-1
 81 614 l 1,31,-1
 80 627 l 1,32,-1
 94 626 l 2,33,34
 115 624 115 624 131.5 622.5 c 128,-1,35
 148 621 148 621 172 621 c 0,36,37
 189 621 189 621 252.5 623.5 c 128,-1,38
 316 626 316 626 328 626 c 0,39,40
 429 626 429 626 488 581.5 c 128,-1,41
 547 537 547 537 547 470 c 0,42,43
 547 406 547 406 506.5 357.5 c 128,-1,44
 466 309 466 309 399 285 c 1,45,46
 423 269 423 269 512 178 c 0,47,48
 612 76 612 76 679 20 c 0,49,50
 787 -70 787 -70 877 -102 c 0,51,52
 915 -115 915 -115 958 -115 c 0,53,54
 991 -115 991 -115 1022.5 -108 c 128,-1,55
 1054 -101 1054 -101 1081 -89 c 1,0,1
481 447 m 0,56,57
 481 511 481 511 436 555 c 0,58,59
 386 603 386 603 300 603 c 0,60,61
 251 603 251 603 238 595.5 c 128,-1,62
 225 588 225 588 225 554 c 2,63,-1
 225 295 l 1,64,-1
 370 295 l 1,65,66
 420 316 420 316 450.5 355 c 128,-1,67
 481 394 481 394 481 447 c 0,56,57
EndSplineSet
EndChar

StartChar: S
Encoding: 83 83 54
Width: 530
Flags: W
LayerCount: 2
Fore
SplineSet
462 156 m 0,0,1
 462 89 462 89 400 37 c 128,-1,2
 338 -15 338 -15 245 -15 c 0,3,4
 196 -15 196 -15 148 0 c 0,5,6
 104 17 104 17 93 21 c 1,7,-1
 73 149 l 1,8,-1
 87 149 l 1,9,10
 103 76 103 76 140.5 43 c 128,-1,11
 178 10 178 10 245 10 c 0,12,13
 308 10 308 10 349 42 c 128,-1,14
 390 74 390 74 390 128 c 0,15,16
 390 184 390 184 350 227 c 0,17,18
 316 263 316 263 224 315 c 0,19,20
 159 352 159 352 125 387 c 0,21,22
 82 432 82 432 82 482 c 0,23,24
 82 554 82 554 130.5 595.5 c 128,-1,25
 179 637 179 637 260 637 c 0,26,27
 298 637 298 637 340 623 c 128,-1,28
 382 609 382 609 411 609 c 1,29,-1
 426 514 l 1,30,-1
 418 514 l 1,31,32
 394 574 394 574 345 597 c 0,33,34
 310 613 310 613 255 613 c 0,35,36
 207 613 207 613 176 584 c 128,-1,37
 145 555 145 555 145 510 c 0,38,39
 145 476 145 476 167.5 447.5 c 128,-1,40
 190 419 190 419 271 372 c 0,41,42
 366 318 366 318 404 282 c 0,43,44
 462 226 462 226 462 156 c 0,0,1
EndSplineSet
EndChar

StartChar: T
Encoding: 84 84 55
Width: 640
Flags: W
LayerCount: 2
Fore
SplineSet
286 621 m 5,0,-1
 128 621 l 6,1,2
 101 621 101 621 91.5 625 c 132,-1,3
 82 629 82 629 82 640 c 4,4,5
 82 646 82 646 85 657 c 5,6,-1
 70 657 l 5,7,-1
 20 518 l 5,8,-1
 32 518 l 5,9,10
 52 561 52 561 68.5 572 c 132,-1,11
 85 583 85 583 115 583 c 6,12,-1
 286 583 l 5,13,-1
 286 68 l 2,14,15
 286 37 286 37 272 25 c 0,16,17
 257 12 257 12 221 9 c 2,18,-1
 210 8 l 1,19,-1
 209 -5 l 1,20,-1
 223 -4 l 1,21,-1
 301 1 l 1,22,-1
 339 1 l 1,23,-1
 417 -4 l 1,24,-1
 431 -5 l 1,25,-1
 430 8 l 1,26,-1
 419 9 l 2,27,28
 382.676258993 12.3021582734 382.676258993 12.3021582734 368 26 c 0,29,30
 354 39 354 39 354 68 c 2,31,-1
 354 583 l 5,32,-1
 512 583 l 6,33,34
 539 583 539 583 548.5 579 c 132,-1,35
 558 575 558 575 558 564 c 4,36,37
 558 558 558 558 555 547 c 5,38,-1
 570 547 l 5,39,-1
 620 686 l 5,40,-1
 608 686 l 5,41,42
 588 643 588 643 571.4982471 631.837856788 c 4,43,44
 555 621 555 621 525 621 c 6,45,-1
 286 621 l 5,0,-1
EndSplineSet
EndChar

StartChar: U
Encoding: 85 85 56
Width: 746
Flags: W
LayerCount: 2
Fore
SplineSet
696 628 m 1,0,-1
 695 615 l 1,1,-1
 684 614 l 2,2,3
 647 610 647 610 633 598 c 128,-1,4
 619 586 619 586 619 555 c 2,5,-1
 619 538 l 2,6,7
 619 344 619 344 564 206 c 0,8,9
 502 50 502 50 373 -27 c 1,10,11
 245 49 245 49 183 205 c 0,12,13
 127 345 127 345 127 538 c 2,14,-1
 127 555 l 2,15,16
 127 584 127 584 113 597 c 128,-1,17
 99 610 99 610 62 614 c 2,18,-1
 51 615 l 1,19,-1
 50 628 l 1,20,-1
 64 627 l 1,21,-1
 142 622 l 1,22,-1
 180 622 l 1,23,-1
 258 627 l 1,24,-1
 272 628 l 1,25,-1
 271 615 l 1,26,-1
 260 614 l 2,27,28
 223 610 223 610 209 598 c 128,-1,29
 195 586 195 586 195 555 c 2,30,-1
 195 541 l 2,31,32
 195 314 195 314 248 170 c 0,33,34
 294 44 294 44 373 -1 c 1,35,36
 452 44 452 44 498 170 c 0,37,38
 551 314 551 314 551 541 c 2,39,-1
 551 555 l 2,40,41
 551 584 551 584 537 597 c 128,-1,42
 523 610 523 610 486 614 c 2,43,-1
 475 615 l 1,44,-1
 474 628 l 1,45,-1
 488 627 l 1,46,-1
 566 622 l 1,47,-1
 604 622 l 1,48,-1
 682 627 l 1,49,-1
 696 628 l 1,0,-1
EndSplineSet
EndChar

StartChar: V
Encoding: 86 86 57
Width: 705
Flags: W
LayerCount: 2
Fore
SplineSet
685 627 m 1,0,-1
 684 614 l 1,1,-1
 673 613 l 2,2,3
 633 609 633 609 616 595.5 c 128,-1,4
 599 582 599 582 579 530 c 2,5,-1
 371 -11 l 1,6,-1
 361 -11 l 1,7,-1
 121 554 l 2,8,9
 106 588 106 588 89 598.5 c 128,-1,10
 72 609 72 609 32 613 c 2,11,-1
 21 614 l 1,12,-1
 20 627 l 1,13,-1
 34 626 l 1,14,-1
 130 621 l 1,15,-1
 168 621 l 1,16,-1
 264 626 l 1,17,-1
 278 627 l 1,18,-1
 277 614 l 1,19,-1
 266 613 l 2,20,21
 235 610 235 610 213.5 600.5 c 128,-1,22
 192 591 192 591 192 570 c 0,23,24
 192 561 192 561 196 552 c 2,25,-1
 380 119 l 1,26,-1
 542 542 l 2,27,28
 547 557 547 557 547 565 c 0,29,30
 547 587 547 587 527.5 598.5 c 128,-1,31
 508 610 508 610 475 613 c 2,32,-1
 464 614 l 1,33,-1
 463 627 l 1,34,-1
 477 626 l 2,35,36
 499 624 499 624 517 622.5 c 128,-1,37
 535 621 535 621 555 621 c 2,38,-1
 593 621 l 1,39,-1
 671 626 l 1,40,-1
 685 627 l 1,0,-1
EndSplineSet
EndChar

StartChar: W
Encoding: 87 87 58
Width: 1070
Flags: W
LayerCount: 2
Fore
SplineSet
1020 628 m 1,0,-1
 1019 615 l 1,1,-1
 1008 614 l 2,2,3
 971 610 971 610 957 598 c 128,-1,4
 943 586 943 586 943 555 c 2,5,-1
 943 538 l 2,6,7
 943 335 943 335 900 206 c 0,8,9
 847 47 847 47 722 -27 c 1,10,11
 651 15 651 15 603 89 c 0,12,13
 560 154 560 154 535 245 c 1,14,15
 510 156 510 156 467 90 c 0,16,17
 418 15 418 15 348 -27 c 1,18,19
 223 47 223 47 170 205 c 0,20,21
 127 333 127 333 127 538 c 2,22,-1
 127 555 l 2,23,24
 127 584 127 584 113 597 c 128,-1,25
 99 610 99 610 62 614 c 2,26,-1
 51 615 l 1,27,-1
 50 628 l 1,28,-1
 64 627 l 1,29,-1
 142 622 l 1,30,-1
 180 622 l 1,31,-1
 258 627 l 1,32,-1
 272 628 l 1,33,-1
 271 615 l 1,34,-1
 260 614 l 2,35,36
 223 610 223 610 209 598 c 128,-1,37
 195 586 195 586 195 555 c 2,38,-1
 195 541 l 2,39,40
 195 305 195 305 234 173.5 c 128,-1,41
 273 42 273 42 348 -1 c 1,42,43
 422 41 422 41 461.5 174.5 c 128,-1,44
 501 308 501 308 501 541 c 2,45,-1
 501 555 l 2,46,47
 501 584 501 584 487 597 c 128,-1,48
 473 610 473 610 436 614 c 2,49,-1
 425 615 l 1,50,-1
 424 628 l 1,51,-1
 438 627 l 1,52,-1
 516 622 l 1,53,-1
 554 622 l 1,54,-1
 632 627 l 1,55,-1
 646 628 l 1,56,-1
 645 615 l 1,57,-1
 634 614 l 2,58,59
 597 610 597 610 583 598 c 128,-1,60
 569 586 569 586 569 555 c 2,61,-1
 569 541 l 2,62,63
 569 305 569 305 608 173.5 c 128,-1,64
 647 42 647 42 722 -1 c 1,65,66
 796 41 796 41 835.5 174.5 c 128,-1,67
 875 308 875 308 875 541 c 2,68,-1
 875 555 l 2,69,70
 875 584 875 584 861 597 c 128,-1,71
 847 610 847 610 810 614 c 2,72,-1
 799 615 l 1,73,-1
 798 628 l 1,74,-1
 812 627 l 1,75,-1
 890 622 l 1,76,-1
 928 622 l 1,77,-1
 1006 627 l 1,78,-1
 1020 628 l 1,0,-1
EndSplineSet
EndChar

StartChar: X
Encoding: 88 88 59
Width: 725
Flags: W
LayerCount: 2
Fore
SplineSet
691 -5 m 1,0,-1
 677 -4 l 1,1,-1
 599 1 l 1,2,-1
 540 1 l 1,3,-1
 462 -4 l 1,4,-1
 448 -5 l 1,5,-1
 449 8 l 1,6,-1
 460 9 l 2,7,8
 513 15 513 15 513 45 c 0,9,10
 513 56 513 56 504 68 c 2,11,-1
 352 274 l 1,12,-1
 190 68 l 2,13,14
 179 54 179 54 179 41 c 0,15,16
 179 13 179 13 225 9 c 2,17,-1
 236 8 l 1,18,-1
 237 -5 l 1,19,-1
 223 -4 l 1,20,-1
 145 1 l 1,21,-1
 124 1 l 1,22,-1
 46 -4 l 1,23,-1
 32 -5 l 1,24,-1
 33 8 l 1,25,-1
 44 9 l 2,26,27
 77 12 77 12 103 31 c 0,28,29
 119 43 119 43 139 68 c 2,30,-1
 327 307 l 1,31,-1
 145 554 l 2,32,33
 124 582 124 582 99 596.5 c 128,-1,34
 74 611 74 611 50 613 c 2,35,-1
 39 614 l 1,36,-1
 38 627 l 1,37,-1
 52 626 l 1,38,-1
 130 621 l 1,39,-1
 189 621 l 1,40,-1
 267 626 l 1,41,-1
 281 627 l 1,42,-1
 280 614 l 1,43,-1
 269 613 l 2,44,45
 246 611 246 611 235 602 c 128,-1,46
 224 593 224 593 224 580 c 256,47,48
 224 567 224 567 234 554 c 2,49,-1
 373 365 l 1,50,-1
 521 554 l 2,51,52
 530 565 530 565 530 579 c 0,53,54
 530 592 530 592 519.5 601.5 c 128,-1,55
 509 611 509 611 486 613 c 2,56,-1
 475 614 l 1,57,-1
 474 627 l 1,58,-1
 488 626 l 1,59,-1
 566 621 l 1,60,-1
 587 621 l 1,61,-1
 665 626 l 1,62,-1
 679 627 l 1,63,-1
 678 614 l 1,64,-1
 667 613 l 2,65,66
 635 610 635 610 610 592 c 0,67,68
 591 579 591 579 572 554 c 2,69,-1
 398 332 l 1,70,-1
 593 68 l 2,71,72
 612 42 612 42 624 32 c 0,73,74
 647 12 647 12 679 9 c 2,75,-1
 690 8 l 1,76,-1
 691 -5 l 1,0,-1
EndSplineSet
EndChar

StartChar: Y
Encoding: 89 89 60
Width: 677
Flags: W
LayerCount: 2
Fore
SplineSet
667 627 m 1,0,-1
 666 614 l 1,1,-1
 655 613 l 2,2,3
 618 609 618 609 594.5 590.5 c 128,-1,4
 571 572 571 572 539 521 c 2,5,-1
 377 263 l 1,6,-1
 377 68 l 2,7,8
 377 39 377 39 391 26 c 128,-1,9
 405 13 405 13 442 9 c 2,10,-1
 453 8 l 1,11,-1
 454 -5 l 1,12,-1
 440 -4 l 1,13,-1
 362 1 l 1,14,-1
 324 1 l 1,15,-1
 246 -4 l 1,16,-1
 232 -5 l 1,17,-1
 233 8 l 1,18,-1
 244 9 l 2,19,20
 281 13 281 13 295 25 c 128,-1,21
 309 37 309 37 309 68 c 2,22,-1
 309 244 l 1,23,-1
 127 534 l 2,24,25
 96 583 96 583 78 596 c 128,-1,26
 60 609 60 609 22 613 c 2,27,-1
 11 614 l 1,28,-1
 10 627 l 1,29,-1
 24 626 l 1,30,-1
 112 621 l 1,31,-1
 150 621 l 1,32,-1
 238 626 l 1,33,-1
 252 627 l 1,34,-1
 251 614 l 1,35,-1
 240 613 l 2,36,37
 209 611 209 611 194 606.5 c 128,-1,38
 179 602 179 602 179 587 c 0,39,40
 179 579 179 579 186 568 c 2,41,-1
 355 298 l 1,42,-1
 512 550 l 2,43,44
 522 567 522 567 522 579 c 0,45,46
 522 595 522 595 504 602 c 128,-1,47
 486 609 486 609 457 613 c 2,48,-1
 446 614 l 1,49,-1
 445 627 l 1,50,-1
 459 626 l 1,51,-1
 537 621 l 1,52,-1
 575 621 l 1,53,-1
 653 626 l 1,54,-1
 667 627 l 1,0,-1
EndSplineSet
EndChar

StartChar: Z
Encoding: 90 90 61
Width: 650
Flags: W
LayerCount: 2
Fore
SplineSet
592 103 m 1,0,-1
 542 -37 l 1,1,-1
 527 -36 l 1,2,3
 530 -25 530 -25 530 -19 c 0,4,5
 530 -8 530 -8 520.5 -4 c 128,-1,6
 511 0 511 0 484 0 c 2,7,-1
 63 0 l 1,8,-1
 63 21 l 1,9,-1
 285 325 l 1,10,-1
 102 325 l 1,11,-1
 132 357 l 1,12,-1
 308 357 l 1,13,-1
 472 583 l 1,14,-1
 194 583 l 2,15,16
 164 583 164 583 147.5 572 c 128,-1,17
 131 561 131 561 111 518 c 1,18,-1
 99 518 l 1,19,-1
 149 658 l 1,20,-1
 164 657 l 1,21,22
 161 646 161 646 161 640 c 0,23,24
 161 629 161 629 170.5 625 c 128,-1,25
 180 621 180 621 207 621 c 2,26,-1
 560 621 l 1,27,-1
 560 602 l 1,28,-1
 381 357 l 1,29,-1
 569 357 l 1,30,-1
 539 325 l 1,31,-1
 358 325 l 1,32,-1
 150 38 l 1,33,-1
 497 38 l 2,34,35
 527 38 527 38 543.5 49 c 128,-1,36
 560 60 560 60 580 103 c 1,37,-1
 592 103 l 1,0,-1
EndSplineSet
EndChar

StartChar: bracketleft
Encoding: 91 91 62
Width: 402
Flags: W
LayerCount: 2
Fore
SplineSet
335 -108 m 1,0,-1
 140 -108 l 1,1,-1
 140 756 l 1,2,-1
 335 756 l 1,3,-1
 335 736 l 1,4,-1
 208 736 l 1,5,-1
 208 -88 l 1,6,-1
 335 -88 l 1,7,-1
 335 -108 l 1,0,-1
EndSplineSet
EndChar

StartChar: backslash
Encoding: 92 92 63
Width: 458
Flags: W
LayerCount: 2
Fore
SplineSet
422 -15 m 1,0,-1
 359 -15 l 1,1,-1
 36 637 l 1,2,-1
 99 637 l 1,3,-1
 422 -15 l 1,0,-1
EndSplineSet
EndChar

StartChar: bracketright
Encoding: 93 93 64
Width: 402
Flags: W
LayerCount: 2
Fore
SplineSet
262 -108 m 1,0,-1
 67 -108 l 1,1,-1
 67 -88 l 1,2,-1
 194 -88 l 1,3,-1
 194 736 l 1,4,-1
 67 736 l 1,5,-1
 67 756 l 1,6,-1
 262 756 l 1,7,-1
 262 -108 l 1,0,-1
EndSplineSet
EndChar

StartChar: asciicircum
Encoding: 94 94 65
Width: 469
Flags: W
LayerCount: 2
Fore
SplineSet
451 322 m 1,0,-1
 406 322 l 1,1,-1
 235 608 l 1,2,-1
 64 322 l 1,3,-1
 18 322 l 1,4,-1
 228 672 l 1,5,-1
 243 672 l 1,6,-1
 451 322 l 1,0,-1
EndSplineSet
EndChar

StartChar: underscore
Encoding: 95 95 66
Width: 500
Flags: W
LayerCount: 2
Fore
SplineSet
508 -216 m 1,0,-1
 -8 -216 l 1,1,-1
 -8 -175 l 1,2,-1
 508 -175 l 1,3,-1
 508 -216 l 1,0,-1
EndSplineSet
EndChar

StartChar: grave
Encoding: 96 96 67
Width: 333
Flags: W
LayerCount: 2
Fore
SplineSet
218 457 m 1,0,-1
 201 457 l 1,1,-1
 58 626 l 1,2,-1
 167 626 l 1,3,-1
 218 457 l 1,0,-1
EndSplineSet
EndChar

StartChar: a
Encoding: 97 97 68
Width: 575
Flags: W
LayerCount: 2
Fore
SplineSet
540 -5 m 1,0,-1
 526 -4 l 2,1,2
 496 -1 496 -1 486 0 c 128,-1,3
 476 1 476 1 458 1 c 2,4,-1
 422 1 l 2,5,6
 406 1 406 1 388.5 -1 c 128,-1,7
 371 -3 371 -3 354 -4 c 2,8,-1
 340 -5 l 1,9,-1
 341 9 l 1,10,-1
 352 10 l 2,11,12
 387 14 387 14 397 25.5 c 128,-1,13
 407 37 407 37 407 69 c 2,14,-1
 407 75 l 1,15,-1
 405 132 l 1,16,-1
 170 132 l 1,17,-1
 168 73 l 1,18,-1
 168 69 l 2,19,20
 168 38 168 38 178 26 c 128,-1,21
 188 14 188 14 223 10 c 2,22,-1
 234 9 l 1,23,-1
 235 -5 l 1,24,-1
 221 -4 l 2,25,26
 191 -1 191 -1 181 0 c 128,-1,27
 171 1 171 1 153 1 c 2,28,-1
 117 1 l 2,29,30
 101 1 101 1 83.5 -1 c 128,-1,31
 66 -3 66 -3 49 -4 c 2,32,-1
 35 -5 l 1,33,-1
 36 9 l 1,34,-1
 47 10 l 2,35,36
 82 14 82 14 92 25.5 c 128,-1,37
 102 37 102 37 102 69 c 2,38,-1
 102 73 l 2,39,40
 102 202 102 202 148.5 304.5 c 128,-1,41
 195 407 195 407 287 461 c 1,42,43
 380 407 380 407 428 302 c 0,44,45
 473 204 473 204 473 75 c 2,46,-1
 473 69 l 2,47,48
 473 38 473 38 483 26 c 128,-1,49
 493 14 493 14 528 10 c 2,50,-1
 539 9 l 1,51,-1
 540 -5 l 1,0,-1
402 165 m 1,52,53
 393 276 393 276 362.5 343.5 c 128,-1,54
 332 411 332 411 287 436 c 1,55,56
 242 412 242 412 212 345.5 c 128,-1,57
 182 279 182 279 172 165 c 1,58,-1
 402 165 l 1,52,53
EndSplineSet
EndChar

StartChar: b
Encoding: 98 98 69
Width: 530
Flags: W
LayerCount: 2
Fore
SplineSet
469 135 m 0,0,1
 469 78 469 78 429 42 c 0,2,3
 382 -1 382 -1 290 -1 c 2,4,-1
 147 1 l 2,5,6
 131 1 131 1 113.5 -1 c 128,-1,7
 96 -3 96 -3 79 -4 c 2,8,-1
 65 -5 l 1,9,-1
 66 9 l 1,10,-1
 77 10 l 2,11,12
 112 14 112 14 122 25.5 c 128,-1,13
 132 37 132 37 132 69 c 2,14,-1
 132 373 l 2,15,16
 132 404 132 404 122 416 c 128,-1,17
 112 428 112 428 77 432 c 2,18,-1
 66 433 l 1,19,-1
 65 446 l 1,20,-1
 288 446 l 2,21,22
 353 446 353 446 394.5 418.5 c 128,-1,23
 436 391 436 391 436 345 c 0,24,25
 436 317 436 317 418 292 c 128,-1,26
 400 267 400 267 369 254 c 1,27,28
 469 217 469 217 469 135 c 0,0,1
377 338 m 0,29,30
 377 382 377 382 346.5 404 c 128,-1,31
 316 426 316 426 246 426 c 1,32,-1
 195 423 l 1,33,-1
 195 266 l 1,34,-1
 287 266 l 2,35,36
 333 266 333 266 355 287.5 c 128,-1,37
 377 309 377 309 377 338 c 0,29,30
402 134 m 0,38,39
 402 182 402 182 371 213 c 128,-1,40
 340 244 340 244 282 244 c 2,41,-1
 195 244 l 1,42,-1
 195 105 l 2,43,44
 195 48 195 48 209.5 35.5 c 128,-1,45
 224 23 224 23 283 23 c 0,46,47
 335 23 335 23 368.5 55.5 c 128,-1,48
 402 88 402 88 402 134 c 0,38,39
EndSplineSet
EndChar

StartChar: c
Encoding: 99 99 70
Width: 550
Flags: W
LayerCount: 2
Fore
SplineSet
494 124 m 1,0,-1
 482 27 l 1,1,2
 460 12 460 12 413 -1.5 c 128,-1,3
 366 -15 366 -15 327 -15 c 0,4,5
 216 -15 216 -15 142 47 c 0,6,7
 65 112 65 112 65 214 c 0,8,9
 65 313 65 313 140 385 c 128,-1,10
 215 457 215 457 327 457 c 0,11,12
 365 457 365 457 397 447 c 128,-1,13
 429 437 429 437 462 426 c 0,14,15
 470 426 470 426 477 430 c 1,16,-1
 484 332 l 1,17,-1
 470 333 l 1,18,19
 454 387 454 387 416.5 408.5 c 128,-1,20
 379 430 379 430 318 430 c 0,21,22
 237 430 237 430 185 366 c 128,-1,23
 133 302 133 302 133 214 c 0,24,25
 133 124 133 124 192.5 68 c 128,-1,26
 252 12 252 12 336 12 c 0,27,28
 400 12 400 12 431 33 c 0,29,30
 469 59 469 59 476 124 c 1,31,-1
 494 124 l 1,0,-1
EndSplineSet
EndChar

StartChar: d
Encoding: 100 100 71
Width: 628
Flags: W
LayerCount: 2
Fore
SplineSet
563 229 m 0,0,1
 563 135 563 135 488 67 c 128,-1,2
 413 -1 413 -1 301 -1 c 2,3,-1
 147 1 l 2,4,5
 131 1 131 1 113.5 -1 c 128,-1,6
 96 -3 96 -3 79 -4 c 2,7,-1
 65 -5 l 1,8,-1
 66 9 l 1,9,-1
 77 10 l 2,10,11
 112 14 112 14 122 25.5 c 128,-1,12
 132 37 132 37 132 69 c 2,13,-1
 132 373 l 2,14,15
 132 404 132 404 122 416 c 128,-1,16
 112 428 112 428 77 432 c 2,17,-1
 66 433 l 1,18,-1
 65 447 l 1,19,-1
 79 446 l 2,20,21
 101 444 101 444 123.5 442.5 c 128,-1,22
 146 441 146 441 184 441 c 2,23,-1
 301 444 l 2,24,25
 412 444 412 444 487.5 384 c 128,-1,26
 563 324 563 324 563 229 c 0,0,1
493 227 m 0,27,28
 493 312 493 312 436.5 365.5 c 128,-1,29
 380 419 380 419 299 419 c 2,30,-1
 195 416 l 1,31,-1
 195 81 l 2,32,33
 195 46 195 46 215.5 34 c 128,-1,34
 236 22 236 22 299 22 c 0,35,36
 382 22 382 22 437.5 82.5 c 128,-1,37
 493 143 493 143 493 227 c 0,27,28
EndSplineSet
EndChar

StartChar: e
Encoding: 101 101 72
Width: 460
Flags: W
LayerCount: 2
Fore
SplineSet
418 90 m 1,0,1
 399 59 399 59 391 36 c 0,2,3
 387 25 387 25 380 -2 c 1,4,-1
 266 1 l 1,5,-1
 147 1 l 2,6,7
 131 1 131 1 113.5 -1 c 128,-1,8
 96 -3 96 -3 79 -4 c 2,9,-1
 65 -5 l 1,10,-1
 66 9 l 1,11,-1
 77 10 l 2,12,13
 112 14 112 14 122 25.5 c 128,-1,14
 132 37 132 37 132 69 c 2,15,-1
 132 373 l 2,16,17
 132 404 132 404 122 416 c 128,-1,18
 112 428 112 428 77 432 c 2,19,-1
 66 433 l 1,20,-1
 65 447 l 1,21,-1
 79 446 l 2,22,23
 109 443 109 443 119 442 c 128,-1,24
 129 441 129 441 147 441 c 2,25,-1
 379 441 l 1,26,-1
 396 359 l 1,27,-1
 380 360 l 1,28,29
 371 394 371 394 361.5 402 c 128,-1,30
 352 410 352 410 320 410 c 2,31,-1
 195 412 l 1,32,-1
 195 258 l 1,33,-1
 358 258 l 1,34,-1
 358 230 l 1,35,-1
 195 230 l 1,36,-1
 195 69 l 2,37,38
 195 43 195 43 200 37 c 128,-1,39
 205 31 205 31 229 31 c 2,40,-1
 306 31 l 2,41,42
 344 31 344 31 359 41 c 128,-1,43
 374 51 374 51 396 88 c 1,44,-1
 418 90 l 1,0,1
EndSplineSet
EndChar

StartChar: f
Encoding: 102 102 73
Width: 420
Flags: W
LayerCount: 2
Fore
SplineSet
396 359 m 1,0,-1
 380 360 l 1,1,2
 371 394 371 394 361.5 402 c 128,-1,3
 352 410 352 410 320 410 c 2,4,-1
 195 412 l 1,5,-1
 195 258 l 1,6,-1
 358 258 l 1,7,-1
 358 230 l 1,8,-1
 195 230 l 1,9,-1
 195 69 l 2,10,11
 195 38 195 38 205 26 c 128,-1,12
 215 14 215 14 250 10 c 2,13,-1
 261 9 l 1,14,-1
 262 -5 l 1,15,-1
 248 -4 l 2,16,17
 218 -1 218 -1 208 0 c 128,-1,18
 198 1 198 1 180 1 c 2,19,-1
 147 1 l 2,20,21
 131 1 131 1 113.5 -1 c 128,-1,22
 96 -3 96 -3 79 -4 c 2,23,-1
 65 -5 l 1,24,-1
 66 9 l 1,25,-1
 77 10 l 2,26,27
 112 14 112 14 122 25.5 c 128,-1,28
 132 37 132 37 132 69 c 2,29,-1
 132 373 l 2,30,31
 132 404 132 404 122 416 c 128,-1,32
 112 428 112 428 77 432 c 2,33,-1
 66 433 l 1,34,-1
 65 447 l 1,35,-1
 79 446 l 2,36,37
 109 443 109 443 119 442 c 128,-1,38
 129 441 129 441 147 441 c 2,39,-1
 379 441 l 1,40,-1
 396 359 l 1,0,-1
EndSplineSet
EndChar

StartChar: g
Encoding: 103 103 74
Width: 577
Flags: W
LayerCount: 2
Fore
SplineSet
553 199 m 1,0,-1
 552 184 l 1,1,-1
 545 184 l 1,2,3
 510 180 510 180 500 168.5 c 128,-1,4
 490 157 490 157 490 125 c 2,5,-1
 490 30 l 1,6,7
 467 15 467 15 416 0 c 128,-1,8
 365 -15 365 -15 327 -15 c 0,9,10
 216 -15 216 -15 142 47 c 0,11,12
 65 112 65 112 65 214 c 0,13,14
 65 313 65 313 140 385 c 128,-1,15
 215 457 215 457 327 457 c 0,16,17
 372 457 372 457 415.5 441.5 c 128,-1,18
 459 426 459 426 465 426 c 0,19,20
 473 426 473 426 480 430 c 1,21,-1
 497 330 l 1,22,-1
 481 330 l 1,23,24
 462 383 462 383 420.5 406.5 c 128,-1,25
 379 430 379 430 318 430 c 0,26,27
 237 430 237 430 185 366 c 128,-1,28
 133 302 133 302 133 214 c 0,29,30
 133 124 133 124 192.5 68 c 128,-1,31
 252 12 252 12 336 12 c 0,32,33
 392 12 392 12 427 33 c 1,34,-1
 427 125 l 2,35,36
 427 156 427 156 417 168 c 128,-1,37
 407 180 407 180 372 184 c 2,38,-1
 361 185 l 1,39,-1
 360 199 l 1,40,-1
 374 198 l 2,41,42
 404 195 404 195 414 194 c 128,-1,43
 424 193 424 193 442 193 c 2,44,-1
 475 193 l 2,45,46
 491 193 491 193 508.5 195 c 128,-1,47
 526 197 526 197 543 198 c 2,48,-1
 553 199 l 1,0,-1
EndSplineSet
EndChar

StartChar: h
Encoding: 104 104 75
Width: 631
Flags: W
LayerCount: 2
Fore
SplineSet
566 -5 m 1,0,-1
 552 -4 l 2,1,2
 522 -1 522 -1 512 0 c 128,-1,3
 502 1 502 1 484 1 c 2,4,-1
 451 1 l 2,5,6
 435 1 435 1 417.5 -1 c 128,-1,7
 400 -3 400 -3 383 -4 c 2,8,-1
 369 -5 l 1,9,-1
 370 9 l 1,10,-1
 381 10 l 2,11,12
 416 14 416 14 426 25.5 c 128,-1,13
 436 37 436 37 436 69 c 2,14,-1
 436 197 l 1,15,-1
 195 197 l 1,16,-1
 195 69 l 2,17,18
 195 38 195 38 205 26 c 128,-1,19
 215 14 215 14 250 10 c 2,20,-1
 261 9 l 1,21,-1
 262 -5 l 1,22,-1
 248 -4 l 2,23,24
 218 -1 218 -1 208 0 c 128,-1,25
 198 1 198 1 180 1 c 2,26,-1
 147 1 l 2,27,28
 131 1 131 1 113.5 -1 c 128,-1,29
 96 -3 96 -3 79 -4 c 2,30,-1
 65 -5 l 1,31,-1
 66 9 l 1,32,-1
 77 10 l 2,33,34
 112 14 112 14 122 25.5 c 128,-1,35
 132 37 132 37 132 69 c 2,36,-1
 132 373 l 2,37,38
 132 404 132 404 122 416 c 128,-1,39
 112 428 112 428 77 432 c 2,40,-1
 66 433 l 1,41,-1
 65 447 l 1,42,-1
 79 446 l 2,43,44
 109 443 109 443 119 442 c 128,-1,45
 129 441 129 441 147 441 c 2,46,-1
 180 441 l 2,47,48
 196 441 196 441 213.5 443 c 128,-1,49
 231 445 231 445 248 446 c 2,50,-1
 262 447 l 1,51,-1
 261 433 l 1,52,-1
 250 432 l 2,53,54
 215 428 215 428 205 416.5 c 128,-1,55
 195 405 195 405 195 373 c 2,56,-1
 195 287 l 1,57,-1
 436 287 l 1,58,-1
 436 373 l 2,59,60
 436 404 436 404 426 416 c 128,-1,61
 416 428 416 428 381 432 c 2,62,-1
 370 433 l 1,63,-1
 369 447 l 1,64,-1
 383 446 l 2,65,66
 413 443 413 443 423 442 c 128,-1,67
 433 441 433 441 451 441 c 2,68,-1
 484 441 l 2,69,70
 500 441 500 441 517.5 443 c 128,-1,71
 535 445 535 445 552 446 c 2,72,-1
 566 447 l 1,73,-1
 565 433 l 1,74,-1
 554 432 l 2,75,76
 519 428 519 428 509 416.5 c 128,-1,77
 499 405 499 405 499 373 c 2,78,-1
 499 69 l 2,79,80
 499 38 499 38 509 26 c 128,-1,81
 519 14 519 14 554 10 c 2,82,-1
 565 9 l 1,83,-1
 566 -5 l 1,0,-1
436 226 m 1,84,-1
 436 258 l 1,85,-1
 195 258 l 1,86,-1
 195 226 l 1,87,-1
 436 226 l 1,84,-1
EndSplineSet
EndChar

StartChar: i
Encoding: 105 105 76
Width: 345
Flags: W
LayerCount: 2
Fore
SplineSet
232 561 m 1,0,1
 192 545 192 545 176 505 c 1,2,-1
 169 505 l 1,3,4
 153 545 153 545 113 561 c 1,5,-1
 113 568 l 1,6,7
 153 584 153 584 169 624 c 1,8,-1
 176 624 l 1,9,10
 192 584 192 584 232 568 c 1,11,-1
 232 561 l 1,0,1
271 -5 m 1,12,-1
 257 -4 l 2,13,14
 227 -1 227 -1 217 0 c 128,-1,15
 207 1 207 1 189 1 c 2,16,-1
 156 1 l 2,17,18
 140 1 140 1 122.5 -1 c 128,-1,19
 105 -3 105 -3 88 -4 c 2,20,-1
 74 -5 l 1,21,-1
 75 9 l 1,22,-1
 86 10 l 2,23,24
 121 14 121 14 131 25.5 c 128,-1,25
 141 37 141 37 141 69 c 2,26,-1
 141 373 l 2,27,28
 141 404 141 404 131 416 c 128,-1,29
 121 428 121 428 86 432 c 2,30,-1
 75 433 l 1,31,-1
 74 447 l 1,32,-1
 88 446 l 2,33,34
 118 443 118 443 128 442 c 128,-1,35
 138 441 138 441 156 441 c 2,36,-1
 189 441 l 2,37,38
 205 441 205 441 222.5 443 c 128,-1,39
 240 445 240 445 257 446 c 2,40,-1
 271 447 l 1,41,-1
 270 433 l 1,42,-1
 259 432 l 2,43,44
 224 428 224 428 214 416.5 c 128,-1,45
 204 405 204 405 204 373 c 2,46,-1
 204 69 l 2,47,48
 204 38 204 38 214 26 c 128,-1,49
 224 14 224 14 259 10 c 2,50,-1
 270 9 l 1,51,-1
 271 -5 l 1,12,-1
EndSplineSet
EndChar

StartChar: j
Encoding: 106 106 77
Width: 345
Flags: W
LayerCount: 2
Fore
SplineSet
232 561 m 1,0,1
 192 545 192 545 176 505 c 1,2,-1
 169 505 l 1,3,4
 153 545 153 545 113 561 c 1,5,-1
 113 568 l 1,6,7
 153 584 153 584 169 624 c 1,8,-1
 176 624 l 1,9,10
 192 584 192 584 232 568 c 1,11,-1
 232 561 l 1,0,1
271 447 m 1,12,-1
 270 433 l 1,13,-1
 259 432 l 2,14,15
 224 428 224 428 214 416.5 c 128,-1,16
 204 405 204 405 204 373 c 2,17,-1
 204 -87 l 1,18,-1
 141 -161 l 1,19,-1
 141 373 l 2,20,21
 141 404 141 404 131 416 c 128,-1,22
 121 428 121 428 86 432 c 2,23,-1
 75 433 l 1,24,-1
 74 447 l 1,25,-1
 88 446 l 2,26,27
 118 443 118 443 128 442 c 128,-1,28
 138 441 138 441 156 441 c 2,29,-1
 189 441 l 2,30,31
 205 441 205 441 222.5 443 c 128,-1,32
 240 445 240 445 257 446 c 2,33,-1
 271 447 l 1,12,-1
EndSplineSet
EndChar

StartChar: k
Encoding: 107 107 78
Width: 500
Flags: W
LayerCount: 2
Fore
SplineSet
707 -46 m 1,0,1
 701 -61 701 -61 670 -71.5 c 128,-1,2
 639 -82 639 -82 597 -82 c 0,3,4
 505 -82 505 -82 406 2 c 1,5,6
 319 100 319 100 233 199 c 0,7,8
 222 207 222 207 205 207 c 0,9,10
 198 206 198 206 195 206 c 1,11,-1
 195 69 l 2,12,13
 195 38 195 38 205 26 c 128,-1,14
 215 14 215 14 250 10 c 2,15,-1
 261 9 l 1,16,-1
 262 -5 l 1,17,-1
 248 -4 l 2,18,19
 218 -1 218 -1 208 0 c 128,-1,20
 198 1 198 1 180 1 c 2,21,-1
 147 1 l 2,22,23
 131 1 131 1 113.5 -1 c 128,-1,24
 96 -3 96 -3 79 -4 c 2,25,-1
 65 -5 l 1,26,-1
 66 9 l 1,27,-1
 77 10 l 2,28,29
 112 14 112 14 122 25.5 c 128,-1,30
 132 37 132 37 132 69 c 2,31,-1
 132 373 l 2,32,33
 132 404 132 404 122 416 c 128,-1,34
 112 428 112 428 77 432 c 2,35,-1
 66 433 l 1,36,-1
 65 447 l 1,37,-1
 79 446 l 2,38,39
 109 443 109 443 119 442 c 128,-1,40
 129 441 129 441 147 441 c 2,41,-1
 180 441 l 2,42,43
 196 441 196 441 213.5 443 c 128,-1,44
 231 445 231 445 248 446 c 2,45,-1
 262 447 l 1,46,-1
 261 433 l 1,47,-1
 250 432 l 2,48,49
 215 428 215 428 205 416.5 c 128,-1,50
 195 405 195 405 195 373 c 2,51,-1
 195 226 l 1,52,53
 241 226 241 226 309.5 297.5 c 128,-1,54
 378 369 378 369 378 403 c 0,55,56
 378 417 378 417 366.5 423 c 128,-1,57
 355 429 355 429 323 432 c 2,58,-1
 312 433 l 1,59,-1
 311 447 l 1,60,-1
 325 446 l 2,61,62
 355 443 355 443 365 442 c 128,-1,63
 375 441 375 441 393 441 c 2,64,-1
 406 441 l 2,65,66
 422 441 422 441 439.5 443 c 128,-1,67
 457 445 457 445 474 446 c 2,68,-1
 488 447 l 1,69,-1
 487 433 l 1,70,-1
 476 432 l 2,71,72
 445 429 445 429 422 403 c 1,73,74
 402 374 402 374 397 366 c 0,75,76
 367 323 367 323 337 291.5 c 128,-1,77
 307 260 307 260 276 237 c 1,78,79
 351 136 351 136 418 60 c 0,80,81
 491 -23 491 -23 566 -48 c 0,82,83
 599 -59 599 -59 636 -59 c 0,84,85
 677 -59 677 -59 707 -46 c 1,0,1
EndSplineSet
EndChar

StartChar: l
Encoding: 108 108 79
Width: 452
Flags: W
LayerCount: 2
Fore
SplineSet
443 108 m 1,0,1
 417 74 417 74 401 43 c 0,2,3
 389 20 389 20 383 -3 c 1,4,-1
 181 1 l 1,5,-1
 147 1 l 2,6,7
 131 1 131 1 113.5 -1 c 128,-1,8
 96 -3 96 -3 79 -4 c 2,9,-1
 65 -5 l 1,10,-1
 66 9 l 1,11,-1
 77 10 l 2,12,13
 112 14 112 14 122 25.5 c 128,-1,14
 132 37 132 37 132 69 c 2,15,-1
 132 373 l 2,16,17
 132 404 132 404 122 416 c 128,-1,18
 112 428 112 428 77 432 c 2,19,-1
 66 433 l 1,20,-1
 65 447 l 1,21,-1
 79 446 l 2,22,23
 109 443 109 443 119 442 c 128,-1,24
 129 441 129 441 147 441 c 2,25,-1
 180 441 l 2,26,27
 196 441 196 441 213.5 443 c 128,-1,28
 231 445 231 445 248 446 c 2,29,-1
 262 447 l 1,30,-1
 261 433 l 1,31,-1
 250 432 l 2,32,33
 215 428 215 428 205 416.5 c 128,-1,34
 195 405 195 405 195 373 c 2,35,-1
 195 69 l 2,36,37
 195 43 195 43 200 37 c 128,-1,38
 205 31 205 31 229 31 c 2,39,-1
 303 31 l 2,40,41
 342 31 342 31 356 38 c 128,-1,42
 370 45 370 45 396 78 c 2,43,-1
 420 108 l 1,44,-1
 443 108 l 1,0,1
EndSplineSet
EndChar

StartChar: m
Encoding: 109 109 80
Width: 743
Flags: W
LayerCount: 2
Fore
SplineSet
678 -5 m 1,0,-1
 664 -4 l 2,1,2
 634 -1 634 -1 624 0 c 128,-1,3
 614 1 614 1 596 1 c 2,4,-1
 563 1 l 2,5,6
 547 1 547 1 529.5 -1 c 128,-1,7
 512 -3 512 -3 495 -4 c 2,8,-1
 489 -5 l 1,9,-1
 490 10 l 1,10,11
 527 14 527 14 537.5 25.5 c 128,-1,12
 548 37 548 37 548 69 c 2,13,-1
 548 389 l 1,14,-1
 403 351 l 1,15,-1
 403 69 l 2,16,17
 403 38 403 38 413 26 c 128,-1,18
 423 14 423 14 458 10 c 1,19,-1
 462 -5 l 1,20,-1
 456 -4 l 2,21,22
 426 -1 426 -1 416 0 c 128,-1,23
 406 1 406 1 388 1 c 2,24,-1
 355 1 l 2,25,26
 339 1 339 1 321.5 -1 c 128,-1,27
 304 -3 304 -3 287 -4 c 2,28,-1
 281 -5 l 1,29,-1
 282 10 l 1,30,31
 319 14 319 14 329.5 25.5 c 128,-1,32
 340 37 340 37 340 69 c 2,33,-1
 340 351 l 1,34,-1
 195 389 l 1,35,-1
 195 69 l 2,36,37
 195 38 195 38 205 26 c 128,-1,38
 215 14 215 14 250 10 c 1,39,-1
 254 -5 l 1,40,-1
 248 -4 l 2,41,42
 218 -1 218 -1 208 0 c 128,-1,43
 198 1 198 1 180 1 c 2,44,-1
 147 1 l 2,45,46
 131 1 131 1 113.5 -1 c 128,-1,47
 96 -3 96 -3 79 -4 c 2,48,-1
 65 -5 l 1,49,-1
 66 9 l 1,50,-1
 77 10 l 2,51,52
 112 14 112 14 122 25.5 c 128,-1,53
 132 37 132 37 132 69 c 2,54,-1
 132 373 l 2,55,56
 132 404 132 404 122 416 c 128,-1,57
 112 428 112 428 77 432 c 2,58,-1
 66 433 l 1,59,-1
 65 447 l 1,60,-1
 79 446 l 2,61,62
 128 442 128 442 147 437 c 2,63,-1
 371 379 l 1,64,-1
 596 437 l 2,65,66
 611 441 611 441 664 446 c 2,67,-1
 678 447 l 1,68,-1
 677 433 l 1,69,-1
 666 432 l 2,70,71
 631 428 631 428 621 416.5 c 128,-1,72
 611 405 611 405 611 373 c 2,73,-1
 611 69 l 2,74,75
 611 38 611 38 621 26 c 128,-1,76
 631 14 631 14 666 10 c 2,77,-1
 677 9 l 1,78,-1
 678 -5 l 1,0,-1
EndSplineSet
EndChar

StartChar: n
Encoding: 110 110 81
Width: 605
Flags: W
LayerCount: 2
Fore
SplineSet
540 -5 m 1,0,-1
 526 -4 l 2,1,2
 496 -1 496 -1 486 0 c 128,-1,3
 476 1 476 1 458 1 c 2,4,-1
 425 1 l 2,5,6
 409 1 409 1 391.5 -1 c 128,-1,7
 374 -3 374 -3 357 -4 c 2,8,-1
 343 -5 l 1,9,-1
 344 9 l 1,10,-1
 355 10 l 2,11,12
 390 14 390 14 400 25.5 c 128,-1,13
 410 37 410 37 410 69 c 2,14,-1
 410 408 l 1,15,-1
 195 408 l 1,16,-1
 195 69 l 2,17,18
 195 38 195 38 205 26 c 128,-1,19
 215 14 215 14 250 10 c 2,20,-1
 261 9 l 1,21,-1
 262 -5 l 1,22,-1
 248 -4 l 2,23,24
 218 -1 218 -1 208 0 c 128,-1,25
 198 1 198 1 180 1 c 2,26,-1
 147 1 l 2,27,28
 131 1 131 1 113.5 -1 c 128,-1,29
 96 -3 96 -3 79 -4 c 2,30,-1
 65 -5 l 1,31,-1
 66 9 l 1,32,-1
 77 10 l 2,33,34
 112 14 112 14 122 25.5 c 128,-1,35
 132 37 132 37 132 69 c 2,36,-1
 132 373 l 2,37,38
 132 404 132 404 122 416 c 128,-1,39
 112 428 112 428 77 432 c 2,40,-1
 66 433 l 1,41,-1
 65 447 l 1,42,-1
 79 446 l 2,43,44
 109 443 109 443 119 442 c 128,-1,45
 129 441 129 441 147 441 c 2,46,-1
 458 441 l 2,47,48
 474 441 474 441 491.5 443 c 128,-1,49
 509 445 509 445 526 446 c 2,50,-1
 540 447 l 1,51,-1
 539 433 l 1,52,-1
 528 432 l 2,53,54
 493 428 493 428 483 416.5 c 128,-1,55
 473 405 473 405 473 373 c 2,56,-1
 473 69 l 2,57,58
 473 38 473 38 483 26 c 128,-1,59
 493 14 493 14 528 10 c 2,60,-1
 539 9 l 1,61,-1
 540 -5 l 1,0,-1
EndSplineSet
EndChar

StartChar: o
Encoding: 111 111 82
Width: 653
Flags: W
LayerCount: 2
Fore
SplineSet
588 228 m 0,0,1
 588 128 588 128 513.5 56.5 c 128,-1,2
 439 -15 439 -15 327 -15 c 0,3,4
 216 -15 216 -15 142 47 c 0,5,6
 65 112 65 112 65 214 c 0,7,8
 65 313 65 313 140 385 c 128,-1,9
 215 457 215 457 327 457 c 0,10,11
 438 457 438 457 513 393.5 c 128,-1,12
 588 330 588 330 588 228 c 0,0,1
525 221 m 0,13,14
 515 308 515 308 457 365 c 0,15,16
 396 425 396 425 306 425 c 0,17,18
 226 425 226 425 177 373 c 128,-1,19
 128 321 128 321 128 243 c 0,20,21
 128 229 128 229 129 221 c 0,22,23
 138 135 138 135 198.5 75.5 c 128,-1,24
 259 16 259 16 348 16 c 0,25,26
 427 16 427 16 476.5 68.5 c 128,-1,27
 526 121 526 121 526 199 c 0,28,29
 526 213 526 213 525 221 c 0,13,14
EndSplineSet
EndChar

StartChar: p
Encoding: 112 112 83
Width: 460
Flags: W
LayerCount: 2
Fore
SplineSet
427 332 m 0,0,1
 427 269 427 269 372 228 c 128,-1,2
 317 187 317 187 241 187 c 2,3,-1
 220 188 l 1,4,-1
 220 201 l 1,5,-1
 233 201 l 2,6,7
 287 201 287 201 325 232 c 128,-1,8
 363 263 363 263 363 316 c 0,9,10
 363 360 363 360 331.5 391 c 128,-1,11
 300 422 300 422 243 422 c 0,12,13
 215 422 215 422 205 420 c 128,-1,14
 195 418 195 418 195 391 c 2,15,-1
 195 69 l 2,16,17
 195 38 195 38 205 26 c 128,-1,18
 215 14 215 14 250 10 c 2,19,-1
 261 9 l 1,20,-1
 262 -5 l 1,21,-1
 248 -4 l 2,22,23
 218 -1 218 -1 208 0 c 128,-1,24
 198 1 198 1 180 1 c 2,25,-1
 147 1 l 2,26,27
 131 1 131 1 113.5 -1 c 128,-1,28
 96 -3 96 -3 79 -4 c 2,29,-1
 65 -5 l 1,30,-1
 66 9 l 1,31,-1
 77 10 l 2,32,33
 112 14 112 14 122 25.5 c 128,-1,34
 132 37 132 37 132 69 c 2,35,-1
 132 373 l 2,36,37
 132 404 132 404 122 416 c 128,-1,38
 112 428 112 428 77 432 c 2,39,-1
 66 433 l 1,40,-1
 65 447 l 1,41,-1
 79 446 l 2,42,43
 109 443 109 443 119 442 c 128,-1,44
 129 441 129 441 147 441 c 2,45,-1
 154 441 l 2,46,47
 160 441 160 441 199 442.5 c 128,-1,48
 238 444 238 444 266 444 c 0,49,50
 339 444 339 444 383 411.5 c 128,-1,51
 427 379 427 379 427 332 c 0,0,1
EndSplineSet
EndChar

StartChar: q
Encoding: 113 113 84
Width: 653
Flags: W
LayerCount: 2
Fore
SplineSet
965 -126 m 1,0,1
 960 -149 960 -149 922 -171 c 0,2,3
 877 -197 877 -197 819 -197 c 0,4,5
 727 -197 727 -197 600 -153 c 0,6,7
 507 -121 507 -121 403 -68 c 0,8,9
 332 -32 332 -32 308 -15 c 1,10,11
 209 -15 209 -15 139 47 c 0,12,13
 65 113 65 113 65 214 c 0,14,15
 65 313 65 313 140 385 c 128,-1,16
 215 457 215 457 327 457 c 0,17,18
 438 457 438 457 513 393.5 c 128,-1,19
 588 330 588 330 588 228 c 0,20,21
 588 149 588 149 539.5 85.5 c 128,-1,22
 491 22 491 22 411 -3 c 1,23,24
 476 -39 476 -39 542 -75 c 0,25,26
 624 -118 624 -118 683 -138 c 0,27,28
 763 -165 763 -165 831 -165 c 0,29,30
 874 -165 874 -165 903.5 -156 c 128,-1,31
 933 -147 933 -147 965 -126 c 1,0,1
533 221 m 0,32,33
 523 308 523 308 462 365 c 0,34,35
 398 425 398 425 305 425 c 0,36,37
 222 425 222 425 171 373 c 128,-1,38
 120 321 120 321 120 244 c 0,39,40
 120 229 120 229 121 221 c 0,41,42
 130 134 130 134 191 77 c 0,43,44
 256 16 256 16 349 16 c 0,45,46
 432 16 432 16 483 68 c 128,-1,47
 534 120 534 120 534 198 c 0,48,49
 534 207 534 207 534 212 c 0,50,51
 533 218 533 218 533 221 c 0,32,33
EndSplineSet
EndChar

StartChar: r
Encoding: 114 114 85
Width: 515
Flags: W
LayerCount: 2
Fore
SplineSet
805 -67 m 1,0,1
 799 -82 799 -82 768 -92.5 c 128,-1,2
 737 -103 737 -103 695 -103 c 0,3,4
 612 -103 612 -103 513 -38 c 0,5,6
 442 9 442 9 363 89 c 0,7,8
 322 132 322 132 281 175 c 0,9,10
 275 181 275 181 258 187 c 1,11,-1
 195 187 l 1,12,-1
 195 69 l 2,13,14
 195 38 195 38 205 26 c 128,-1,15
 215 14 215 14 250 10 c 2,16,-1
 261 9 l 1,17,-1
 262 -5 l 1,18,-1
 248 -4 l 2,19,20
 218 -1 218 -1 208 0 c 128,-1,21
 198 1 198 1 180 1 c 2,22,-1
 147 1 l 2,23,24
 131 1 131 1 113.5 -1 c 128,-1,25
 96 -3 96 -3 79 -4 c 2,26,-1
 65 -5 l 1,27,-1
 66 9 l 1,28,-1
 77 10 l 2,29,30
 112 14 112 14 122 25.5 c 128,-1,31
 132 37 132 37 132 69 c 2,32,-1
 132 373 l 2,33,34
 132 404 132 404 122 416 c 128,-1,35
 112 428 112 428 77 432 c 2,36,-1
 66 433 l 1,37,-1
 65 447 l 1,38,-1
 79 446 l 2,39,40
 109 443 109 443 119 442 c 128,-1,41
 129 441 129 441 147 441 c 2,42,-1
 154 441 l 2,43,44
 160 441 160 441 199 442.5 c 128,-1,45
 238 444 238 444 266 444 c 0,46,47
 339 444 339 444 383 411.5 c 128,-1,48
 427 379 427 379 427 332 c 0,49,50
 427 286 427 286 396 250 c 0,51,52
 370 220 370 220 332 205 c 1,53,54
 434 97 434 97 512 29 c 0,55,56
 597 -46 597 -46 664 -69 c 0,57,58
 697 -80 697 -80 734 -80 c 0,59,60
 775 -80 775 -80 805 -67 c 1,0,1
363 316 m 0,61,62
 363 360 363 360 331.5 391 c 128,-1,63
 300 422 300 422 243 422 c 0,64,65
 215 422 215 422 205 420 c 128,-1,66
 195 418 195 418 195 391 c 2,67,-1
 195 209 l 1,68,-1
 283 209 l 1,69,70
 319 221 319 221 341 249 c 128,-1,71
 363 277 363 277 363 316 c 0,61,62
EndSplineSet
EndChar

StartChar: s
Encoding: 115 115 86
Width: 397
Flags: W
LayerCount: 2
Fore
SplineSet
343 115 m 0,0,1
 343 63 343 63 298 24 c 128,-1,2
 253 -15 253 -15 184 -15 c 0,3,4
 147 -15 147 -15 113 -2 c 0,5,6
 93 7 93 7 73 17 c 1,7,-1
 57 111 l 1,8,-1
 71 111 l 1,9,10
 95 10 95 10 184 10 c 0,11,12
 229 10 229 10 257.5 32 c 128,-1,13
 286 54 286 54 286 94 c 0,14,15
 286 131 286 131 257 158 c 0,16,17
 234 179 234 179 168 215 c 0,18,19
 119 243 119 243 95 268 c 0,20,21
 64 301 64 301 64 339 c 0,22,23
 64 394 64 394 99.5 425.5 c 128,-1,24
 135 457 135 457 195 457 c 0,25,26
 221 457 221 457 264 441 c 0,27,28
 288 432 288 432 306 432 c 1,29,-1
 319 360 l 1,30,-1
 307 360 l 1,31,32
 290 401 290 401 255 419 c 0,33,34
 228 433 228 433 191 433 c 0,35,36
 159 433 159 433 137 412 c 128,-1,37
 115 391 115 391 115 360 c 0,38,39
 115 327 115 327 155 300 c 0,40,41
 163 294 163 294 204 271 c 0,42,43
 294 222 294 222 318.5 190 c 128,-1,44
 343 158 343 158 343 115 c 0,0,1
EndSplineSet
EndChar

StartChar: t
Encoding: 116 116 87
Width: 456
Flags: W
LayerCount: 2
Fore
SplineSet
197 441 m 5,0,-1
 90 441 l 6,1,2
 61 441 61 441 61 453 c 4,3,4
 61 454 61 454 63 466 c 5,5,-1
 46 466 l 5,6,-1
 7 363 l 5,7,-1
 22 363 l 5,8,9
 36 392 36 392 47.5 400 c 132,-1,10
 59 408 59 408 81 408 c 6,11,-1
 197 408 l 5,12,-1
 197 69 l 2,13,14
 197 37 197 37 187 25.5 c 0,15,16
 176 13 176 13 142 10 c 2,17,-1
 131 9 l 1,18,-1
 130 -5 l 1,19,-1
 144 -4 l 2,20,21
 166 -2 166 -2 178.5 -1 c 0,22,23
 196 1 196 1 212 1 c 2,24,-1
 245 1 l 2,25,26
 263 1 263 1 273 0 c 128,-1,27
 283 -1 283 -1 313 -4 c 2,28,-1
 327 -5 l 1,29,-1
 326 9 l 1,30,-1
 315 10 l 2,31,32
 280.916666667 13.0984848485 280.916666667 13.0984848485 270 26 c 0,33,34
 260 38 260 38 260 69 c 2,35,-1
 260 408 l 5,36,-1
 366 408 l 6,37,38
 395 408 395 408 395 397 c 4,39,40
 395 389 395 389 393 383 c 5,41,-1
 409 383 l 5,42,-1
 449 486 l 5,43,-1
 434 486 l 5,44,45
 419 457 419 457 407.99766147 448.843318486 c 4,46,47
 397 441 397 441 376 441 c 6,48,-1
 197 441 l 5,0,-1
EndSplineSet
EndChar

StartChar: u
Encoding: 117 117 88
Width: 575
Flags: W
LayerCount: 2
Fore
SplineSet
540 447 m 1,0,-1
 539 433 l 1,1,-1
 528 432 l 2,2,3
 493 428 493 428 483 416.5 c 128,-1,4
 473 405 473 405 473 373 c 2,5,-1
 473 369 l 2,6,7
 473 240 473 240 428 141 c 0,8,9
 380 35 380 35 288 -19 c 1,10,11
 195 35 195 35 148.5 136.5 c 128,-1,12
 102 238 102 238 102 367 c 2,13,-1
 102 373 l 2,14,15
 102 404 102 404 92 416 c 128,-1,16
 82 428 82 428 47 432 c 2,17,-1
 36 433 l 1,18,-1
 35 447 l 1,19,-1
 49 446 l 2,20,21
 79 443 79 443 89 442 c 128,-1,22
 99 441 99 441 117 441 c 2,23,-1
 153 441 l 2,24,25
 169 441 169 441 186.5 443 c 128,-1,26
 204 445 204 445 221 446 c 2,27,-1
 235 447 l 1,28,-1
 234 433 l 1,29,-1
 223 432 l 2,30,31
 188 428 188 428 178 416.5 c 128,-1,32
 168 405 168 405 168 373 c 2,33,-1
 168 367 l 2,34,35
 168 217 168 217 203 121 c 0,36,37
 234 36 234 36 288 6 c 1,38,39
 342 36 342 36 374.5 125.5 c 128,-1,40
 407 215 407 215 407 369 c 2,41,-1
 407 373 l 2,42,43
 407 404 407 404 397 416 c 128,-1,44
 387 428 387 428 352 432 c 2,45,-1
 341 433 l 1,46,-1
 340 447 l 1,47,-1
 354 446 l 2,48,49
 384 443 384 443 394 442 c 128,-1,50
 404 441 404 441 422 441 c 2,51,-1
 458 441 l 2,52,53
 474 441 474 441 491.5 443 c 128,-1,54
 509 445 509 445 526 446 c 2,55,-1
 540 447 l 1,0,-1
EndSplineSet
EndChar

StartChar: v
Encoding: 118 118 89
Width: 506
Flags: W
LayerCount: 2
Fore
SplineSet
496 446 m 1,0,-1
 494 430 l 1,1,-1
 484 429 l 2,2,3
 458 427 458 427 445 416.5 c 128,-1,4
 432 406 432 406 419 373 c 2,5,-1
 267 -7 l 1,6,-1
 256 -7 l 1,7,-1
 87 380 l 2,8,9
 75 407 75 407 61 417 c 128,-1,10
 47 427 47 427 21 429 c 2,11,-1
 11 430 l 1,12,-1
 10 446 l 1,13,-1
 23 444 l 1,14,-1
 93 441 l 1,15,-1
 129 441 l 1,16,-1
 198 444 l 1,17,-1
 212 446 l 1,18,-1
 210 430 l 1,19,-1
 200 429 l 2,20,21
 180 426 180 426 166.5 418 c 128,-1,22
 153 410 153 410 153 394 c 0,23,24
 153 388 153 388 156 380 c 2,25,-1
 277 103 l 1,26,-1
 386 383 l 2,27,28
 389 391 389 391 389 398 c 0,29,30
 389 412 389 412 375 419.5 c 128,-1,31
 361 427 361 427 340 429 c 2,32,-1
 330 430 l 1,33,-1
 329 446 l 1,34,-1
 342 444 l 2,35,36
 361 444 361 444 374 443 c 128,-1,37
 387 442 387 442 399 441 c 2,38,-1
 426 441 l 1,39,-1
 482 444 l 1,40,-1
 496 446 l 1,0,-1
EndSplineSet
EndChar

StartChar: w
Encoding: 119 119 90
Width: 820
Flags: W
LayerCount: 2
Fore
SplineSet
785 447 m 1,0,-1
 784 433 l 1,1,-1
 773 432 l 2,2,3
 738 428 738 428 728 416.5 c 128,-1,4
 718 405 718 405 718 373 c 2,5,-1
 718 369 l 2,6,7
 718 234 718 234 681 141 c 0,8,9
 639 34 639 34 548 -19 c 1,10,11
 498 10 498 10 463.5 55 c 128,-1,12
 429 100 429 100 410 156 c 1,13,14
 390 98 390 98 359 57 c 0,15,16
 324 11 324 11 273 -19 c 1,17,18
 183 33 183 33 140 140 c 0,19,20
 102 234 102 234 102 367 c 2,21,-1
 102 373 l 2,22,23
 102 404 102 404 92 416 c 128,-1,24
 82 428 82 428 47 432 c 2,25,-1
 36 433 l 1,26,-1
 35 447 l 1,27,-1
 49 446 l 2,28,29
 79 443 79 443 89 442 c 128,-1,30
 99 441 99 441 117 441 c 2,31,-1
 153 441 l 2,32,33
 169 441 169 441 186.5 443 c 128,-1,34
 204 445 204 445 221 446 c 2,35,-1
 235 447 l 1,36,-1
 234 433 l 1,37,-1
 223 432 l 2,38,39
 188 428 188 428 178 416.5 c 128,-1,40
 168 405 168 405 168 373 c 2,41,-1
 168 367 l 2,42,43
 168 211 168 211 194.5 123 c 128,-1,44
 221 35 221 35 273 6 c 1,45,46
 324 34 324 34 350.5 123 c 128,-1,47
 377 212 377 212 377 369 c 2,48,-1
 377 373 l 2,49,50
 377 404 377 404 367 416 c 128,-1,51
 357 428 357 428 322 432 c 2,52,-1
 311 433 l 1,53,-1
 310 447 l 1,54,-1
 324 446 l 2,55,56
 354 443 354 443 364 442 c 128,-1,57
 374 441 374 441 392 441 c 2,58,-1
 428 441 l 2,59,60
 444 441 444 441 461.5 443 c 128,-1,61
 479 445 479 445 496 446 c 2,62,-1
 510 447 l 1,63,-1
 509 433 l 1,64,-1
 498 432 l 2,65,66
 463 428 463 428 453 416.5 c 128,-1,67
 443 405 443 405 443 373 c 2,68,-1
 443 367 l 2,69,70
 443 211 443 211 469.5 123 c 128,-1,71
 496 35 496 35 548 6 c 1,72,73
 599 34 599 34 625.5 123 c 128,-1,74
 652 212 652 212 652 369 c 2,75,-1
 652 373 l 2,76,77
 652 404 652 404 642 416 c 128,-1,78
 632 428 632 428 597 432 c 2,79,-1
 586 433 l 1,80,-1
 585 447 l 1,81,-1
 599 446 l 2,82,83
 629 443 629 443 639 442 c 128,-1,84
 649 441 649 441 667 441 c 2,85,-1
 703 441 l 2,86,87
 719 441 719 441 736.5 443 c 128,-1,88
 754 445 754 445 771 446 c 2,89,-1
 785 447 l 1,0,-1
EndSplineSet
EndChar

StartChar: x
Encoding: 120 120 91
Width: 538
Flags: W
LayerCount: 2
Fore
SplineSet
531 -5 m 1,0,-1
 517 -4 l 2,1,2
 487 -1 487 -1 477 0 c 128,-1,3
 467 1 467 1 449 1 c 2,4,-1
 416 1 l 2,5,6
 399 1 399 1 378.5 -1 c 128,-1,7
 358 -3 358 -3 341 -4 c 2,8,-1
 327 -5 l 1,9,-1
 328 9 l 1,10,-1
 339 10 l 2,11,12
 368 13 368 13 368 29 c 0,13,14
 368 38 368 38 363 46 c 128,-1,15
 358 54 358 54 347 69 c 2,16,-1
 259 187 l 1,17,-1
 163 69 l 2,18,19
 143 44 143 44 143 31 c 0,20,21
 143 14 143 14 177 10 c 2,22,-1
 188 9 l 1,23,-1
 189 -5 l 1,24,-1
 175 -4 l 2,25,26
 145 -1 145 -1 135 0 c 128,-1,27
 125 1 125 1 107 1 c 2,28,-1
 94 1 l 2,29,30
 78 1 78 1 60.5 -1 c 128,-1,31
 43 -3 43 -3 26 -4 c 2,32,-1
 12 -5 l 1,33,-1
 13 9 l 1,34,-1
 24 10 l 2,35,36
 56 13 56 13 81 31 c 0,37,38
 98 43 98 43 119 69 c 2,39,-1
 238 216 l 1,40,-1
 134 356 l 2,41,42
 99 403 99 403 79.5 416 c 128,-1,43
 60 429 60 429 34 432 c 2,44,-1
 23 433 l 1,45,-1
 22 447 l 1,46,-1
 36 446 l 2,47,48
 66 443 66 443 76 442 c 128,-1,49
 86 441 86 441 104 441 c 2,50,-1
 145 441 l 2,51,52
 161 441 161 441 178.5 443 c 128,-1,53
 196 445 196 445 213 446 c 2,54,-1
 227 447 l 1,55,-1
 226 433 l 1,56,-1
 215 432 l 2,57,58
 181 428 181 428 181 412 c 0,59,60
 181 405 181 405 186.5 395.5 c 128,-1,61
 192 386 192 386 201 373 c 2,62,-1
 279 267 l 1,63,-1
 365 373 l 2,64,65
 372 381 372 381 375 386 c 0,66,67
 384 400 384 400 384 410 c 0,68,69
 384 418 384 418 376.5 424.5 c 128,-1,70
 369 431 369 431 352 432 c 2,71,-1
 341 433 l 1,72,-1
 340 447 l 1,73,-1
 354 446 l 2,74,75
 384 443 384 443 394 442 c 128,-1,76
 404 441 404 441 422 441 c 2,77,-1
 435 441 l 2,78,79
 451 441 451 441 468.5 443 c 128,-1,80
 486 445 486 445 503 446 c 2,81,-1
 517 447 l 1,82,-1
 516 433 l 1,83,-1
 505 432 l 2,84,85
 472 429 472 429 447 411 c 0,86,87
 430 399 430 399 409 373 c 2,88,-1
 300 238 l 1,89,-1
 425 69 l 2,90,91
 444 43 444 43 461 31 c 0,92,93
 485 13 485 13 519 10 c 2,94,-1
 530 9 l 1,95,-1
 531 -5 l 1,0,-1
EndSplineSet
EndChar

StartChar: y
Encoding: 121 121 92
Width: 506
Flags: W
LayerCount: 2
Fore
SplineSet
506 447 m 1,0,-1
 505 433 l 1,1,-1
 494 432 l 2,2,3
 461 429 461 429 441 411 c 0,4,5
 428 400 428 400 411 373 c 2,6,-1
 294 192 l 1,7,-1
 294 69 l 2,8,9
 294 38 294 38 304 26 c 128,-1,10
 314 14 314 14 349 10 c 2,11,-1
 360 9 l 1,12,-1
 361 -5 l 1,13,-1
 347 -4 l 2,14,15
 317 -1 317 -1 307 0 c 128,-1,16
 297 1 297 1 279 1 c 2,17,-1
 246 1 l 2,18,19
 230 1 230 1 212.5 -1 c 128,-1,20
 195 -3 195 -3 178 -4 c 2,21,-1
 164 -5 l 1,22,-1
 165 9 l 1,23,-1
 176 10 l 2,24,25
 211 14 211 14 221 25.5 c 128,-1,26
 231 37 231 37 231 69 c 2,27,-1
 231 187 l 1,28,-1
 106 373 l 2,29,30
 90 398 90 398 71 411 c 0,31,32
 47 428 47 428 12 432 c 2,33,-1
 1 433 l 1,34,-1
 0 447 l 1,35,-1
 14 446 l 2,36,37
 44 443 44 443 54 442 c 128,-1,38
 64 441 64 441 82 441 c 2,39,-1
 114 441 l 2,40,41
 131 441 131 441 151.5 443 c 128,-1,42
 172 445 172 445 189 446 c 2,43,-1
 203 447 l 1,44,-1
 202 433 l 1,45,-1
 191 432 l 2,46,47
 162 429 162 429 162 414 c 0,48,49
 162 407 162 407 169 395 c 0,50,51
 171 392 171 392 183 373 c 2,52,-1
 281 227 l 1,53,-1
 375 373 l 2,54,55
 388 393 388 393 388 405 c 0,56,57
 388 428 388 428 346 432 c 2,58,-1
 335 433 l 1,59,-1
 334 447 l 1,60,-1
 348 446 l 2,61,62
 378 443 378 443 388 442 c 128,-1,63
 398 441 398 441 416 441 c 2,64,-1
 424 441 l 2,65,66
 440 441 440 441 457.5 443 c 128,-1,67
 475 445 475 445 492 446 c 2,68,-1
 506 447 l 1,0,-1
EndSplineSet
EndChar

StartChar: z
Encoding: 122 122 93
Width: 480
Flags: W
LayerCount: 2
Fore
SplineSet
431 88 m 1,0,-1
 391 -25 l 1,1,-1
 375 -25 l 1,2,3
 377 -19 377 -19 377 -11 c 0,4,5
 377 0 377 0 348 0 c 2,6,-1
 50 0 l 1,7,-1
 50 19 l 1,8,-1
 196 227 l 1,9,-1
 79 227 l 1,10,-1
 107 256 l 1,11,-1
 217 256 l 1,12,-1
 323 408 l 1,13,-1
 152 408 l 2,14,15
 120 408 120 408 94 353 c 1,16,-1
 80 353 l 1,17,-1
 118 466 l 1,18,-1
 136 466 l 1,19,20
 133 457 133 457 133 452 c 0,21,22
 133 441 133 441 162 441 c 2,23,-1
 405 441 l 1,24,-1
 405 423 l 1,25,-1
 288 256 l 1,26,-1
 416 256 l 1,27,-1
 389 227 l 1,28,-1
 267 227 l 1,29,-1
 131 33 l 1,30,-1
 358 33 l 2,31,32
 389 33 389 33 415 88 c 1,33,-1
 431 88 l 1,0,-1
EndSplineSet
EndChar

StartChar: braceleft
Encoding: 123 123 94
Width: 470
Flags: W
LayerCount: 2
Fore
SplineSet
373 -105 m 1,0,-1
 372 -122 l 1,1,2
 291 -111 291 -111 240 -58.5 c 128,-1,3
 189 -6 189 -6 189 67 c 0,4,5
 189 89 189 89 196 124 c 0,6,7
 212 204 212 204 212 216 c 0,8,9
 212 300 212 300 100 321 c 1,10,-1
 100 340 l 1,11,12
 153 350 153 350 182.5 377.5 c 128,-1,13
 212 405 212 405 212 445 c 0,14,15
 212 464 212 464 205 497 c 0,16,17
 189 574 189 574 189 594 c 0,18,19
 189 666 189 666 240.5 719 c 128,-1,20
 292 772 292 772 372 783 c 1,21,-1
 373 766 l 1,22,23
 260 739 260 739 260 646 c 2,24,-1
 260 15 l 2,25,26
 260 -78 260 -78 373 -105 c 1,0,-1
EndSplineSet
EndChar

StartChar: bar
Encoding: 124 124 95
Width: 510
Flags: W
LayerCount: 2
Fore
SplineSet
282 -200 m 1,0,-1
 228 -200 l 1,1,-1
 228 800 l 1,2,-1
 282 800 l 1,3,-1
 282 -200 l 1,0,-1
EndSplineSet
EndChar

StartChar: braceright
Encoding: 125 125 96
Width: 470
Flags: W
LayerCount: 2
Fore
SplineSet
370 321 m 1,0,1
 317 311 317 311 287.5 283.5 c 128,-1,2
 258 256 258 256 258 216 c 0,3,4
 258 197 258 197 265 164 c 0,5,6
 281 87 281 87 281 67 c 0,7,8
 281 -5 281 -5 229.5 -58 c 128,-1,9
 178 -111 178 -111 98 -122 c 1,10,-1
 97 -105 l 1,11,12
 210 -78 210 -78 210 15 c 2,13,-1
 210 646 l 2,14,15
 210 739 210 739 97 766 c 1,16,-1
 98 783 l 1,17,18
 179 772 179 772 230 719.5 c 128,-1,19
 281 667 281 667 281 594 c 0,20,21
 281 572 281 572 274 537 c 0,22,23
 258 457 258 457 258 445 c 0,24,25
 258 361 258 361 370 340 c 1,26,-1
 370 321 l 1,0,1
EndSplineSet
EndChar

StartChar: asciitilde
Encoding: 126 126 97
Width: 542
Flags: W
LayerCount: 2
Fore
SplineSet
519 391 m 1,0,1
 519 323 519 323 481 278 c 128,-1,2
 443 233 443 233 388 233 c 0,3,4
 357 233 357 233 325.5 244 c 128,-1,5
 294 255 294 255 237 286 c 0,6,7
 200 306 200 306 175 315.5 c 128,-1,8
 150 325 150 325 133 325 c 0,9,10
 96 325 96 325 70.5 299.5 c 128,-1,11
 45 274 45 274 45 233 c 1,12,-1
 23 233 l 1,13,14
 23 299 23 299 62.5 344.5 c 128,-1,15
 102 390 102 390 158 390 c 0,16,17
 188 390 188 390 217 379.5 c 128,-1,18
 246 369 246 369 298 340 c 0,19,20
 369 301 369 301 406 301 c 256,21,22
 443 301 443 301 466.5 324.5 c 128,-1,23
 490 348 490 348 495 391 c 1,24,-1
 519 391 l 1,0,1
EndSplineSet
EndChar

StartChar: Ccedilla
Encoding: 199 199 100
Width: 735
Flags: W
LayerCount: 2
Fore
SplineSet
667 169 m 1,0,-1
 651 36 l 1,1,2
 623 15 623 15 560.5 0 c 128,-1,3
 498 -15 498 -15 439 -15 c 2,4,-1
 397 -13 l 1,5,-1
 373 -48 l 1,6,7
 400 -58 400 -58 416.5 -78.5 c 128,-1,8
 433 -99 433 -99 433 -125 c 0,9,10
 433 -159 433 -159 406 -184 c 128,-1,11
 379 -209 379 -209 338 -209 c 0,12,13
 323 -209 323 -209 311.5 -205.5 c 128,-1,14
 300 -202 300 -202 280 -193 c 1,15,-1
 289 -174 l 1,16,17
 298 -180 298 -180 312.5 -183 c 128,-1,18
 327 -186 327 -186 341 -186 c 0,19,20
 361 -186 361 -186 377.5 -168.5 c 128,-1,21
 394 -151 394 -151 394 -132 c 256,22,23
 394 -113 394 -113 378.5 -100.5 c 128,-1,24
 363 -88 363 -88 341 -88 c 0,25,26
 329 -88 329 -88 319 -91.5 c 128,-1,27
 309 -95 309 -95 300 -101 c 2,28,-1
 279 -114 l 1,29,-1
 362 -8 l 1,30,31
 238 13 238 13 161 94 c 0,32,33
 80 179 80 179 80 301 c 0,34,35
 80 438 80 438 181 536 c 0,36,37
 286 637 286 637 439 637 c 0,38,39
 492 637 492 637 536 624 c 128,-1,40
 580 611 580 611 625 597 c 0,41,42
 636 597 636 597 644 602 c 1,43,-1
 651 474 l 1,44,-1
 640 474 l 1,45,46
 617 552 617 552 561 585 c 0,47,48
 512 614 512 614 426 614 c 0,49,50
 311 614 311 614 238.5 522.5 c 128,-1,51
 166 431 166 431 166 302 c 256,52,53
 166 173 166 173 252 89 c 0,54,55
 335 8 335 8 452 8 c 0,56,57
 542 8 542 8 587 40 c 0,58,59
 640 77 640 77 650 169 c 1,60,-1
 667 169 l 1,0,-1
EndSplineSet
EndChar

StartChar: adieresis
Encoding: 228 228 108
Width: 575
Flags: W
LayerCount: 2
Fore
SplineSet
540 -5 m 1,0,-1
 526 -4 l 2,1,2
 496 -1 496 -1 486 0 c 128,-1,3
 476 1 476 1 458 1 c 2,4,-1
 422 1 l 2,5,6
 406 1 406 1 388.5 -1 c 128,-1,7
 371 -3 371 -3 354 -4 c 2,8,-1
 340 -5 l 1,9,-1
 341 9 l 1,10,-1
 352 10 l 2,11,12
 387 14 387 14 397 25.5 c 128,-1,13
 407 37 407 37 407 69 c 2,14,-1
 407 75 l 1,15,-1
 405 132 l 1,16,-1
 170 132 l 1,17,-1
 168 73 l 1,18,-1
 168 69 l 2,19,20
 168 38 168 38 178 26 c 128,-1,21
 188 14 188 14 223 10 c 2,22,-1
 234 9 l 1,23,-1
 235 -5 l 1,24,-1
 221 -4 l 2,25,26
 191 -1 191 -1 181 0 c 128,-1,27
 171 1 171 1 153 1 c 2,28,-1
 117 1 l 2,29,30
 101 1 101 1 83.5 -1 c 128,-1,31
 66 -3 66 -3 49 -4 c 2,32,-1
 35 -5 l 1,33,-1
 36 9 l 1,34,-1
 47 10 l 2,35,36
 82 14 82 14 92 25.5 c 128,-1,37
 102 37 102 37 102 69 c 2,38,-1
 102 73 l 2,39,40
 102 202 102 202 148.5 304.5 c 128,-1,41
 195 407 195 407 287 461 c 1,42,43
 380 407 380 407 428 302 c 0,44,45
 473 204 473 204 473 75 c 2,46,-1
 473 69 l 2,47,48
 473 38 473 38 483 26 c 128,-1,49
 493 14 493 14 528 10 c 2,50,-1
 539 9 l 1,51,-1
 540 -5 l 1,0,-1
402 165 m 1,52,53
 393 276 393 276 362.5 343.5 c 128,-1,54
 332 411 332 411 287 436 c 1,55,56
 242 412 242 412 212 345.5 c 128,-1,57
 182 279 182 279 172 165 c 1,58,-1
 402 165 l 1,52,53
447 578 m 1,59,60
 404 562 404 562 386 522 c 1,61,-1
 379 522 l 1,62,63
 361 561 361 561 319 578 c 1,64,-1
 319 585 l 1,65,66
 361 602 361 602 379 641 c 1,67,-1
 386 641 l 1,68,69
 394 624 394 624 411 608 c 128,-1,70
 428 592 428 592 447 585 c 1,71,-1
 447 578 l 1,59,60
247 578 m 1,72,73
 204 562 204 562 186 522 c 1,74,-1
 179 522 l 1,75,76
 161 562 161 562 119 578 c 1,77,-1
 119 585 l 1,78,79
 161 601 161 601 179 641 c 1,80,-1
 186 641 l 1,81,82
 194 624 194 624 211 608 c 128,-1,83
 228 592 228 592 247 585 c 1,84,-1
 247 578 l 1,72,73
EndSplineSet
EndChar

StartChar: ccedilla
Encoding: 231 231 111
Width: 550
Flags: W
LayerCount: 2
Fore
SplineSet
494 124 m 1,0,-1
 482 27 l 1,1,2
 460 12 460 12 413 -1.5 c 128,-1,3
 366 -15 366 -15 327 -15 c 0,4,5
 310 -15 310 -15 294 -15 c 0,6,7
 280 -12 280 -12 274 -11 c 1,8,-1
 249 -48 l 1,9,10
 276 -58 276 -58 292.5 -78.5 c 128,-1,11
 309 -99 309 -99 309 -125 c 0,12,13
 309 -159 309 -159 282 -184 c 128,-1,14
 255 -209 255 -209 214 -209 c 0,15,16
 199 -209 199 -209 187.5 -205.5 c 128,-1,17
 176 -202 176 -202 156 -193 c 1,18,-1
 165 -174 l 1,19,20
 174 -180 174 -180 188.5 -183 c 128,-1,21
 203 -186 203 -186 217 -186 c 0,22,23
 237 -186 237 -186 253.5 -168.5 c 128,-1,24
 270 -151 270 -151 270 -132 c 256,25,26
 270 -113 270 -113 254.5 -100.5 c 128,-1,27
 239 -88 239 -88 217 -88 c 0,28,29
 205 -88 205 -88 195 -91.5 c 128,-1,30
 185 -95 185 -95 176 -101 c 2,31,-1
 155 -114 l 1,32,-1
 242 -4 l 1,33,34
 163 18 163 18 114 75.5 c 128,-1,35
 65 133 65 133 65 214 c 0,36,37
 65 313 65 313 140 385 c 128,-1,38
 215 457 215 457 327 457 c 0,39,40
 365 457 365 457 397 447 c 128,-1,41
 429 437 429 437 462 426 c 0,42,43
 470 426 470 426 477 430 c 1,44,-1
 484 332 l 1,45,-1
 470 333 l 1,46,47
 454 387 454 387 416.5 408.5 c 128,-1,48
 379 430 379 430 318 430 c 0,49,50
 237 430 237 430 185 366 c 128,-1,51
 133 302 133 302 133 214 c 0,52,53
 133 124 133 124 192.5 68 c 128,-1,54
 252 12 252 12 336 12 c 0,55,56
 400 12 400 12 431 33 c 0,57,58
 469 59 469 59 476 124 c 1,59,-1
 494 124 l 1,0,-1
EndSplineSet
EndChar

StartChar: dagger
Encoding: 8224 8224 130
Width: 478
Flags: W
LayerCount: 2
Fore
SplineSet
404 317 m 1,0,-1
 391 318 l 1,1,-1
 390 329 l 2,2,3
 386 366 386 366 374 380 c 128,-1,4
 362 394 362 394 331 394 c 2,5,-1
 273 394 l 1,6,7
 256 209 256 209 249.5 82.5 c 128,-1,8
 243 -44 243 -44 243 -143 c 1,9,-1
 235 -143 l 1,10,11
 235 -46 235 -46 232 22 c 128,-1,12
 229 90 229 90 219 231 c 0,13,14
 213 322 213 322 206 394 c 1,15,-1
 147 394 l 2,16,17
 118 394 118 394 105 380 c 128,-1,18
 92 366 92 366 88 329 c 2,19,-1
 87 318 l 1,20,-1
 74 317 l 1,21,-1
 75 331 l 1,22,-1
 80 409 l 1,23,-1
 80 427 l 1,24,-1
 75 505 l 1,25,-1
 74 519 l 1,26,-1
 87 518 l 1,27,-1
 88 507 l 2,28,29
 92 470 92 470 104 456 c 128,-1,30
 116 442 116 442 147 442 c 2,31,-1
 201 442 l 1,32,33
 188 564 188 564 174 568 c 1,34,-1
 174 576 l 1,35,36
 195 583 195 583 211 599.5 c 128,-1,37
 227 616 227 616 235 637 c 1,38,-1
 243 637 l 1,39,40
 250 616 250 616 266.5 600 c 128,-1,41
 283 584 283 584 304 576 c 1,42,-1
 304 568 l 1,43,44
 298 566 298 566 291 532.5 c 128,-1,45
 284 499 284 499 278 442 c 1,46,-1
 331 442 l 2,47,48
 360 442 360 442 373 456 c 128,-1,49
 386 470 386 470 390 507 c 2,50,-1
 391 518 l 1,51,-1
 404 519 l 1,52,-1
 403 505 l 1,53,-1
 398 427 l 1,54,-1
 398 409 l 1,55,-1
 403 331 l 1,56,-1
 404 317 l 1,0,-1
EndSplineSet
EndChar

StartChar: degree
Encoding: 176 176 131
Width: 333
Flags: W
LayerCount: 2
Fore
SplineSet
257 690 m 0,0,1
 257 651 257 651 230 624 c 128,-1,2
 203 597 203 597 164 597 c 256,3,4
 125 597 125 597 97.5 624.5 c 128,-1,5
 70 652 70 652 70 690 c 0,6,7
 70 729 70 729 97.5 756.5 c 128,-1,8
 125 784 125 784 164 784 c 256,9,10
 203 784 203 784 230 757 c 128,-1,11
 257 730 257 730 257 690 c 0,0,1
223 690 m 256,12,13
 223 714 223 714 206 732 c 128,-1,14
 189 750 189 750 164 750 c 256,15,16
 139 750 139 750 121.5 732.5 c 128,-1,17
 104 715 104 715 104 690 c 256,18,19
 104 665 104 665 121 648 c 128,-1,20
 138 631 138 631 164 631 c 0,21,22
 188 631 188 631 205.5 648.5 c 128,-1,23
 223 666 223 666 223 690 c 256,12,13
EndSplineSet
EndChar

StartChar: cent
Encoding: 162 162 132
Width: 590
Flags: W
LayerCount: 2
Fore
SplineSet
514 124 m 1,0,-1
 502 27 l 1,1,2
 480 12 480 12 433 -1.5 c 128,-1,3
 386 -15 386 -15 347 -15 c 0,4,5
 271 -15 271 -15 209 16 c 1,6,-1
 151 -103 l 1,7,-1
 125 -103 l 1,8,-1
 189 28 l 1,9,10
 140 58 140 58 112.5 105.5 c 128,-1,11
 85 153 85 153 85 214 c 0,12,13
 85 313 85 313 160 385 c 128,-1,14
 235 457 235 457 347 457 c 0,15,16
 373 457 373 457 396 452 c 1,17,-1
 443 549 l 1,18,-1
 470 549 l 1,19,-1
 420 446 l 1,20,21
 436 441 436 441 455 433.5 c 128,-1,22
 474 426 474 426 482 426 c 256,23,24
 490 426 490 426 497 430 c 1,25,-1
 504 332 l 1,26,-1
 490 333 l 1,27,28
 479 369 479 369 458.5 390 c 128,-1,29
 438 411 438 411 408 421 c 1,30,-1
 229 56 l 1,31,32
 284 12 284 12 356 12 c 0,33,34
 420 12 420 12 451 33 c 0,35,36
 489 59 489 59 496 124 c 1,37,-1
 514 124 l 1,0,-1
383 427 m 1,38,-1
 338 430 l 1,39,40
 257 430 257 430 205 366 c 128,-1,41
 153 302 153 302 153 214 c 0,42,43
 153 172 153 172 168 137 c 128,-1,44
 183 102 183 102 211 73 c 1,45,-1
 383 427 l 1,38,-1
EndSplineSet
EndChar

StartChar: sterling
Encoding: 163 163 133
Width: 620
Flags: W
LayerCount: 2
Fore
SplineSet
557 613 m 1,0,1
 528 597 528 597 513.5 585 c 128,-1,2
 499 573 499 573 475 546 c 1,3,4
 441 570 441 570 416.5 579.5 c 128,-1,5
 392 589 392 589 370 589 c 0,6,7
 315 589 315 589 291 522 c 0,8,9
 280 493 280 493 269 410 c 2,10,-1
 260 340 l 1,11,-1
 408 340 l 1,12,-1
 408 308 l 1,13,-1
 255 308 l 1,14,-1
 235 154 l 2,15,16
 231 126 231 126 231 101 c 0,17,18
 231 68 231 68 240.5 55.5 c 128,-1,19
 250 43 250 43 269 43 c 2,20,-1
 376 43 l 2,21,22
 429 43 429 43 451 58 c 128,-1,23
 473 73 473 73 505 124 c 1,24,-1
 522 126 l 1,25,26
 499 84 499 84 490 55 c 0,27,28
 483 22 483 22 478 3 c 1,29,-1
 175 12 l 2,30,31
 144 12 144 12 130.5 -2 c 128,-1,32
 117 -16 117 -16 117 -52 c 1,33,-1
 115 -63 l 1,34,-1
 104 -64 l 1,35,-1
 104 -50 l 2,36,37
 104 -26 104 -26 106.5 0.5 c 128,-1,38
 109 27 109 27 109 28 c 2,39,-1
 109 38 l 1,40,41
 134 38 134 38 146.5 67 c 128,-1,42
 159 96 159 96 166 154 c 2,43,-1
 186 308 l 1,44,-1
 90 308 l 1,45,-1
 90 340 l 1,46,-1
 190 340 l 1,47,-1
 200 410 l 2,48,49
 211 498 211 498 240 550 c 0,50,51
 285 632 285 632 372 632 c 0,52,53
 392 632 392 632 422 627 c 0,54,55
 460 616 460 616 499 606 c 0,56,57
 513 606 513 606 524 609 c 128,-1,58
 535 612 535 612 552 623 c 1,59,-1
 557 613 l 1,0,1
EndSplineSet
EndChar

StartChar: section
Encoding: 167 167 134
Width: 443
Flags: W
LayerCount: 2
Fore
SplineSet
374 122 m 256,0,1
 374 61 374 61 336 23 c 128,-1,2
 298 -15 298 -15 240 -15 c 0,3,4
 167 -15 167 -15 123 37 c 128,-1,5
 79 89 79 89 79 184 c 0,6,7
 79 195 79 195 79 207 c 0,8,9
 81 218 81 218 81 222 c 0,10,11
 89 314 89 314 142 383 c 0,12,13
 189 444 189 444 254 467 c 0,14,15
 262 469 262 469 264 469 c 0,16,17
 274 469 274 469 274 462 c 256,18,19
 274 455 274 455 259 448 c 0,20,21
 212 422 212 422 182 366.5 c 128,-1,22
 152 311 152 311 143 223 c 1,23,24
 180 268 180 268 240 268 c 0,25,26
 299 268 299 268 336.5 225.5 c 128,-1,27
 374 183 374 183 374 122 c 256,0,1
326 127 m 1,28,29
 326 180 326 180 304 215.5 c 128,-1,30
 282 251 282 251 243 251 c 0,31,32
 201 251 201 251 173.5 215.5 c 128,-1,33
 146 180 146 180 141 127 c 1,34,35
 141 73 141 73 162.5 38 c 128,-1,36
 184 3 184 3 224 3 c 0,37,38
 266 3 266 3 293.5 38.5 c 128,-1,39
 321 74 321 74 326 127 c 1,28,29
EndSplineSet
EndChar

StartChar: bullet
Encoding: 8226 8226 135
Width: 354
Flags: W
LayerCount: 2
Fore
SplineSet
300 311 m 0,0,1
 300 260 300 260 263.5 224.5 c 128,-1,2
 227 189 227 189 177 189 c 0,3,4
 126 189 126 189 90 224 c 128,-1,5
 54 259 54 259 54 311 c 0,6,7
 54 362 54 362 90 398 c 128,-1,8
 126 434 126 434 177 434 c 0,9,10
 227 434 227 434 263.5 398.5 c 128,-1,11
 300 363 300 363 300 311 c 0,0,1
EndSplineSet
EndChar

StartChar: paragraph
Encoding: 182 182 136
Width: 630
Flags: W
LayerCount: 2
Fore
SplineSet
531 -206 m 1,0,-1
 517 -205 l 1,1,-1
 439 -200 l 1,2,-1
 417 -200 l 1,3,-1
 417 590 l 1,4,-1
 326 590 l 1,5,-1
 326 453 l 1,6,-1
 289 453 l 1,7,-1
 289 565 l 1,8,-1
 257 565 l 1,9,-1
 257 453 l 1,10,-1
 145 453 l 1,11,-1
 145 421 l 1,12,-1
 257 421 l 1,13,-1
 257 310 l 1,14,-1
 289 310 l 1,15,-1
 289 421 l 1,16,-1
 326 421 l 1,17,-1
 326 0 l 1,18,-1
 289 0 l 1,19,-1
 289 253 l 1,20,-1
 245 253 l 2,21,22
 168 253 168 253 114 306 c 128,-1,23
 60 359 60 359 60 437 c 0,24,25
 60 514 60 514 114 568 c 128,-1,26
 168 622 168 622 245 622 c 2,27,-1
 439 622 l 1,28,-1
 517 627 l 1,29,-1
 531 628 l 1,30,-1
 530 615 l 1,31,-1
 519 614 l 2,32,33
 482 610 482 610 468 598 c 128,-1,34
 454 586 454 586 454 555 c 2,35,-1
 454 -133 l 2,36,37
 454 -162 454 -162 468 -175 c 128,-1,38
 482 -188 482 -188 519 -192 c 2,39,-1
 530 -193 l 1,40,-1
 531 -206 l 1,0,-1
EndSplineSet
EndChar

StartChar: germandbls
Encoding: 223 223 137
Width: 624
Flags: W
LayerCount: 2
Fore
SplineSet
547 177 m 0,0,1
 547 92 547 92 498 40 c 128,-1,2
 449 -12 449 -12 379 -12 c 0,3,4
 333 -12 333 -12 333 20 c 0,5,6
 333 47 333 47 357 47 c 0,7,8
 364 47 364 47 375 42 c 2,9,-1
 387 35 l 2,10,11
 408 25 408 25 417 25 c 0,12,13
 440 25 440 25 456 64 c 128,-1,14
 472 103 472 103 472 163 c 0,15,16
 472 228 472 228 444.5 276 c 128,-1,17
 417 324 417 324 368 334 c 0,18,19
 346 338 346 338 321 338.5 c 128,-1,20
 296 339 296 339 279 339 c 1,21,-1
 279 354 l 1,22,23
 363 354 363 354 405.5 394 c 128,-1,24
 448 434 448 434 448 500 c 0,25,26
 448 558 448 558 417.5 589.5 c 128,-1,27
 387 621 387 621 335 621 c 256,28,29
 283 621 283 621 255 578 c 0,30,31
 224 531 224 531 224 439 c 2,32,-1
 224 68 l 2,33,34
 224 39 224 39 238 26 c 128,-1,35
 252 13 252 13 289 9 c 2,36,-1
 300 8 l 1,37,-1
 301 -5 l 1,38,-1
 287 -4 l 1,39,-1
 209 1 l 1,40,-1
 171 1 l 1,41,-1
 93 -4 l 1,42,-1
 79 -5 l 1,43,-1
 80 8 l 1,44,-1
 91 9 l 2,45,46
 128 13 128 13 142 25 c 128,-1,47
 156 37 156 37 156 68 c 2,48,-1
 156 317 l 1,49,-1
 85 317 l 1,50,-1
 85 345 l 1,51,-1
 156 345 l 1,52,-1
 156 403 l 2,53,54
 156 549 156 549 223 603 c 0,55,56
 265 637 265 637 346 637 c 0,57,58
 425 637 425 637 477.5 597.5 c 128,-1,59
 530 558 530 558 530 503 c 0,60,61
 530 453 530 453 490 413 c 128,-1,62
 450 373 450 373 370 350 c 1,63,64
 453 335 453 335 498 294 c 0,65,66
 547 249 547 249 547 177 c 0,0,1
EndSplineSet
EndChar

StartChar: registered
Encoding: 174 174 138
Width: 752
Flags: W
LayerCount: 2
Fore
SplineSet
702 311 m 256,0,1
 702 176 702 176 606.5 80.5 c 128,-1,2
 511 -15 511 -15 376 -15 c 256,3,4
 241 -15 241 -15 145.5 80.5 c 128,-1,5
 50 176 50 176 50 311 c 256,6,7
 50 446 50 446 145.5 541.5 c 128,-1,8
 241 637 241 637 376 637 c 256,9,10
 511 637 511 637 606.5 541.5 c 128,-1,11
 702 446 702 446 702 311 c 256,0,1
476 396 m 0,12,13
 476 436 476 436 448 464 c 128,-1,14
 420 492 420 492 368 492 c 0,15,16
 339 492 339 492 331.5 488 c 128,-1,17
 324 484 324 484 324 464 c 2,18,-1
 324 303 l 1,19,-1
 380 303 l 1,20,21
 422 310 422 310 447 332 c 0,22,23
 476 357 476 357 476 396 c 0,12,13
675 311 m 0,24,25
 675 434 675 434 587 522 c 128,-1,26
 499 610 499 610 376 610 c 256,27,28
 253 610 253 610 165 522 c 128,-1,29
 77 434 77 434 77 311 c 256,30,31
 77 188 77 188 165 100 c 128,-1,32
 253 12 253 12 376 12 c 0,33,34
 435 12 435 12 486 32.5 c 128,-1,35
 537 53 537 53 580 93 c 1,36,37
 572 97 572 97 547 117 c 0,38,39
 507 150 507 150 447 203 c 0,40,41
 402 243 402 243 358 283 c 1,42,-1
 324 283 l 1,43,-1
 324 174 l 2,44,45
 324 146 324 146 333 135 c 128,-1,46
 342 124 342 124 374 121 c 2,47,-1
 384 120 l 1,48,-1
 385 108 l 1,49,-1
 372 108 l 2,50,51
 345 111 345 111 336 112 c 128,-1,52
 327 113 327 113 311 113 c 2,53,-1
 281 113 l 2,54,55
 267 113 267 113 251.5 111 c 128,-1,56
 236 109 236 109 220 108 c 2,57,-1
 207 108 l 1,58,-1
 208 120 l 1,59,-1
 218 121 l 2,60,61
 249 124 249 124 258.5 135 c 128,-1,62
 268 146 268 146 268 174 c 2,63,-1
 268 448 l 2,64,65
 268 477 268 477 259 487 c 128,-1,66
 250 497 250 497 218 501 c 2,67,-1
 208 502 l 1,68,-1
 207 514 l 1,69,-1
 220 513 l 1,70,-1
 281 509 l 1,71,-1
 288 509 l 2,72,73
 297 509 297 509 306 509 c 0,74,75
 361 512 361 512 388 512 c 0,76,77
 454 512 454 512 493.5 483 c 128,-1,78
 533 454 533 454 533 411 c 0,79,80
 533 370 533 370 507 339 c 128,-1,81
 481 308 481 308 437 292 c 1,82,-1
 570 133 l 2,83,84
 578 125 578 125 582.5 119 c 128,-1,85
 587 113 587 113 591 104 c 1,86,87
 630 144 630 144 652.5 199 c 128,-1,88
 675 254 675 254 675 311 c 0,24,25
EndSplineSet
EndChar

StartChar: copyright
Encoding: 169 169 139
Width: 752
Flags: W
LayerCount: 2
Fore
SplineSet
702 311 m 256,0,1
 702 176 702 176 606.5 80.5 c 128,-1,2
 511 -15 511 -15 376 -15 c 256,3,4
 241 -15 241 -15 145.5 80.5 c 128,-1,5
 50 176 50 176 50 311 c 256,6,7
 50 446 50 446 145.5 541.5 c 128,-1,8
 241 637 241 637 376 637 c 256,9,10
 511 637 511 637 606.5 541.5 c 128,-1,11
 702 446 702 446 702 311 c 256,0,1
675 311 m 256,12,13
 675 434 675 434 587 522 c 128,-1,14
 499 610 499 610 376 610 c 256,15,16
 253 610 253 610 165 522 c 128,-1,17
 77 434 77 434 77 311 c 256,18,19
 77 188 77 188 165 100 c 128,-1,20
 253 12 253 12 376 12 c 256,21,22
 499 12 499 12 587 100 c 128,-1,23
 675 188 675 188 675 311 c 256,12,13
550 230 m 1,24,-1
 539 142 l 1,25,26
 518 127 518 127 478 115.5 c 128,-1,27
 438 104 438 104 399 104 c 0,28,29
 298 104 298 104 230.5 161 c 128,-1,30
 163 218 163 218 163 311 c 0,31,32
 163 401 163 401 230 465 c 128,-1,33
 297 529 297 529 399 529 c 0,34,35
 434 529 434 529 462 520 c 128,-1,36
 490 511 490 511 520 501 c 0,37,38
 529 501 529 501 534 505 c 1,39,-1
 541 417 l 1,40,-1
 528 418 l 1,41,42
 513 466 513 466 479.5 485.5 c 128,-1,43
 446 505 446 505 391 505 c 0,44,45
 317 505 317 505 271 448.5 c 128,-1,46
 225 392 225 392 225 311 c 0,47,48
 225 231 225 231 279 180 c 128,-1,49
 333 129 333 129 407 129 c 0,50,51
 466 129 466 129 493 148 c 0,52,53
 527 171 527 171 533 230 c 1,54,-1
 550 230 l 1,24,-1
EndSplineSet
EndChar

StartChar: trademark
Encoding: 8482 8482 140
Width: 1020
Flags: W
LayerCount: 2
Fore
SplineSet
953 281 m 1,0,-1
 941 282 l 2,1,2
 914 285 914 285 905 286 c 128,-1,3
 896 287 896 287 879 287 c 2,4,-1
 836 287 l 1,5,-1
 836 576 l 1,6,-1
 726 542 l 1,7,-1
 726 348 l 2,8,9
 726 320 726 320 735 309 c 128,-1,10
 744 298 744 298 775 295 c 1,11,-1
 779 281 l 1,12,-1
 773 282 l 2,13,14
 746 285 746 285 737 286 c 128,-1,15
 728 287 728 287 712 287 c 2,16,-1
 682 287 l 2,17,18
 668 287 668 287 652.5 285 c 128,-1,19
 637 283 637 283 621 282 c 2,20,-1
 616 281 l 1,21,-1
 617 295 l 1,22,23
 650 298 650 298 659.5 308.5 c 128,-1,24
 669 319 669 319 669 348 c 2,25,-1
 669 542 l 1,26,-1
 558 576 l 1,27,-1
 558 287 l 1,28,-1
 515 287 l 2,29,30
 505 287 505 287 486 284.5 c 128,-1,31
 467 282 467 282 454 282 c 2,32,-1
 441 281 l 1,33,-1
 442 294 l 1,34,-1
 452 295 l 2,35,36
 483 298 483 298 492.5 309 c 128,-1,37
 502 320 502 320 502 348 c 2,38,-1
 502 562 l 2,39,40
 502 591 502 591 493 601 c 128,-1,41
 484 611 484 611 452 615 c 2,42,-1
 442 616 l 1,43,-1
 441 628 l 1,44,-1
 454 627 l 2,45,46
 474 627 474 627 489 624.5 c 128,-1,47
 504 622 504 622 515 619 c 2,48,-1
 697 567 l 1,49,-1
 879 619 l 2,50,51
 887 622 887 622 903.5 624.5 c 128,-1,52
 920 627 920 627 941 627 c 2,53,-1
 953 628 l 1,54,-1
 952 616 l 1,55,-1
 942 615 l 2,56,57
 910 611 910 611 901.5 601.5 c 128,-1,58
 893 592 893 592 893 562 c 2,59,-1
 893 348 l 2,60,61
 893 320 893 320 902 309 c 128,-1,62
 911 298 911 298 942 295 c 2,63,-1
 952 294 l 1,64,-1
 953 281 l 1,0,-1
421 663 m 1,65,-1
 385 571 l 1,66,-1
 371 571 l 1,67,68
 373 581 373 581 373 582 c 0,69,70
 373 593 373 593 346 593 c 2,71,-1
 244 593 l 1,72,-1
 244 348 l 2,73,74
 244 320 244 320 253 309 c 128,-1,75
 262 298 262 298 293 295 c 2,76,-1
 303 294 l 1,77,-1
 304 281 l 1,78,-1
 292 282 l 2,79,80
 265 285 265 285 256 286 c 128,-1,81
 247 287 247 287 230 287 c 2,82,-1
 201 287 l 2,83,84
 187 287 187 287 171 285 c 128,-1,85
 155 283 155 283 140 282 c 2,86,-1
 127 281 l 1,87,-1
 128 294 l 1,88,-1
 138 295 l 2,89,90
 170 298 170 298 178.5 308.5 c 128,-1,91
 187 319 187 319 187 348 c 2,92,-1
 187 593 l 1,93,-1
 103 593 l 2,94,95
 83 593 83 593 72.5 586 c 128,-1,96
 62 579 62 579 50 553 c 1,97,-1
 36 553 l 1,98,-1
 71 645 l 1,99,-1
 87 645 l 1,100,101
 85 635 85 635 85 634 c 0,102,103
 85 623 85 623 111 623 c 2,104,-1
 355 623 l 2,105,106
 374 623 374 623 384.5 630 c 128,-1,107
 395 637 395 637 408 663 c 1,108,-1
 421 663 l 1,65,-1
EndSplineSet
EndChar

StartChar: acute
Encoding: 180 180 141
Width: 333
Flags: W
LayerCount: 2
Fore
SplineSet
275 626 m 1,0,-1
 132 457 l 1,1,-1
 115 457 l 1,2,-1
 166 626 l 1,3,-1
 275 626 l 1,0,-1
EndSplineSet
EndChar

StartChar: dieresis
Encoding: 168 168 142
Width: 332
Flags: W
LayerCount: 2
Fore
SplineSet
315 513 m 1,0,1
 275 497 275 497 259 457 c 1,2,-1
 252 457 l 1,3,4
 236 497 236 497 196 513 c 1,5,-1
 196 520 l 1,6,7
 236 536 236 536 252 576 c 1,8,-1
 259 576 l 1,9,10
 275 536 275 536 315 520 c 1,11,-1
 315 513 l 1,0,1
129 513 m 1,12,13
 89 497 89 497 73 457 c 1,14,-1
 66 457 l 1,15,16
 50 497 50 497 10 513 c 1,17,-1
 10 520 l 1,18,19
 50 536 50 536 66 576 c 1,20,-1
 73 576 l 1,21,22
 89 536 89 536 129 520 c 1,23,-1
 129 513 l 1,12,13
EndSplineSet
EndChar

StartChar: AE
Encoding: 198 198 144
Width: 904
Flags: W
LayerCount: 2
Fore
SplineSet
817 119 m 1,0,1
 794 77 794 77 785 48 c 0,2,3
 778 15 778 15 773 -4 c 1,4,5
 753 -2 753 -2 740 -2 c 0,6,7
 689 1 689 1 667 1 c 0,8,9
 641 1 641 1 622.5 0 c 128,-1,10
 604 -1 604 -1 586 -6 c 128,-1,11
 568 -11 568 -11 546.5 -22 c 128,-1,12
 525 -33 525 -33 504 -44 c 2,13,-1
 491 -50 l 1,14,-1
 487 -38 l 1,15,-1
 497 -33 l 2,16,17
 540 -9 540 -9 540 17 c 0,18,19
 540 30 540 30 533 47 c 2,20,-1
 494 140 l 1,21,-1
 187 140 l 1,22,-1
 151 45 l 2,23,24
 145 30 145 30 145 17 c 0,25,26
 145 -10 145 -10 190 -33 c 2,27,-1
 200 -38 l 1,28,-1
 197 -50 l 1,29,-1
 184 -45 l 1,30,31
 136 -21 136 -21 113 -12 c 2,32,-1
 105 -9 l 2,33,34
 82 1 82 1 31 14 c 2,35,-1
 17 18 l 1,36,-1
 23 30 l 1,37,-1
 34 27 l 2,38,39
 55 21 55 21 69 21 c 0,40,41
 100 21 100 21 115 59 c 2,42,-1
 303 550 l 2,43,44
 307 562 307 562 307 568 c 0,45,46
 307 585 307 585 292 598 c 128,-1,47
 277 611 277 611 253 613 c 2,48,-1
 242 614 l 1,49,-1
 241 627 l 1,50,-1
 255 626 l 1,51,-1
 333 621 l 1,52,-1
 680 621 l 1,53,-1
 699 513 l 1,54,-1
 685 513 l 1,55,56
 672 563 672 563 658.5 574.5 c 128,-1,57
 645 586 645 586 599 586 c 2,58,-1
 376 588 l 1,59,-1
 474 360 l 1,60,-1
 705 360 l 1,61,-1
 705 328 l 1,62,-1
 488 328 l 1,63,-1
 599 65 l 2,64,65
 611 37 611 37 638 37 c 0,66,67
 709 37 709 37 739 52 c 128,-1,68
 769 67 769 67 800 117 c 1,69,-1
 817 119 l 1,0,1
480 172 m 1,70,-1
 333 520 l 1,71,-1
 199 172 l 1,72,-1
 480 172 l 1,70,-1
EndSplineSet
EndChar

StartChar: Oslash
Encoding: 216 216 145
Width: 876
Flags: W
LayerCount: 2
Fore
SplineSet
798 321 m 0,0,1
 798 184 798 184 695 84.5 c 128,-1,2
 592 -15 592 -15 439 -15 c 0,3,4
 318 -15 318 -15 227 42 c 1,5,-1
 143 -55 l 1,6,-1
 121 -35 l 1,7,-1
 201 59 l 1,8,9
 145 101 145 101 112.5 163.5 c 128,-1,10
 80 226 80 226 80 301 c 0,11,12
 80 438 80 438 181 536 c 0,13,14
 286 637 286 637 439 637 c 0,15,16
 560 637 560 637 651 580 c 1,17,-1
 735 677 l 1,18,-1
 758 657 l 1,19,-1
 676 563 l 1,20,21
 733 521 733 521 765.5 459 c 128,-1,22
 798 397 798 397 798 321 c 0,0,1
729 311 m 0,23,24
 723 371 723 371 699 423 c 128,-1,25
 675 475 675 475 635 515 c 1,26,-1
 265 86 l 1,27,28
 307 52 307 52 358.5 33.5 c 128,-1,29
 410 15 410 15 470 15 c 0,30,31
 587 15 587 15 659 90 c 128,-1,32
 731 165 731 165 731 277 c 0,33,34
 731 285 731 285 731 294 c 0,35,36
 729 306 729 306 729 311 c 0,23,24
612 535 m 1,37,38
 571 570 571 570 520 588.5 c 128,-1,39
 469 607 469 607 408 607 c 0,40,41
 291 607 291 607 219 532 c 128,-1,42
 147 457 147 457 147 345 c 0,43,44
 147 336 147 336 147 328 c 0,45,46
 149 316 149 316 149 311 c 0,47,48
 155 251 155 251 179 199 c 128,-1,49
 203 147 203 147 243 107 c 1,50,-1
 612 535 l 1,37,38
EndSplineSet
EndChar

StartChar: infinity
Encoding: 8734 8734 146
Width: 432
Flags: W
LayerCount: 2
Fore
SplineSet
355 132 m 0,0,1
 355 72 355 72 312.5 28.5 c 128,-1,2
 270 -15 270 -15 204 -15 c 0,3,4
 156 -15 156 -15 118 8 c 0,5,6
 74 34 74 34 58 85 c 1,7,8
 96 104 96 104 141 120 c 0,9,10
 149 122 149 122 161 126 c 1,11,-1
 164 112 l 1,12,-1
 154 107 l 2,13,14
 122 92 122 92 122 73 c 0,15,16
 122 66 122 66 127 56 c 0,17,18
 139 30 139 30 161.5 19 c 128,-1,19
 184 8 184 8 210 8 c 0,20,21
 248 8 248 8 272.5 35.5 c 128,-1,22
 297 63 297 63 297 105 c 0,23,24
 297 115 297 115 296 120 c 0,25,26
 291 167 291 167 263 200 c 0,27,28
 232 236 232 236 189 236 c 0,29,30
 165 236 165 236 144.5 229 c 128,-1,31
 124 222 124 222 108 210 c 1,32,-1
 92 225 l 1,33,-1
 106 442 l 1,34,-1
 257 442 l 2,35,36
 288 442 288 442 300 452 c 128,-1,37
 312 462 312 462 316 497 c 2,38,-1
 317 508 l 1,39,-1
 331 509 l 1,40,-1
 330 495 l 2,41,42
 327 465 327 465 326 455 c 128,-1,43
 325 445 325 445 325 427 c 2,44,-1
 325 403 l 2,45,46
 325 387 325 387 327 369.5 c 128,-1,47
 329 352 329 352 330 335 c 2,48,-1
 331 321 l 1,49,-1
 317 322 l 1,50,-1
 316 333 l 2,51,52
 312 368 312 368 300.5 378 c 128,-1,53
 289 388 289 388 257 388 c 2,54,-1
 138 388 l 1,55,-1
 127 256 l 1,56,57
 163 275 163 275 204 275 c 0,58,59
 268 275 268 275 311.5 234.5 c 128,-1,60
 355 194 355 194 355 132 c 0,0,1
EndSplineSet
EndChar

StartChar: plusminus
Encoding: 177 177 147
Width: 667
Flags: W
LayerCount: 2
Fore
SplineSet
597 375 m 1,0,-1
 359 375 l 1,1,-1
 359 139 l 1,2,-1
 306 139 l 1,3,-1
 306 375 l 1,4,-1
 69 375 l 1,5,-1
 69 427 l 1,6,-1
 306 427 l 1,7,-1
 306 665 l 1,8,-1
 359 665 l 1,9,-1
 359 427 l 1,10,-1
 597 427 l 1,11,-1
 597 375 l 1,0,-1
597 0 m 1,12,-1
 69 0 l 1,13,-1
 69 53 l 1,14,-1
 597 53 l 1,15,-1
 597 0 l 1,12,-1
EndSplineSet
EndChar

StartChar: lessequal
Encoding: 8804 8804 148
Width: 330
Flags: W
LayerCount: 2
Fore
SplineSet
255 65 m 1,0,-1
 237 65 l 1,1,-1
 90 249 l 1,2,-1
 237 435 l 1,3,-1
 255 435 l 1,4,-1
 160 249 l 1,5,-1
 255 65 l 1,0,-1
EndSplineSet
EndChar

StartChar: greaterequal
Encoding: 8805 8805 149
Width: 330
Flags: W
LayerCount: 2
Fore
SplineSet
240 249 m 1,0,-1
 93 65 l 1,1,-1
 75 65 l 1,2,-1
 170 249 l 1,3,-1
 75 435 l 1,4,-1
 93 435 l 1,5,-1
 240 249 l 1,0,-1
EndSplineSet
EndChar

StartChar: yen
Encoding: 165 165 150
Width: 677
Flags: W
LayerCount: 2
Fore
SplineSet
667 627 m 1,0,-1
 666 614 l 1,1,-1
 655 613 l 2,2,3
 618 609 618 609 594.5 590.5 c 128,-1,4
 571 572 571 572 539 521 c 2,5,-1
 491 444 l 1,6,-1
 607 444 l 1,7,-1
 607 391 l 1,8,-1
 457 391 l 1,9,-1
 398 297 l 1,10,-1
 607 297 l 1,11,-1
 607 244 l 1,12,-1
 377 244 l 1,13,-1
 377 68 l 2,14,15
 377 39 377 39 391 26 c 128,-1,16
 405 13 405 13 442 9 c 2,17,-1
 453 8 l 1,18,-1
 454 -5 l 1,19,-1
 440 -4 l 1,20,-1
 362 1 l 1,21,-1
 324 1 l 1,22,-1
 246 -4 l 1,23,-1
 232 -5 l 1,24,-1
 233 8 l 1,25,-1
 244 9 l 2,26,27
 281 13 281 13 295 25 c 128,-1,28
 309 37 309 37 309 68 c 2,29,-1
 309 244 l 1,30,-1
 80 244 l 1,31,-1
 80 297 l 1,32,-1
 276 297 l 1,33,-1
 217 391 l 1,34,-1
 80 391 l 1,35,-1
 80 444 l 1,36,-1
 184 444 l 1,37,-1
 127 534 l 2,38,39
 96 583 96 583 78 596 c 128,-1,40
 60 609 60 609 22 613 c 2,41,-1
 11 614 l 1,42,-1
 10 627 l 1,43,-1
 24 626 l 1,44,-1
 112 621 l 1,45,-1
 150 621 l 1,46,-1
 238 626 l 1,47,-1
 252 627 l 1,48,-1
 251 614 l 1,49,-1
 240 613 l 2,50,51
 209 611 209 611 194 606.5 c 128,-1,52
 179 602 179 602 179 587 c 0,53,54
 179 579 179 579 186 568 c 2,55,-1
 264 444 l 1,56,-1
 446 444 l 1,57,-1
 512 550 l 2,58,59
 522 567 522 567 522 579 c 0,60,61
 522 595 522 595 504 602 c 128,-1,62
 486 609 486 609 457 613 c 2,63,-1
 446 614 l 1,64,-1
 445 627 l 1,65,-1
 459 626 l 1,66,-1
 537 621 l 1,67,-1
 575 621 l 1,68,-1
 653 626 l 1,69,-1
 667 627 l 1,0,-1
413 391 m 1,70,-1
 297 391 l 1,71,-1
 355 298 l 1,72,-1
 413 391 l 1,70,-1
EndSplineSet
EndChar

StartChar: mu
Encoding: 181 181 151
Width: 609
Flags: W
LayerCount: 2
Fore
SplineSet
544 -5 m 1,0,-1
 530 -4 l 2,1,2
 500 -1 500 -1 490 0 c 128,-1,3
 480 1 480 1 462 1 c 2,4,-1
 414 1 l 1,5,-1
 414 61 l 1,6,7
 388 28 388 28 349.5 9 c 128,-1,8
 311 -10 311 -10 270 -10 c 0,9,10
 213 -10 213 -10 176 14 c 1,11,-1
 176 -74 l 2,12,13
 176 -105 176 -105 186 -117 c 128,-1,14
 196 -129 196 -129 231 -133 c 2,15,-1
 242 -134 l 1,16,-1
 243 -148 l 1,17,-1
 229 -147 l 2,18,19
 199 -144 199 -144 189 -143 c 128,-1,20
 179 -142 179 -142 161 -142 c 2,21,-1
 128 -142 l 2,22,23
 112 -142 112 -142 94.5 -144 c 128,-1,24
 77 -146 77 -146 60 -147 c 2,25,-1
 46 -148 l 1,26,-1
 47 -134 l 1,27,-1
 58 -133 l 2,28,29
 93 -129 93 -129 103 -117.5 c 128,-1,30
 113 -106 113 -106 113 -74 c 2,31,-1
 113 373 l 2,32,33
 113 404 113 404 103 416 c 128,-1,34
 93 428 93 428 58 432 c 2,35,-1
 47 433 l 1,36,-1
 46 447 l 1,37,-1
 60 446 l 2,38,39
 90 443 90 443 100 442 c 128,-1,40
 110 441 110 441 128 441 c 2,41,-1
 161 441 l 2,42,43
 177 441 177 441 194.5 443 c 128,-1,44
 212 445 212 445 229 446 c 2,45,-1
 243 447 l 1,46,-1
 242 433 l 1,47,-1
 231 432 l 2,48,49
 196 428 196 428 186 416.5 c 128,-1,50
 176 405 176 405 176 373 c 2,51,-1
 176 169 l 2,52,53
 176 101 176 101 211 65 c 0,54,55
 242 34 242 34 291 34 c 0,56,57
 326 34 326 34 358.5 53 c 128,-1,58
 391 72 391 72 414 105 c 1,59,-1
 414 373 l 2,60,61
 414 404 414 404 404 416 c 128,-1,62
 394 428 394 428 359 432 c 2,63,-1
 348 433 l 1,64,-1
 347 447 l 1,65,-1
 361 446 l 2,66,67
 391 443 391 443 401 442 c 128,-1,68
 411 441 411 441 429 441 c 2,69,-1
 462 441 l 2,70,71
 478 441 478 441 495.5 443 c 128,-1,72
 513 445 513 445 530 446 c 2,73,-1
 544 447 l 1,74,-1
 543 433 l 1,75,-1
 532 432 l 2,76,77
 497 428 497 428 487 416.5 c 128,-1,78
 477 405 477 405 477 373 c 2,79,-1
 477 69 l 2,80,81
 477 38 477 38 487 26 c 128,-1,82
 497 14 497 14 532 10 c 2,83,-1
 543 9 l 1,84,-1
 544 -5 l 1,0,-1
EndSplineSet
EndChar

StartChar: partialdiff
Encoding: 8706 8706 152
Width: 573
Flags: W
LayerCount: 2
Fore
SplineSet
475 314 m 0,0,1
 477 301 477 301 477 287.5 c 128,-1,2
 477 274 477 274 477 261 c 0,3,4
 477 130 477 130 417.5 57.5 c 128,-1,5
 358 -15 358 -15 258 -15 c 0,6,7
 182 -15 182 -15 129 38 c 128,-1,8
 76 91 76 91 76 175 c 0,9,10
 76 257 76 257 128 316 c 128,-1,11
 180 375 180 375 258 375 c 0,12,13
 301 375 301 375 339.5 355 c 128,-1,14
 378 335 378 335 399 300 c 1,15,16
 399 375 399 375 377 441 c 0,17,18
 359 496 359 496 325 547 c 1,19,-1
 208 452 l 1,20,-1
 178 483 l 1,21,-1
 299 581 l 1,22,23
 271 613 271 613 233 634 c 0,24,25
 219 642 219 642 219 649 c 0,26,27
 219 655 219 655 228 655 c 0,28,29
 231 655 231 655 237 653 c 0,30,31
 258 645 258 645 282 632 c 128,-1,32
 306 619 306 619 326 603 c 1,33,-1
 415 675 l 1,34,-1
 445 644 l 1,35,-1
 359 574 l 1,36,37
 407 526 407 526 437.5 460.5 c 128,-1,38
 468 395 468 395 475 314 c 0,0,1
392 180 m 1,39,40
 386 253 386 253 349 301.5 c 128,-1,41
 312 350 312 350 255 350 c 0,42,43
 202 350 202 350 172.5 302 c 128,-1,44
 143 254 143 254 143 180 c 1,45,46
 149 107 149 107 186 59.5 c 128,-1,47
 223 12 223 12 281 12 c 0,48,49
 333 12 333 12 362.5 60 c 128,-1,50
 392 108 392 108 392 180 c 1,39,40
EndSplineSet
EndChar

StartChar: summation
Encoding: 931 931 153
Width: 1033
Flags: W
LayerCount: 2
Fore
SplineSet
1007 90 m 1,0,1
 988 59 988 59 980 36 c 0,2,3
 976 25 976 25 969 -2 c 1,4,-1
 855 1 l 1,5,-1
 731 1 l 1,6,-1
 653 -4 l 1,7,-1
 639 -5 l 1,8,-1
 640 8 l 1,9,-1
 651 9 l 2,10,11
 688 13 688 13 702 25 c 128,-1,12
 716 37 716 37 716 68 c 2,13,-1
 716 296 l 1,14,-1
 350 296 l 1,15,-1
 350 68 l 2,16,17
 350 39 350 39 364 26 c 128,-1,18
 378 13 378 13 415 9 c 2,19,-1
 426 8 l 1,20,-1
 427 -5 l 1,21,-1
 413 -4 l 1,22,-1
 335 1 l 1,23,-1
 297 1 l 1,24,-1
 219 -4 l 1,25,-1
 205 -5 l 1,26,-1
 206 8 l 1,27,-1
 217 9 l 2,28,29
 254 13 254 13 268 25 c 128,-1,30
 282 37 282 37 282 68 c 2,31,-1
 282 751 l 1,32,-1
 111 751 l 2,33,34
 81 751 81 751 64.5 740 c 128,-1,35
 48 729 48 729 28 686 c 1,36,-1
 16 686 l 1,37,-1
 66 825 l 1,38,-1
 81 825 l 1,39,40
 78 814 78 814 78 808 c 0,41,42
 78 797 78 797 87.5 793 c 128,-1,43
 97 789 97 789 124 789 c 2,44,-1
 561 789 l 2,45,46
 591 789 591 789 607.5 800 c 128,-1,47
 624 811 624 811 644 854 c 1,48,-1
 656 854 l 1,49,-1
 606 715 l 1,50,-1
 591 715 l 1,51,52
 594 726 594 726 594 732 c 0,53,54
 594 743 594 743 584.5 747 c 128,-1,55
 575 751 575 751 548 751 c 2,56,-1
 350 751 l 1,57,-1
 350 392 l 1,58,-1
 716 392 l 1,59,-1
 716 554 l 2,60,61
 716 583 716 583 702 596 c 128,-1,62
 688 609 688 609 651 613 c 2,63,-1
 640 614 l 1,64,-1
 639 627 l 1,65,-1
 653 626 l 1,66,-1
 731 621 l 1,67,-1
 769 621 l 1,68,-1
 847 626 l 1,69,-1
 861 627 l 1,70,-1
 860 614 l 1,71,-1
 849 613 l 2,72,73
 812 609 812 609 798 597 c 128,-1,74
 784 585 784 585 784 554 c 2,75,-1
 784 441 l 1,76,-1
 968 440 l 1,77,-1
 985 359 l 1,78,-1
 969 360 l 1,79,80
 960 394 960 394 950.5 402 c 128,-1,81
 941 410 941 410 909 410 c 2,82,-1
 784 412 l 1,83,-1
 784 258 l 1,84,-1
 874 258 l 2,85,86
 886 258 886 258 896 269 c 128,-1,87
 906 280 906 280 911 292 c 1,88,-1
 917 292 l 1,89,90
 930 260 930 260 962 247 c 1,91,-1
 962 241 l 1,92,93
 930 228 930 228 917 196 c 1,94,-1
 911 196 l 1,95,96
 906 208 906 208 896 219 c 128,-1,97
 886 230 886 230 874 230 c 2,98,-1
 784 230 l 1,99,-1
 784 69 l 2,100,101
 784 43 784 43 789 37 c 128,-1,102
 794 31 794 31 818 31 c 2,103,-1
 895 31 l 2,104,105
 933 31 933 31 948 41 c 128,-1,106
 963 51 963 51 985 88 c 1,107,-1
 1007 90 l 1,0,1
716 328 m 1,108,-1
 716 360 l 1,109,-1
 350 360 l 1,110,-1
 350 328 l 1,111,-1
 716 328 l 1,108,-1
EndSplineSet
EndChar

StartChar: product
Encoding: 8719 8719 154
Width: 955
Flags: W
LayerCount: 2
Fore
SplineSet
880 -5 m 1,0,-1
 866 -4 l 1,1,-1
 788 1 l 1,2,-1
 750 1 l 1,3,-1
 672 -4 l 1,4,-1
 658 -5 l 1,5,-1
 659 8 l 1,6,-1
 670 9 l 2,7,8
 707 13 707 13 721 25 c 128,-1,9
 735 37 735 37 735 68 c 2,10,-1
 735 452 l 1,11,12
 676 452 676 452 621.5 463.5 c 128,-1,13
 567 475 567 475 514 500 c 1,14,-1
 514 68 l 2,15,16
 514 39 514 39 528 26 c 128,-1,17
 542 13 542 13 579 9 c 2,18,-1
 590 8 l 1,19,-1
 591 -5 l 1,20,-1
 577 -4 l 1,21,-1
 499 1 l 1,22,-1
 461 1 l 1,23,-1
 383 -4 l 1,24,-1
 369 -5 l 1,25,-1
 370 8 l 1,26,-1
 381 9 l 2,27,28
 418 13 418 13 432 25 c 128,-1,29
 446 37 446 37 446 68 c 2,30,-1
 446 545 l 1,31,32
 406 583 406 583 355 606 c 0,33,34
 293 634 293 634 225 634 c 1,35,-1
 225 68 l 2,36,37
 225 39 225 39 239 26 c 128,-1,38
 253 13 253 13 290 9 c 2,39,-1
 301 8 l 1,40,-1
 302 -5 l 1,41,-1
 288 -4 l 1,42,-1
 210 1 l 1,43,-1
 172 1 l 1,44,-1
 94 -4 l 1,45,-1
 80 -5 l 1,46,-1
 81 8 l 1,47,-1
 92 9 l 2,48,49
 129 13 129 13 143 25 c 128,-1,50
 157 37 157 37 157 68 c 2,51,-1
 157 618 l 2,52,53
 157 648 157 648 145.5 660.5 c 128,-1,54
 134 673 134 673 101 677 c 2,55,-1
 81 679 l 1,56,-1
 80 692 l 1,57,-1
 103 690 l 1,58,-1
 235 680 l 1,59,60
 301 680 301 680 367 651 c 0,61,62
 426 625 426 625 481 579 c 0,63,64
 531 538 531 538 601 518 c 128,-1,65
 671 498 671 498 756 498 c 0,66,67
 780 498 780 498 807.5 500 c 128,-1,68
 835 502 835 502 857 504 c 2,69,-1
 879 505 l 1,70,-1
 878 492 l 1,71,-1
 859 491 l 2,72,73
 827 487 827 487 815 475 c 128,-1,74
 803 463 803 463 803 432 c 2,75,-1
 803 68 l 2,76,77
 803 39 803 39 817 26 c 128,-1,78
 831 13 831 13 868 9 c 2,79,-1
 879 8 l 1,80,-1
 880 -5 l 1,0,-1
EndSplineSet
EndChar

StartChar: pi
Encoding: 960 960 155
Width: 706
Flags: W
LayerCount: 2
Fore
SplineSet
644 -3 m 1,0,-1
 631 -3 l 1,1,-1
 575 1 l 1,2,-1
 548 1 l 1,3,-1
 492 -3 l 1,4,-1
 479 -3 l 1,5,-1
 479 12 l 1,6,-1
 490 12 l 2,7,8
 515 15 515 15 524.5 23.5 c 128,-1,9
 534 32 534 32 534 51 c 2,10,-1
 534 316 l 1,11,12
 490 316 490 316 455.5 323.5 c 128,-1,13
 421 331 421 331 381 346 c 1,14,-1
 381 51 l 2,15,16
 381 31 381 31 390 23 c 128,-1,17
 399 15 399 15 425 12 c 2,18,-1
 436 12 l 1,19,-1
 436 -3 l 1,20,-1
 423 -3 l 1,21,-1
 367 1 l 1,22,-1
 340 1 l 1,23,-1
 284 -3 l 1,24,-1
 270 -3 l 1,25,-1
 271 12 l 1,26,-1
 282 12 l 2,27,28
 307 15 307 15 316.5 23.5 c 128,-1,29
 326 32 326 32 326 51 c 2,30,-1
 326 380 l 1,31,32
 283 415 283 415 246.5 428.5 c 128,-1,33
 210 442 210 442 173 442 c 1,34,-1
 173 51 l 2,35,36
 173 31 173 31 182 23 c 128,-1,37
 191 15 191 15 217 12 c 2,38,-1
 228 12 l 1,39,-1
 228 -3 l 1,40,-1
 215 -3 l 1,41,-1
 159 1 l 1,42,-1
 132 1 l 1,43,-1
 75 -3 l 1,44,-1
 62 -3 l 1,45,-1
 63 12 l 1,46,-1
 74 12 l 2,47,48
 99 15 99 15 108.5 23.5 c 128,-1,49
 118 32 118 32 118 51 c 2,50,-1
 118 436 l 2,51,52
 118 469 118 469 80 474 c 2,53,-1
 63 475 l 1,54,-1
 62 491 l 1,55,-1
 82 489 l 1,56,-1
 177 482 l 2,57,58
 224 482 224 482 271 461 c 0,59,60
 310 444 310 444 354 409 c 0,61,62
 389 381 389 381 439.5 368 c 128,-1,63
 490 355 490 355 552 355 c 0,64,65
 572 355 572 355 593 356.5 c 128,-1,66
 614 358 614 358 625 359 c 2,67,-1
 644 359 l 1,68,-1
 643 344 l 1,69,-1
 626 344 l 2,70,71
 605 341 605 341 597 333 c 128,-1,72
 589 325 589 325 589 305 c 2,73,-1
 589 51 l 2,74,75
 589 31 589 31 598 23 c 128,-1,76
 607 15 607 15 633 12 c 2,77,-1
 644 12 l 1,78,-1
 644 -3 l 1,0,-1
EndSplineSet
EndChar

StartChar: ae
Encoding: 230 230 160
Width: 655
Flags: W
LayerCount: 2
Fore
SplineSet
613 90 m 1,0,1
 594 59 594 59 586 36 c 0,2,3
 582 25 582 25 575 -2 c 1,4,-1
 466 1 l 2,5,6
 453 1 453 1 439.5 0.5 c 128,-1,7
 426 0 426 0 409 -4 c 128,-1,8
 392 -8 392 -8 383 -12 c 128,-1,9
 374 -16 374 -16 349 -31 c 2,10,-1
 337 -38 l 1,11,-1
 332 -24 l 1,12,-1
 342 -19 l 2,13,14
 378 2 378 2 378 23 c 0,15,16
 378 34 378 34 368 57 c 2,17,-1
 350 98 l 1,18,-1
 134 98 l 1,19,-1
 120 64 l 2,20,21
 111 44 111 44 111 31 c 0,22,23
 111 10 111 10 149 -11 c 2,24,-1
 159 -16 l 1,25,-1
 155 -30 l 1,26,-1
 142 -23 l 1,27,-1
 81 7 l 1,28,-1
 78 8 l 1,29,-1
 13 29 l 1,30,-1
 0 33 l 1,31,-1
 6 46 l 1,32,-1
 17 42 l 2,33,34
 33 37 33 37 48 37 c 0,35,36
 64 37 64 37 72.5 45.5 c 128,-1,37
 81 54 81 54 90 76 c 2,38,-1
 211 376 l 2,39,40
 216 389 216 389 216 397 c 0,41,42
 216 412 216 412 203 421 c 128,-1,43
 190 430 190 430 166 432 c 2,44,-1
 155 433 l 1,45,-1
 154 447 l 1,46,-1
 168 446 l 1,47,-1
 236 441 l 1,48,-1
 502 441 l 1,49,-1
 519 359 l 1,50,-1
 503 360 l 1,51,52
 494 394 494 394 484.5 402 c 128,-1,53
 475 410 475 410 443 410 c 2,54,-1
 278 412 l 1,55,-1
 347 258 l 1,56,-1
 510 258 l 1,57,-1
 510 230 l 1,58,-1
 360 230 l 1,59,-1
 430 69 l 2,60,61
 440 48 440 48 455.5 39.5 c 128,-1,62
 471 31 471 31 496 31 c 2,63,-1
 506 31 l 2,64,65
 543 31 543 31 558 42 c 0,66,67
 568 49 568 49 591 88 c 1,68,-1
 613 90 l 1,0,1
336 129 m 1,69,-1
 236 353 l 1,70,-1
 146 129 l 1,71,-1
 336 129 l 1,69,-1
EndSplineSet
EndChar

StartChar: oslash
Encoding: 248 248 161
Width: 653
Flags: W
LayerCount: 2
Fore
SplineSet
588 228 m 0,0,1
 588 128 588 128 513.5 56.5 c 128,-1,2
 439 -15 439 -15 327 -15 c 0,3,4
 247 -15 247 -15 181 21 c 1,5,-1
 120 -54 l 1,6,-1
 101 -35 l 1,7,-1
 158 35 l 1,8,9
 113 66 113 66 89 111.5 c 128,-1,10
 65 157 65 157 65 214 c 0,11,12
 65 313 65 313 140 385 c 128,-1,13
 215 457 215 457 327 457 c 0,14,15
 407 457 407 457 473 421 c 1,16,-1
 534 496 l 1,17,-1
 554 477 l 1,18,-1
 496 406 l 1,19,20
 540 375 540 375 564 329.5 c 128,-1,21
 588 284 588 284 588 228 c 0,0,1
525 221 m 0,22,23
 516 305 516 305 460 362 c 1,24,-1
 214 61 l 1,25,26
 242 39 242 39 275 27.5 c 128,-1,27
 308 16 308 16 348 16 c 0,28,29
 427 16 427 16 476.5 68.5 c 128,-1,30
 526 121 526 121 526 199 c 0,31,32
 526 213 526 213 525 221 c 0,22,23
440 380 m 1,33,34
 382 425 382 425 306 425 c 0,35,36
 226 425 226 425 177 373 c 128,-1,37
 128 321 128 321 128 243 c 0,38,39
 128 229 128 229 129 221 c 0,40,41
 138 136 138 136 194 79 c 1,42,-1
 440 380 l 1,33,34
EndSplineSet
EndChar

StartChar: questiondown
Encoding: 191 191 162
Width: 438
Flags: W
LayerCount: 2
Fore
SplineSet
354 455 m 1,0,1
 333 448 333 448 317 431.5 c 128,-1,2
 301 415 301 415 293 394 c 1,3,-1
 285 394 l 1,4,5
 278 415 278 415 261.5 431 c 128,-1,6
 245 447 245 447 224 455 c 1,7,-1
 224 463 l 1,8,9
 242 470 242 470 257.5 486.5 c 128,-1,10
 273 503 273 503 285 524 c 1,11,-1
 293 524 l 1,12,13
 301 505 301 505 317.5 487.5 c 128,-1,14
 334 470 334 470 354 463 c 1,15,-1
 354 455 l 1,0,1
391 -118 m 1,16,17
 353 -133 353 -133 328.5 -138.5 c 128,-1,18
 304 -144 304 -144 262 -144 c 0,19,20
 174 -144 174 -144 117 -95.5 c 128,-1,21
 60 -47 60 -47 60 32 c 0,22,23
 60 86 60 86 104.5 133.5 c 128,-1,24
 149 181 149 181 213 204 c 0,25,26
 251 219 251 219 261 229.5 c 128,-1,27
 271 240 271 240 274 260 c 2,28,-1
 284 341 l 1,29,-1
 294 341 l 1,30,-1
 311 181 l 1,31,32
 234 181 234 181 184.5 135.5 c 128,-1,33
 135 90 135 90 135 31 c 0,34,35
 135 -27 135 -27 171.5 -73 c 128,-1,36
 208 -119 208 -119 262 -119 c 0,37,38
 321 -119 321 -119 345 -90 c 0,39,40
 362 -69 362 -69 375 -8 c 1,41,-1
 386 -8 l 1,42,43
 386 -76 386 -76 391 -118 c 1,16,17
EndSplineSet
EndChar

StartChar: exclamdown
Encoding: 161 161 163
Width: 300
Flags: W
LayerCount: 2
Fore
SplineSet
200 454 m 1,0,1
 155 437 155 437 139 393 c 1,2,-1
 131 393 l 1,3,4
 114 438 114 438 70 454 c 1,5,-1
 70 462 l 1,6,7
 91 469 91 469 106.5 485 c 128,-1,8
 122 501 122 501 131 523 c 1,9,-1
 139 523 l 1,10,11
 151 501 151 501 165.5 485 c 128,-1,12
 180 469 180 469 200 462 c 1,13,-1
 200 454 l 1,0,1
200 -84 m 1,14,15
 155 -101 155 -101 139 -145 c 1,16,-1
 131 -145 l 1,17,18
 114 -100 114 -100 70 -84 c 1,19,-1
 70 -76 l 1,20,21
 88 -70 88 -70 111 129 c 0,22,23
 131 300 131 300 131 351 c 1,24,-1
 139 351 l 1,25,26
 139 300 139 300 160.5 115.5 c 128,-1,27
 182 -69 182 -69 200 -76 c 1,28,-1
 200 -84 l 1,14,15
EndSplineSet
EndChar

StartChar: logicalnot
Encoding: 172 172 164
Width: 667
Flags: W
LayerCount: 2
Fore
SplineSet
597 177 m 1,0,-1
 545 177 l 1,1,-1
 545 415 l 1,2,-1
 69 415 l 1,3,-1
 69 468 l 1,4,-1
 597 468 l 1,5,-1
 597 177 l 1,0,-1
EndSplineSet
EndChar

StartChar: florin
Encoding: 402 402 166
Width: 500
Flags: W
LayerCount: 2
Fore
SplineSet
534 636 m 1,0,-1
 448 636 l 1,1,2
 448 664 448 664 441.5 675.5 c 128,-1,3
 435 687 435 687 422 687 c 0,4,5
 400 687 400 687 388 664.5 c 128,-1,6
 376 642 376 642 366 586 c 2,7,-1
 340 444 l 1,8,-1
 468 444 l 1,9,-1
 468 412 l 1,10,-1
 334 412 l 1,11,-1
 322 350 l 2,12,13
 295 207 295 207 261 95 c 0,14,15
 219 -40 219 -40 171 -114 c 0,16,17
 115 -200 115 -200 50 -200 c 0,18,19
 24 -200 24 -200 6.5 -185.5 c 128,-1,20
 -11 -171 -11 -171 -11 -147 c 0,21,22
 -11 -129 -11 -129 0 -116 c 128,-1,23
 11 -103 11 -103 28 -103 c 0,24,25
 40 -103 40 -103 50 -112 c 128,-1,26
 60 -121 60 -121 60 -132 c 0,27,28
 60 -138 60 -138 53 -150 c 2,29,-1
 49 -161 l 2,30,31
 49 -170 49 -170 62 -170 c 0,32,33
 106 -170 106 -170 144 -21 c 2,34,-1
 254 412 l 1,35,-1
 150 412 l 1,36,-1
 150 444 l 1,37,-1
 262 444 l 1,38,-1
 287 544 l 2,39,40
 308 626 308 626 345 668.5 c 128,-1,41
 382 711 382 711 430 711 c 0,42,43
 495 711 495 711 502 655 c 1,44,-1
 534 655 l 1,45,-1
 534 636 l 1,0,-1
EndSplineSet
EndChar

StartChar: guillemotleft
Encoding: 171 171 169
Width: 454
Flags: W
LayerCount: 2
Fore
SplineSet
359 83 m 1,0,-1
 342 83 l 1,1,-1
 225 249 l 1,2,-1
 342 418 l 1,3,-1
 359 418 l 1,4,-1
 296 249 l 1,5,-1
 359 83 l 1,0,-1
249 65 m 1,6,-1
 231 65 l 1,7,-1
 84 249 l 1,8,-1
 231 435 l 1,9,-1
 249 435 l 1,10,-1
 154 249 l 1,11,-1
 249 65 l 1,6,-1
EndSplineSet
EndChar

StartChar: guillemotright
Encoding: 187 187 170
Width: 454
Flags: W
LayerCount: 2
Fore
SplineSet
371 249 m 1,0,-1
 223 65 l 1,1,-1
 205 65 l 1,2,-1
 300 249 l 1,3,-1
 205 435 l 1,4,-1
 223 435 l 1,5,-1
 371 249 l 1,0,-1
229 249 m 1,6,-1
 113 83 l 1,7,-1
 95 83 l 1,8,-1
 158 249 l 1,9,-1
 95 418 l 1,10,-1
 113 418 l 1,11,-1
 229 249 l 1,6,-1
EndSplineSet
EndChar

StartChar: ellipsis
Encoding: 8230 8230 171
Width: 900
Flags: W
LayerCount: 2
Fore
SplineSet
800 30 m 1,0,1
 782 23 782 23 766.5 6.5 c 128,-1,2
 751 -10 751 -10 739 -31 c 1,3,-1
 731 -31 l 1,4,5
 723 -12 723 -12 706.5 5.5 c 128,-1,6
 690 23 690 23 670 30 c 1,7,-1
 670 38 l 1,8,9
 691 45 691 45 707 61.5 c 128,-1,10
 723 78 723 78 731 99 c 1,11,-1
 739 99 l 1,12,13
 746 78 746 78 762.5 62 c 128,-1,14
 779 46 779 46 800 38 c 1,15,-1
 800 30 l 1,0,1
500 30 m 1,16,17
 482 23 482 23 466.5 6.5 c 128,-1,18
 451 -10 451 -10 439 -31 c 1,19,-1
 431 -31 l 1,20,21
 423 -12 423 -12 406.5 5.5 c 128,-1,22
 390 23 390 23 370 30 c 1,23,-1
 370 38 l 1,24,25
 391 45 391 45 407 61.5 c 128,-1,26
 423 78 423 78 431 99 c 1,27,-1
 439 99 l 1,28,29
 446 78 446 78 462.5 62 c 128,-1,30
 479 46 479 46 500 38 c 1,31,-1
 500 30 l 1,16,17
200 30 m 1,32,33
 182 23 182 23 166.5 6.5 c 128,-1,34
 151 -10 151 -10 139 -31 c 1,35,-1
 131 -31 l 1,36,37
 123 -12 123 -12 106.5 5.5 c 128,-1,38
 90 23 90 23 70 30 c 1,39,-1
 70 38 l 1,40,41
 91 45 91 45 107 61.5 c 128,-1,42
 123 78 123 78 131 99 c 1,43,-1
 139 99 l 1,44,45
 146 78 146 78 162.5 62 c 128,-1,46
 179 46 179 46 200 38 c 1,47,-1
 200 30 l 1,32,33
EndSplineSet
EndChar

StartChar: OE
Encoding: 338 338 176
Width: 1036
Flags: W
LayerCount: 2
Fore
SplineSet
968 119 m 1,0,1
 945 77 945 77 936 48 c 0,2,3
 929 15 929 15 924 -4 c 1,4,-1
 767 1 l 1,5,-1
 611 1 l 1,6,-1
 532 -4 l 1,7,8
 486 -15 486 -15 439 -15 c 0,9,10
 286 -15 286 -15 185 71 c 0,11,12
 80 160 80 160 80 301 c 0,13,14
 80 438 80 438 181 536 c 0,15,16
 286 637 286 637 439 637 c 0,17,18
 492 637 492 637 540 625 c 1,19,-1
 611 621 l 1,20,-1
 923 621 l 1,21,-1
 942 513 l 1,22,-1
 928 513 l 1,23,24
 915 563 915 563 901.5 574.5 c 128,-1,25
 888 586 888 586 842 586 c 2,26,-1
 664 588 l 1,27,-1
 664 360 l 1,28,-1
 890 360 l 1,29,-1
 890 328 l 1,30,-1
 664 328 l 1,31,-1
 664 94 l 2,32,33
 664 53 664 53 671.5 44.5 c 128,-1,34
 679 36 679 36 715 36 c 2,35,-1
 822 36 l 2,36,37
 875 36 875 36 897 51 c 128,-1,38
 919 66 919 66 951 117 c 1,39,-1
 968 119 l 1,0,1
596 73 m 2,40,-1
 596 549 l 1,41,42
 557 576 557 576 509 591.5 c 128,-1,43
 461 607 461 607 408 607 c 0,44,45
 291 607 291 607 219 532 c 128,-1,46
 147 457 147 457 147 345 c 0,47,48
 147 336 147 336 147 328 c 0,49,50
 149 316 149 316 149 311 c 0,51,52
 162 185 162 185 248 102 c 0,53,54
 338 15 338 15 470 15 c 0,55,56
 539 15 539 15 593 43 c 0,57,58
 593 46 593 46 594.5 57 c 128,-1,59
 596 68 596 68 596 73 c 2,40,-1
EndSplineSet
EndChar

StartChar: oe
Encoding: 339 339 177
Width: 776
Flags: W
LayerCount: 2
Fore
SplineSet
736 90 m 1,0,1
 717 59 717 59 709 36 c 0,2,3
 705 25 705 25 698 -2 c 1,4,-1
 584 1 l 1,5,-1
 465 1 l 1,6,-1
 411 -3 l 1,7,8
 372 -15 372 -15 327 -15 c 0,9,10
 216 -15 216 -15 142 47 c 0,11,12
 65 112 65 112 65 214 c 0,13,14
 65 313 65 313 140 385 c 128,-1,15
 215 457 215 457 327 457 c 0,16,17
 351 457 351 457 373.5 454 c 128,-1,18
 396 451 396 451 418 444 c 1,19,-1
 465 441 l 1,20,-1
 697 441 l 1,21,-1
 714 359 l 1,22,-1
 698 360 l 1,23,24
 689 394 689 394 679.5 402 c 128,-1,25
 670 410 670 410 638 410 c 2,26,-1
 513 412 l 1,27,-1
 513 258 l 1,28,-1
 676 258 l 1,29,-1
 676 230 l 1,30,-1
 513 230 l 1,31,-1
 513 69 l 2,32,33
 513 43 513 43 518 37 c 128,-1,34
 523 31 523 31 547 31 c 2,35,-1
 624 31 l 2,36,37
 662 31 662 31 677 41 c 128,-1,38
 692 51 692 51 714 88 c 1,39,-1
 736 90 l 1,0,1
450 69 m 2,40,-1
 450 371 l 1,41,42
 391 425 391 425 306 425 c 0,43,44
 226 425 226 425 177 373 c 128,-1,45
 128 321 128 321 128 243 c 0,46,47
 128 229 128 229 129 221 c 0,48,49
 138 135 138 135 198.5 75.5 c 128,-1,50
 259 16 259 16 348 16 c 0,51,52
 406 16 406 16 448 44 c 1,53,54
 450 51 450 51 450 69 c 2,40,-1
EndSplineSet
EndChar

StartChar: endash
Encoding: 8211 8211 178
Width: 527
Flags: W
LayerCount: 2
Fore
SplineSet
527 284 m 1,0,-1
 0 284 l 1,1,-1
 0 330 l 1,2,-1
 527 330 l 1,3,-1
 527 284 l 1,0,-1
EndSplineSet
EndChar

StartChar: emdash
Encoding: 8212 8212 179
Width: 827
Flags: W
LayerCount: 2
Fore
SplineSet
827 284 m 1,0,-1
 0 284 l 1,1,-1
 0 330 l 1,2,-1
 827 330 l 1,3,-1
 827 284 l 1,0,-1
EndSplineSet
EndChar

StartChar: quotedblleft
Encoding: 8220 8220 180
Width: 470
Flags: W
LayerCount: 2
Fore
SplineSet
400 568 m 1,0,1
 371 557 371 557 358 540 c 128,-1,2
 345 523 345 523 345 501 c 0,3,4
 345 484 345 484 351.5 467 c 128,-1,5
 358 450 358 450 372 430 c 1,6,-1
 361 422 l 1,7,8
 345 435 345 435 324 474 c 0,9,10
 277 562 277 562 270 568 c 1,11,-1
 270 576 l 1,12,13
 315 593 315 593 331 637 c 1,14,-1
 339 637 l 1,15,16
 356 592 356 592 400 576 c 1,17,-1
 400 568 l 1,0,1
200 568 m 1,18,19
 171 557 171 557 158 540 c 128,-1,20
 145 523 145 523 145 501 c 0,21,22
 145 484 145 484 151.5 467 c 128,-1,23
 158 450 158 450 172 430 c 1,24,-1
 161 422 l 1,25,26
 145 435 145 435 124 474 c 0,27,28
 77 562 77 562 70 568 c 1,29,-1
 70 576 l 1,30,31
 115 593 115 593 131 637 c 1,32,-1
 139 637 l 1,33,34
 156 592 156 592 200 576 c 1,35,-1
 200 568 l 1,18,19
EndSplineSet
EndChar

StartChar: quotedblright
Encoding: 8221 8221 181
Width: 470
Flags: W
LayerCount: 2
Fore
SplineSet
400 568 m 1,0,1
 387 557 387 557 357.5 497 c 128,-1,2
 328 437 328 437 309 422 c 1,3,-1
 298 430 l 1,4,5
 310 447 310 447 317.5 466 c 128,-1,6
 325 485 325 485 325 501 c 0,7,8
 325 523 325 523 312 540 c 128,-1,9
 299 557 299 557 270 568 c 1,10,-1
 270 576 l 1,11,12
 291 583 291 583 307 599.5 c 128,-1,13
 323 616 323 616 331 637 c 1,14,-1
 339 637 l 1,15,16
 346 616 346 616 362.5 600 c 128,-1,17
 379 584 379 584 400 576 c 1,18,-1
 400 568 l 1,0,1
200 568 m 1,19,20
 187 557 187 557 157.5 497 c 128,-1,21
 128 437 128 437 109 422 c 1,22,-1
 98 430 l 1,23,24
 110 447 110 447 117.5 466 c 128,-1,25
 125 485 125 485 125 501 c 0,26,27
 125 523 125 523 112 540 c 128,-1,28
 99 557 99 557 70 568 c 1,29,-1
 70 576 l 1,30,31
 91 583 91 583 107 599.5 c 128,-1,32
 123 616 123 616 131 637 c 1,33,-1
 139 637 l 1,34,35
 146 616 146 616 162.5 600 c 128,-1,36
 179 584 179 584 200 576 c 1,37,-1
 200 568 l 1,19,20
EndSplineSet
EndChar

StartChar: quoteleft
Encoding: 8216 8216 182
Width: 270
Flags: W
LayerCount: 2
Fore
SplineSet
200 568 m 1,0,1
 171 557 171 557 158 540 c 128,-1,2
 145 523 145 523 145 501 c 0,3,4
 145 484 145 484 151.5 467 c 128,-1,5
 158 450 158 450 172 430 c 1,6,-1
 161 422 l 1,7,8
 145 435 145 435 124 474 c 0,9,10
 77 562 77 562 70 568 c 1,11,-1
 70 576 l 1,12,13
 115 593 115 593 131 637 c 1,14,-1
 139 637 l 1,15,16
 156 592 156 592 200 576 c 1,17,-1
 200 568 l 1,0,1
EndSplineSet
EndChar

StartChar: quoteright
Encoding: 8217 8217 183
Width: 270
Flags: W
LayerCount: 2
Fore
SplineSet
200 568 m 1,0,1
 187 557 187 557 157.5 497 c 128,-1,2
 128 437 128 437 109 422 c 1,3,-1
 98 430 l 1,4,5
 110 447 110 447 117.5 466 c 128,-1,6
 125 485 125 485 125 501 c 0,7,8
 125 523 125 523 112 540 c 128,-1,9
 99 557 99 557 70 568 c 1,10,-1
 70 576 l 1,11,12
 91 583 91 583 107 599.5 c 128,-1,13
 123 616 123 616 131 637 c 1,14,-1
 139 637 l 1,15,16
 146 616 146 616 162.5 600 c 128,-1,17
 179 584 179 584 200 576 c 1,18,-1
 200 568 l 1,0,1
EndSplineSet
EndChar

StartChar: divide
Encoding: 247 247 184
Width: 668
Flags: W
LayerCount: 2
Fore
SplineSet
368 525 m 256,0,1
 368 510 368 510 357.5 499.5 c 128,-1,2
 347 489 347 489 333 489 c 0,3,4
 318 489 318 489 307.5 500.5 c 128,-1,5
 297 512 297 512 297 527 c 0,6,7
 297 540 297 540 307.5 549.5 c 128,-1,8
 318 559 318 559 333 559 c 0,9,10
 347 559 347 559 357.5 549.5 c 128,-1,11
 368 540 368 540 368 525 c 256,0,1
598 296 m 1,12,-1
 70 296 l 1,13,-1
 70 347 l 1,14,-1
 598 347 l 1,15,-1
 598 296 l 1,12,-1
368 122 m 0,16,17
 368 108 368 108 358 97.5 c 128,-1,18
 348 87 348 87 333 87 c 256,19,20
 318 87 318 87 307.5 97.5 c 128,-1,21
 297 108 297 108 297 122 c 0,22,23
 297 137 297 137 307 147 c 128,-1,24
 317 157 317 157 333 157 c 0,25,26
 348 157 348 157 358 147 c 128,-1,27
 368 137 368 137 368 122 c 0,16,17
EndSplineSet
EndChar

StartChar: fraction
Encoding: 8725 8725 188
Width: 458
Flags: W
LayerCount: 2
Fore
SplineSet
422 637 m 1,0,-1
 99 -15 l 1,1,-1
 36 -15 l 1,2,-1
 359 637 l 1,3,-1
 422 637 l 1,0,-1
EndSplineSet
EndChar

StartChar: currency
Encoding: 164 164 189
Width: 457
Flags: W
LayerCount: 2
Fore
SplineSet
389 -67 m 1,0,-1
 375 -66 l 1,1,-1
 374 -55 l 2,2,3
 370 -20 370 -20 358.5 -10 c 128,-1,4
 347 0 347 0 315 0 c 2,5,-1
 66 0 l 1,6,-1
 70 17 l 1,7,8
 82 31 82 31 166 120 c 0,9,10
 229 186 229 186 256 227 c 0,11,12
 296 287 296 287 296 336 c 0,13,14
 296 379 296 379 271.5 406.5 c 128,-1,15
 247 434 247 434 205 434 c 0,16,17
 171 434 171 434 148 413 c 128,-1,18
 125 392 125 392 125 364 c 0,19,20
 125 317 125 317 169 309 c 2,21,-1
 179 308 l 1,22,-1
 181 293 l 1,23,24
 152 295 152 295 136 296 c 0,25,26
 94 300 94 300 71 304 c 1,27,28
 71 378 71 378 118 420 c 0,29,30
 159 457 159 457 216 457 c 0,31,32
 278 457 278 457 318.5 426 c 128,-1,33
 359 395 359 395 359 340 c 0,34,35
 359 270 359 270 243 153 c 0,36,37
 192 103 192 103 142 54 c 1,38,-1
 315 54 l 2,39,40
 346 54 346 54 358 64 c 128,-1,41
 370 74 370 74 374 109 c 2,42,-1
 375 120 l 1,43,-1
 389 121 l 1,44,-1
 388 107 l 2,45,46
 385 77 385 77 384 67 c 128,-1,47
 383 57 383 57 383 39 c 2,48,-1
 383 15 l 2,49,50
 383 -1 383 -1 385 -18.5 c 128,-1,51
 387 -36 387 -36 388 -53 c 2,52,-1
 389 -67 l 1,0,-1
EndSplineSet
EndChar

StartChar: guilsinglleft
Encoding: 8249 8249 190
Width: 440
Flags: W
LayerCount: 2
Fore
SplineSet
369 132 m 0,0,1
 369 72 369 72 326.5 28.5 c 128,-1,2
 284 -15 284 -15 219 -15 c 0,3,4
 184 -15 184 -15 157.5 -4.5 c 128,-1,5
 131 6 131 6 107 27 c 0,6,7
 93 39 93 39 81 39 c 0,8,9
 68 39 68 39 48 24 c 2,10,-1
 39 19 l 1,11,-1
 29 28 l 1,12,-1
 39 35 l 1,13,-1
 81 71 l 1,14,-1
 100 90 l 1,15,-1
 138 131 l 1,16,-1
 146 142 l 1,17,-1
 156 131 l 1,18,-1
 149 122 l 2,19,20
 134 104 134 104 134 90 c 0,21,22
 134 83 134 83 143.5 62 c 128,-1,23
 153 41 153 41 176 25 c 128,-1,24
 199 9 199 9 230 9 c 0,25,26
 268 9 268 9 290 43 c 128,-1,27
 312 77 312 77 312 127 c 1,28,29
 308 174 308 174 278 203 c 128,-1,30
 248 232 248 232 208 232 c 0,31,32
 199 232 199 232 190 229 c 0,33,34
 187 228 187 228 181 225 c 1,35,-1
 178 230 l 1,36,37
 229 272 229 272 258 308 c 0,38,39
 291 348 291 348 302 388 c 1,40,-1
 180 388 l 2,41,42
 149 388 149 388 137 378 c 128,-1,43
 125 368 125 368 121 333 c 2,44,-1
 120 322 l 1,45,-1
 106 321 l 1,46,-1
 107 335 l 2,47,48
 110 365 110 365 111 375 c 128,-1,49
 112 385 112 385 112 403 c 2,50,-1
 112 427 l 2,51,52
 112 443 112 443 110 460.5 c 128,-1,53
 108 478 108 478 107 495 c 2,54,-1
 106 509 l 1,55,-1
 120 508 l 1,56,-1
 121 497 l 2,57,58
 125 462 125 462 136.5 452 c 128,-1,59
 148 442 148 442 180 442 c 2,60,-1
 354 442 l 1,61,62
 343 393 343 393 319 348.5 c 128,-1,63
 295 304 295 304 261 270 c 1,64,65
 309 258 309 258 339 220 c 128,-1,66
 369 182 369 182 369 132 c 0,0,1
EndSplineSet
EndChar

StartChar: guilsinglright
Encoding: 8250 8250 191
Width: 470
Flags: W
LayerCount: 2
Fore
SplineSet
381 51 m 1,0,-1
 367 52 l 1,1,-1
 366 63 l 2,2,3
 362 98 362 98 350.5 108 c 128,-1,4
 339 118 339 118 307 118 c 1,5,-1
 306 69 l 2,6,7
 306 38 306 38 316 26 c 128,-1,8
 326 14 326 14 361 10 c 2,9,-1
 372 9 l 1,10,-1
 373 -5 l 1,11,-1
 359 -4 l 2,12,13
 329 -1 329 -1 319 0 c 128,-1,14
 309 1 309 1 291 1 c 2,15,-1
 258 1 l 2,16,17
 242 1 242 1 224.5 -1 c 128,-1,18
 207 -3 207 -3 190 -4 c 2,19,-1
 176 -5 l 1,20,-1
 177 9 l 1,21,-1
 188 10 l 2,22,23
 223 14 223 14 233 25.5 c 128,-1,24
 243 37 243 37 243 69 c 2,25,-1
 243 118 l 1,26,-1
 39 118 l 1,27,-1
 262 441 l 1,28,-1
 291 441 l 2,29,30
 307 441 307 441 324.5 443 c 128,-1,31
 342 445 342 445 359 446 c 2,32,-1
 373 447 l 1,33,-1
 372 433 l 1,34,-1
 361 432 l 2,35,36
 326 428 326 428 316 416.5 c 128,-1,37
 306 405 306 405 306 373 c 2,38,-1
 306 158 l 1,39,40
 338 158 338 158 350 168 c 128,-1,41
 362 178 362 178 366 213 c 2,42,-1
 367 224 l 1,43,-1
 381 225 l 1,44,-1
 380 211 l 2,45,46
 377 181 377 181 376 171 c 128,-1,47
 375 161 375 161 375 143 c 2,48,-1
 375 133 l 2,49,50
 375 117 375 117 377 99.5 c 128,-1,51
 379 82 379 82 380 65 c 2,52,-1
 381 51 l 1,0,-1
243 158 m 1,53,-1
 243 355 l 1,54,-1
 106 158 l 1,55,-1
 243 158 l 1,53,-1
EndSplineSet
EndChar

StartChar: fi
Encoding: 61441 61441 192
Width: 765
Flags: W
LayerCount: 2
Fore
SplineSet
652 561 m 1,0,1
 612 545 612 545 596 505 c 1,2,-1
 589 505 l 1,3,4
 573 545 573 545 533 561 c 1,5,-1
 533 568 l 1,6,7
 573 584 573 584 589 624 c 1,8,-1
 596 624 l 1,9,10
 612 584 612 584 652 568 c 1,11,-1
 652 561 l 1,0,1
691 -5 m 1,12,-1
 677 -4 l 2,13,14
 647 -1 647 -1 637 0 c 128,-1,15
 627 1 627 1 609 1 c 2,16,-1
 576 1 l 2,17,18
 560 1 560 1 542.5 -1 c 128,-1,19
 525 -3 525 -3 508 -4 c 2,20,-1
 494 -5 l 1,21,-1
 495 9 l 1,22,-1
 506 10 l 2,23,24
 541 14 541 14 551 25.5 c 128,-1,25
 561 37 561 37 561 69 c 2,26,-1
 561 373 l 2,27,28
 561 404 561 404 551 416 c 128,-1,29
 541 428 541 428 506 432 c 2,30,-1
 495 433 l 1,31,-1
 494 447 l 1,32,-1
 508 446 l 2,33,34
 538 443 538 443 548 442 c 128,-1,35
 558 441 558 441 576 441 c 2,36,-1
 609 441 l 2,37,38
 625 441 625 441 642.5 443 c 128,-1,39
 660 445 660 445 677 446 c 2,40,-1
 691 447 l 1,41,-1
 690 433 l 1,42,-1
 679 432 l 2,43,44
 644 428 644 428 634 416.5 c 128,-1,45
 624 405 624 405 624 373 c 2,46,-1
 624 69 l 2,47,48
 624 38 624 38 634 26 c 128,-1,49
 644 14 644 14 679 10 c 2,50,-1
 690 9 l 1,51,-1
 691 -5 l 1,12,-1
396 359 m 1,52,-1
 380 360 l 1,53,54
 371 394 371 394 361.5 402 c 128,-1,55
 352 410 352 410 320 410 c 2,56,-1
 195 412 l 1,57,-1
 195 258 l 1,58,-1
 358 258 l 1,59,-1
 358 230 l 1,60,-1
 195 230 l 1,61,-1
 195 69 l 2,62,63
 195 38 195 38 205 26 c 128,-1,64
 215 14 215 14 250 10 c 2,65,-1
 261 9 l 1,66,-1
 262 -5 l 1,67,-1
 248 -4 l 2,68,69
 218 -1 218 -1 208 0 c 128,-1,70
 198 1 198 1 180 1 c 2,71,-1
 147 1 l 2,72,73
 131 1 131 1 113.5 -1 c 128,-1,74
 96 -3 96 -3 79 -4 c 2,75,-1
 65 -5 l 1,76,-1
 66 9 l 1,77,-1
 77 10 l 2,78,79
 112 14 112 14 122 25.5 c 128,-1,80
 132 37 132 37 132 69 c 2,81,-1
 132 373 l 2,82,83
 132 404 132 404 122 416 c 128,-1,84
 112 428 112 428 77 432 c 2,85,-1
 66 433 l 1,86,-1
 65 447 l 1,87,-1
 79 446 l 2,88,89
 109 443 109 443 119 442 c 128,-1,90
 129 441 129 441 147 441 c 2,91,-1
 379 441 l 1,92,-1
 396 359 l 1,52,-1
EndSplineSet
EndChar

StartChar: fl
Encoding: 61442 61442 193
Width: 872
Flags: W
LayerCount: 2
Fore
SplineSet
863 108 m 1,0,1
 837 74 837 74 821 43 c 0,2,3
 809 20 809 20 803 -3 c 1,4,-1
 601 1 l 1,5,-1
 567 1 l 2,6,7
 551 1 551 1 533.5 -1 c 128,-1,8
 516 -3 516 -3 499 -4 c 2,9,-1
 485 -5 l 1,10,-1
 486 9 l 1,11,-1
 497 10 l 2,12,13
 532 14 532 14 542 25.5 c 128,-1,14
 552 37 552 37 552 69 c 2,15,-1
 552 373 l 2,16,17
 552 404 552 404 542 416 c 128,-1,18
 532 428 532 428 497 432 c 2,19,-1
 486 433 l 1,20,-1
 485 447 l 1,21,-1
 499 446 l 2,22,23
 529 443 529 443 539 442 c 128,-1,24
 549 441 549 441 567 441 c 2,25,-1
 600 441 l 2,26,27
 616 441 616 441 633.5 443 c 128,-1,28
 651 445 651 445 668 446 c 2,29,-1
 682 447 l 1,30,-1
 681 433 l 1,31,-1
 670 432 l 2,32,33
 635 428 635 428 625 416.5 c 128,-1,34
 615 405 615 405 615 373 c 2,35,-1
 615 69 l 2,36,37
 615 43 615 43 620 37 c 128,-1,38
 625 31 625 31 649 31 c 2,39,-1
 723 31 l 2,40,41
 762 31 762 31 776 38 c 128,-1,42
 790 45 790 45 816 78 c 2,43,-1
 840 108 l 1,44,-1
 863 108 l 1,0,1
396 359 m 1,45,-1
 380 360 l 1,46,47
 371 394 371 394 361.5 402 c 128,-1,48
 352 410 352 410 320 410 c 2,49,-1
 195 412 l 1,50,-1
 195 258 l 1,51,-1
 358 258 l 1,52,-1
 358 230 l 1,53,-1
 195 230 l 1,54,-1
 195 69 l 2,55,56
 195 38 195 38 205 26 c 128,-1,57
 215 14 215 14 250 10 c 2,58,-1
 261 9 l 1,59,-1
 262 -5 l 1,60,-1
 248 -4 l 2,61,62
 218 -1 218 -1 208 0 c 128,-1,63
 198 1 198 1 180 1 c 2,64,-1
 147 1 l 2,65,66
 131 1 131 1 113.5 -1 c 128,-1,67
 96 -3 96 -3 79 -4 c 2,68,-1
 65 -5 l 1,69,-1
 66 9 l 1,70,-1
 77 10 l 2,71,72
 112 14 112 14 122 25.5 c 128,-1,73
 132 37 132 37 132 69 c 2,74,-1
 132 373 l 2,75,76
 132 404 132 404 122 416 c 128,-1,77
 112 428 112 428 77 432 c 2,78,-1
 66 433 l 1,79,-1
 65 447 l 1,80,-1
 79 446 l 2,81,82
 109 443 109 443 119 442 c 128,-1,83
 129 441 129 441 147 441 c 2,84,-1
 379 441 l 1,85,-1
 396 359 l 1,45,-1
EndSplineSet
EndChar

StartChar: daggerdbl
Encoding: 8225 8225 194
Width: 412
Flags: W
LayerCount: 2
Fore
SplineSet
371 442 m 1,0,-1
 264 226 l 2,1,2
 207 115 207 115 175.5 68 c 128,-1,3
 144 21 144 21 111 -4 c 0,4,5
 99 -15 99 -15 89 -15 c 0,6,7
 83 -15 83 -15 84 -9 c 0,8,9
 86 -2 86 -2 97 11 c 0,10,11
 119 33 119 33 141 75 c 0,12,13
 173 134 173 134 216 241 c 2,14,-1
 276 388 l 1,15,-1
 116 388 l 2,16,17
 85 388 85 388 73 378 c 128,-1,18
 61 368 61 368 57 333 c 2,19,-1
 56 322 l 1,20,-1
 42 321 l 1,21,-1
 43 335 l 2,22,23
 46 365 46 365 47 375 c 128,-1,24
 48 385 48 385 48 403 c 2,25,-1
 48 442 l 1,26,-1
 371 442 l 1,0,-1
EndSplineSet
EndChar

StartChar: periodcentered
Encoding: 183 183 195
AltUni2: 002219.ffffffff.0
Width: 443
Flags: W
LayerCount: 2
Fore
SplineSet
363 219 m 0,0,1
 354 127 354 127 302 58 c 0,2,3
 255 -3 255 -3 190 -26 c 0,4,5
 186 -28 186 -28 180 -28 c 0,6,7
 170 -28 170 -28 170 -21 c 256,8,9
 170 -14 170 -14 185 -6 c 0,10,11
 232 19 232 19 262 75 c 128,-1,12
 292 131 292 131 301 217 c 1,13,14
 263 172 263 172 204 172 c 256,15,16
 145 172 145 172 107.5 214.5 c 128,-1,17
 70 257 70 257 70 318 c 0,18,19
 70 380 70 380 108.5 418.5 c 128,-1,20
 147 457 147 457 204 457 c 0,21,22
 276 457 276 457 320.5 404 c 128,-1,23
 365 351 365 351 365 257 c 0,24,25
 365 245 365 245 365 234 c 0,26,27
 363 223 363 223 363 219 c 0,0,1
297 314 m 1,28,29
 297 366 297 366 277 399 c 128,-1,30
 257 432 257 432 220 432 c 0,31,32
 181 432 181 432 155 398 c 128,-1,33
 129 364 129 364 124 314 c 1,34,35
 124 263 124 263 144 229.5 c 128,-1,36
 164 196 164 196 201 196 c 0,37,38
 240 196 240 196 266 230 c 128,-1,39
 292 264 292 264 297 314 c 1,28,29
EndSplineSet
EndChar

StartChar: quotesinglbase
Encoding: 8218 8218 196
Width: 469
Flags: W
LayerCount: 2
Fore
SplineSet
392 228 m 0,0,1
 392 128 392 128 347 56.5 c 128,-1,2
 302 -15 302 -15 235 -15 c 0,3,4
 167 -15 167 -15 122 48 c 128,-1,5
 77 111 77 111 77 214 c 0,6,7
 77 313 77 313 122.5 385 c 128,-1,8
 168 457 168 457 235 457 c 256,9,10
 302 457 302 457 347 393.5 c 128,-1,11
 392 330 392 330 392 228 c 0,0,1
336 221 m 0,12,13
 336 306 336 306 304 365.5 c 128,-1,14
 272 425 272 425 224 425 c 0,15,16
 181 425 181 425 156.5 366.5 c 128,-1,17
 132 308 132 308 132 221 c 0,18,19
 132 137 132 137 165 76.5 c 128,-1,20
 198 16 198 16 246 16 c 0,21,22
 289 16 289 16 312.5 74.5 c 128,-1,23
 336 133 336 133 336 221 c 0,12,13
EndSplineSet
EndChar

StartChar: quotedblbase
Encoding: 8222 8222 197
Width: 470
Flags: W
LayerCount: 2
Fore
SplineSet
400 30 m 1,0,1
 387 19 387 19 357.5 -41 c 128,-1,2
 328 -101 328 -101 309 -116 c 1,3,-1
 298 -108 l 1,4,5
 310 -91 310 -91 317.5 -72 c 128,-1,6
 325 -53 325 -53 325 -37 c 0,7,8
 325 -15 325 -15 312 2 c 128,-1,9
 299 19 299 19 270 30 c 1,10,-1
 270 38 l 1,11,12
 291 45 291 45 307 61.5 c 128,-1,13
 323 78 323 78 331 99 c 1,14,-1
 339 99 l 1,15,16
 346 78 346 78 362.5 62 c 128,-1,17
 379 46 379 46 400 38 c 1,18,-1
 400 30 l 1,0,1
200 30 m 1,19,20
 187 19 187 19 157.5 -41 c 128,-1,21
 128 -101 128 -101 109 -116 c 1,22,-1
 98 -108 l 1,23,24
 110 -91 110 -91 117.5 -72 c 128,-1,25
 125 -53 125 -53 125 -37 c 0,26,27
 125 -15 125 -15 112 2 c 128,-1,28
 99 19 99 19 70 30 c 1,29,-1
 70 38 l 1,30,31
 91 45 91 45 107 61.5 c 128,-1,32
 123 78 123 78 131 99 c 1,33,-1
 139 99 l 1,34,35
 146 78 146 78 162.5 62 c 128,-1,36
 179 46 179 46 200 38 c 1,37,-1
 200 30 l 1,19,20
EndSplineSet
EndChar

StartChar: perthousand
Encoding: 8240 8240 198
Width: 1086
Flags: W
LayerCount: 2
Fore
SplineSet
1028 134 m 0,0,1
 1028 74 1028 74 984.5 29.5 c 128,-1,2
 941 -15 941 -15 877 -15 c 0,3,4
 812 -15 812 -15 769 23.5 c 128,-1,5
 726 62 726 62 726 126 c 0,6,7
 726 187 726 187 769.5 230.5 c 128,-1,8
 813 274 813 274 877 274 c 256,9,10
 941 274 941 274 984.5 235.5 c 128,-1,11
 1028 197 1028 197 1028 134 c 0,0,1
966 130 m 0,12,13
 966 181 966 181 938 216 c 128,-1,14
 910 251 910 251 868 251 c 0,15,16
 830 251 830 251 808.5 216.5 c 128,-1,17
 787 182 787 182 787 130 c 1,18,19
 793 76 793 76 819.5 41.5 c 128,-1,20
 846 7 846 7 887 7 c 0,21,22
 922 7 922 7 944.5 37.5 c 128,-1,23
 967 68 967 68 967 114 c 0,24,25
 966 125 966 125 966 130 c 0,12,13
378 497 m 0,26,27
 378 437 378 437 334.5 392.5 c 128,-1,28
 291 348 291 348 227 348 c 0,29,30
 162 348 162 348 119 386.5 c 128,-1,31
 76 425 76 425 76 489 c 0,32,33
 76 550 76 550 119.5 593.5 c 128,-1,34
 163 637 163 637 227 637 c 256,35,36
 291 637 291 637 334.5 598.5 c 128,-1,37
 378 560 378 560 378 497 c 0,26,27
641 654 m 1,38,-1
 155 -27 l 1,39,-1
 114 -27 l 1,40,-1
 600 654 l 1,41,-1
 641 654 l 1,38,-1
678 134 m 0,42,43
 678 74 678 74 634.5 29.5 c 128,-1,44
 591 -15 591 -15 527 -15 c 0,45,46
 462 -15 462 -15 419 23.5 c 128,-1,47
 376 62 376 62 376 126 c 0,48,49
 376 187 376 187 419.5 230.5 c 128,-1,50
 463 274 463 274 527 274 c 256,51,52
 591 274 591 274 634.5 235.5 c 128,-1,53
 678 197 678 197 678 134 c 0,42,43
316 493 m 0,54,55
 316 544 316 544 288 579 c 128,-1,56
 260 614 260 614 218 614 c 0,57,58
 180 614 180 614 158.5 579.5 c 128,-1,59
 137 545 137 545 137 493 c 1,60,61
 143 439 143 439 169.5 404.5 c 128,-1,62
 196 370 196 370 237 370 c 0,63,64
 272 370 272 370 294.5 400.5 c 128,-1,65
 317 431 317 431 317 477 c 0,66,67
 316 488 316 488 316 493 c 0,54,55
616 130 m 0,68,69
 616 181 616 181 588 216 c 128,-1,70
 560 251 560 251 518 251 c 0,71,72
 480 251 480 251 458.5 216.5 c 128,-1,73
 437 182 437 182 437 130 c 1,74,75
 443 76 443 76 469.5 41.5 c 128,-1,76
 496 7 496 7 537 7 c 0,77,78
 572 7 572 7 594.5 37.5 c 128,-1,79
 617 68 617 68 617 114 c 0,80,81
 616 125 616 125 616 130 c 0,68,69
EndSplineSet
EndChar

StartChar: Iacute
Encoding: 205 205 204
Width: 402
Flags: W
LayerCount: 2
Fore
SplineSet
312 -5 m 1,0,-1
 298 -4 l 1,1,-1
 220 1 l 1,2,-1
 182 1 l 1,3,-1
 104 -4 l 1,4,-1
 90 -5 l 1,5,-1
 91 8 l 1,6,-1
 102 9 l 2,7,8
 139 13 139 13 153 25 c 128,-1,9
 167 37 167 37 167 68 c 2,10,-1
 167 554 l 2,11,12
 167 583 167 583 153 596 c 128,-1,13
 139 609 139 609 102 613 c 2,14,-1
 91 614 l 1,15,-1
 90 627 l 1,16,-1
 104 626 l 1,17,-1
 182 621 l 1,18,-1
 220 621 l 1,19,-1
 298 626 l 1,20,-1
 312 627 l 1,21,-1
 311 614 l 1,22,-1
 300 613 l 2,23,24
 263 609 263 609 249 597 c 128,-1,25
 235 585 235 585 235 554 c 2,26,-1
 235 68 l 2,27,28
 235 39 235 39 249 26 c 128,-1,29
 263 13 263 13 300 9 c 2,30,-1
 311 8 l 1,31,-1
 312 -5 l 1,0,-1
330 876 m 1,32,-1
 187 707 l 1,33,-1
 170 707 l 1,34,-1
 221 876 l 1,35,-1
 330 876 l 1,32,-1
EndSplineSet
EndChar

StartChar: Icircumflex
Encoding: 206 206 205
Width: 402
Flags: W
LayerCount: 2
Fore
SplineSet
312 -5 m 1,0,-1
 298 -4 l 1,1,-1
 220 1 l 1,2,-1
 182 1 l 1,3,-1
 104 -4 l 1,4,-1
 90 -5 l 1,5,-1
 91 8 l 1,6,-1
 102 9 l 2,7,8
 139 13 139 13 153 25 c 128,-1,9
 167 37 167 37 167 68 c 2,10,-1
 167 554 l 2,11,12
 167 583 167 583 153 596 c 128,-1,13
 139 609 139 609 102 613 c 2,14,-1
 91 614 l 1,15,-1
 90 627 l 1,16,-1
 104 626 l 1,17,-1
 182 621 l 1,18,-1
 220 621 l 1,19,-1
 298 626 l 1,20,-1
 312 627 l 1,21,-1
 311 614 l 1,22,-1
 300 613 l 2,23,24
 263 609 263 609 249 597 c 128,-1,25
 235 585 235 585 235 554 c 2,26,-1
 235 68 l 2,27,28
 235 39 235 39 249 26 c 128,-1,29
 263 13 263 13 300 9 c 2,30,-1
 311 8 l 1,31,-1
 312 -5 l 1,0,-1
335 708 m 1,32,-1
 320 708 l 1,33,-1
 198 821 l 1,34,-1
 75 708 l 1,35,-1
 60 708 l 1,36,-1
 152 869 l 1,37,-1
 242 869 l 1,38,-1
 335 708 l 1,32,-1
EndSplineSet
EndChar

StartChar: Idieresis
Encoding: 207 207 206
Width: 402
Flags: W
LayerCount: 2
Fore
SplineSet
312 -5 m 1,0,-1
 298 -4 l 1,1,-1
 220 1 l 1,2,-1
 182 1 l 1,3,-1
 104 -4 l 1,4,-1
 90 -5 l 1,5,-1
 91 8 l 1,6,-1
 102 9 l 2,7,8
 139 13 139 13 153 25 c 128,-1,9
 167 37 167 37 167 68 c 2,10,-1
 167 554 l 2,11,12
 167 583 167 583 153 596 c 128,-1,13
 139 609 139 609 102 613 c 2,14,-1
 91 614 l 1,15,-1
 90 627 l 1,16,-1
 104 626 l 1,17,-1
 182 621 l 1,18,-1
 220 621 l 1,19,-1
 298 626 l 1,20,-1
 312 627 l 1,21,-1
 311 614 l 1,22,-1
 300 613 l 2,23,24
 263 609 263 609 249 597 c 128,-1,25
 235 585 235 585 235 554 c 2,26,-1
 235 68 l 2,27,28
 235 39 235 39 249 26 c 128,-1,29
 263 13 263 13 300 9 c 2,30,-1
 311 8 l 1,31,-1
 312 -5 l 1,0,-1
357 765 m 1,32,33
 317 749 317 749 301 709 c 1,34,-1
 294 709 l 1,35,36
 278 749 278 749 238 765 c 1,37,-1
 238 772 l 1,38,39
 278 788 278 788 294 828 c 1,40,-1
 301 828 l 1,41,42
 317 788 317 788 357 772 c 1,43,-1
 357 765 l 1,32,33
171 765 m 1,44,45
 131 749 131 749 115 709 c 1,46,-1
 108 709 l 1,47,48
 92 749 92 749 52 765 c 1,49,-1
 52 772 l 1,50,51
 92 788 92 788 108 828 c 1,52,-1
 115 828 l 1,53,54
 131 788 131 788 171 772 c 1,55,-1
 171 765 l 1,44,45
EndSplineSet
EndChar

StartChar: Igrave
Encoding: 204 204 207
Width: 402
Flags: W
LayerCount: 2
Fore
SplineSet
312 -5 m 1,0,-1
 298 -4 l 1,1,-1
 220 1 l 1,2,-1
 182 1 l 1,3,-1
 104 -4 l 1,4,-1
 90 -5 l 1,5,-1
 91 8 l 1,6,-1
 102 9 l 2,7,8
 139 13 139 13 153 25 c 128,-1,9
 167 37 167 37 167 68 c 2,10,-1
 167 554 l 2,11,12
 167 583 167 583 153 596 c 128,-1,13
 139 609 139 609 102 613 c 2,14,-1
 91 614 l 1,15,-1
 90 627 l 1,16,-1
 104 626 l 1,17,-1
 182 621 l 1,18,-1
 220 621 l 1,19,-1
 298 626 l 1,20,-1
 312 627 l 1,21,-1
 311 614 l 1,22,-1
 300 613 l 2,23,24
 263 609 263 609 249 597 c 128,-1,25
 235 585 235 585 235 554 c 2,26,-1
 235 68 l 2,27,28
 235 39 235 39 249 26 c 128,-1,29
 263 13 263 13 300 9 c 2,30,-1
 311 8 l 1,31,-1
 312 -5 l 1,0,-1
210 707 m 1,32,-1
 193 707 l 1,33,-1
 50 876 l 1,34,-1
 159 876 l 1,35,-1
 210 707 l 1,32,-1
EndSplineSet
EndChar

StartChar: dotlessi
Encoding: 305 305 215
Width: 345
Flags: W
LayerCount: 2
Fore
SplineSet
271 -5 m 1,0,-1
 257 -4 l 2,1,2
 227 -1 227 -1 217 0 c 128,-1,3
 207 1 207 1 189 1 c 2,4,-1
 156 1 l 2,5,6
 140 1 140 1 122.5 -1 c 128,-1,7
 105 -3 105 -3 88 -4 c 2,8,-1
 74 -5 l 1,9,-1
 75 9 l 1,10,-1
 86 10 l 2,11,12
 121 14 121 14 131 25.5 c 128,-1,13
 141 37 141 37 141 69 c 2,14,-1
 141 373 l 2,15,16
 141 404 141 404 131 416 c 128,-1,17
 121 428 121 428 86 432 c 2,18,-1
 75 433 l 1,19,-1
 74 447 l 1,20,-1
 88 446 l 2,21,22
 118 443 118 443 128 442 c 128,-1,23
 138 441 138 441 156 441 c 2,24,-1
 189 441 l 2,25,26
 205 441 205 441 222.5 443 c 128,-1,27
 240 445 240 445 257 446 c 2,28,-1
 271 447 l 1,29,-1
 270 433 l 1,30,-1
 259 432 l 2,31,32
 224 428 224 428 214 416.5 c 128,-1,33
 204 405 204 405 204 373 c 2,34,-1
 204 69 l 2,35,36
 204 38 204 38 214 26 c 128,-1,37
 224 14 224 14 259 10 c 2,38,-1
 270 9 l 1,39,-1
 271 -5 l 1,0,-1
EndSplineSet
EndChar

StartChar: circumflex
Encoding: 710 710 216
Width: 333
Flags: W
LayerCount: 2
Fore
SplineSet
304 457 m 1,0,-1
 289 457 l 1,1,-1
 167 570 l 1,2,-1
 44 457 l 1,3,-1
 29 457 l 1,4,-1
 121 618 l 1,5,-1
 211 618 l 1,6,-1
 304 457 l 1,0,-1
EndSplineSet
EndChar

StartChar: tilde
Encoding: 732 732 217
Width: 333
Flags: W
LayerCount: 2
Fore
SplineSet
303 564 m 1,0,1
 303 515 303 515 281 491 c 128,-1,2
 259 467 259 467 223 467 c 0,3,4
 199 467 199 467 177 478 c 0,5,6
 175 479 175 479 140 500 c 0,7,8
 123 510 123 510 113 514.5 c 128,-1,9
 103 519 103 519 94 519 c 0,10,11
 77 519 77 519 64 506 c 128,-1,12
 51 493 51 493 51 467 c 1,13,-1
 31 467 l 1,14,15
 31 509 31 509 51 536.5 c 128,-1,16
 71 564 71 564 112 564 c 0,17,18
 129 564 129 564 147 556 c 0,19,20
 159 551 159 551 185 534 c 0,21,22
 202 523 202 523 214 517 c 128,-1,23
 226 511 226 511 238 511 c 0,24,25
 256 511 256 511 269.5 524.5 c 128,-1,26
 283 538 283 538 283 564 c 1,27,-1
 303 564 l 1,0,1
EndSplineSet
EndChar

StartChar: macron
Encoding: 175 175 218
Width: 333
Flags: W
LayerCount: 2
Fore
SplineSet
322 479 m 1,0,-1
 11 479 l 1,1,-1
 11 542 l 1,2,-1
 322 542 l 1,3,-1
 322 479 l 1,0,-1
EndSplineSet
EndChar

StartChar: breve
Encoding: 728 728 219
Width: 333
Flags: W
LayerCount: 2
Fore
SplineSet
306 597 m 1,0,1
 306 538 306 538 265.5 499.5 c 128,-1,2
 225 461 225 461 166 461 c 0,3,4
 109 461 109 461 70.5 498.5 c 128,-1,5
 32 536 32 536 27 597 c 1,6,-1
 42 597 l 1,7,8
 76 534 76 534 167 534 c 0,9,10
 267 534 267 534 290 597 c 1,11,-1
 306 597 l 1,0,1
EndSplineSet
EndChar

StartChar: dotaccent
Encoding: 729 729 220
Width: 302
Flags: W
LayerCount: 2
Fore
SplineSet
204 494 m 0,0,1
 204 479 204 479 194 468 c 128,-1,2
 184 457 184 457 166 457 c 0,3,4
 151 457 151 457 140 468 c 128,-1,5
 129 479 129 479 129 494 c 256,6,7
 129 509 129 509 139.5 520.5 c 128,-1,8
 150 532 150 532 166 532 c 256,9,10
 182 532 182 532 193 521 c 128,-1,11
 204 510 204 510 204 494 c 0,0,1
EndSplineSet
EndChar

StartChar: ring
Encoding: 730 730 221
Width: 333
Flags: W
LayerCount: 2
Fore
SplineSet
257 550 m 0,0,1
 257 511 257 511 230 484 c 128,-1,2
 203 457 203 457 164 457 c 256,3,4
 125 457 125 457 97.5 484.5 c 128,-1,5
 70 512 70 512 70 550 c 0,6,7
 70 589 70 589 97.5 616.5 c 128,-1,8
 125 644 125 644 164 644 c 256,9,10
 203 644 203 644 230 617 c 128,-1,11
 257 590 257 590 257 550 c 0,0,1
223 550 m 256,12,13
 223 574 223 574 206 592 c 128,-1,14
 189 610 189 610 164 610 c 256,15,16
 139 610 139 610 121.5 592.5 c 128,-1,17
 104 575 104 575 104 550 c 256,18,19
 104 525 104 525 121 508 c 128,-1,20
 138 491 138 491 164 491 c 0,21,22
 188 491 188 491 205.5 508.5 c 128,-1,23
 223 526 223 526 223 550 c 256,12,13
EndSplineSet
EndChar

StartChar: cedilla
Encoding: 184 184 222
Width: 333
Flags: W
LayerCount: 2
Fore
SplineSet
258 -125 m 0,0,1
 258 -159 258 -159 231 -184 c 128,-1,2
 204 -209 204 -209 163 -209 c 0,3,4
 148 -209 148 -209 136.5 -205.5 c 128,-1,5
 125 -202 125 -202 105 -193 c 1,6,-1
 114 -174 l 1,7,8
 123 -180 123 -180 137.5 -183 c 128,-1,9
 152 -186 152 -186 166 -186 c 0,10,11
 186 -186 186 -186 202.5 -168.5 c 128,-1,12
 219 -151 219 -151 219 -132 c 256,13,14
 219 -113 219 -113 203.5 -100.5 c 128,-1,15
 188 -88 188 -88 166 -88 c 0,16,17
 154 -88 154 -88 144 -91.5 c 128,-1,18
 134 -95 134 -95 125 -101 c 2,19,-1
 104 -114 l 1,20,-1
 198 5 l 1,21,-1
 234 5 l 1,22,-1
 198 -48 l 1,23,24
 225 -58 225 -58 241.5 -78.5 c 128,-1,25
 258 -99 258 -99 258 -125 c 0,0,1
EndSplineSet
EndChar

StartChar: hungarumlaut
Encoding: 698 698 223
Width: 333
Flags: W
LayerCount: 2
Fore
SplineSet
312 612 m 1,0,-1
 310 604 l 1,1,2
 277 592 277 592 209 433 c 1,3,-1
 201 433 l 1,4,5
 205 462 205 462 210.5 498 c 128,-1,6
 216 534 216 534 216 561 c 0,7,8
 216 597 216 597 200 604 c 1,9,-1
 202 612 l 1,10,11
 221 619 221 619 239 636 c 128,-1,12
 257 653 257 653 271 673 c 1,13,-1
 279 673 l 1,14,15
 283 649 283 649 289.5 634.5 c 128,-1,16
 296 620 296 620 312 612 c 1,0,-1
160 612 m 1,17,-1
 158 604 l 1,18,19
 125 592 125 592 57 433 c 1,20,-1
 49 433 l 1,21,22
 53 462 53 462 58.5 498 c 128,-1,23
 64 534 64 534 64 561 c 0,24,25
 64 597 64 597 48 604 c 1,26,-1
 50 612 l 1,27,28
 69 619 69 619 87 636 c 128,-1,29
 105 653 105 653 119 673 c 1,30,-1
 127 673 l 1,31,32
 131 649 131 649 137.5 634.5 c 128,-1,33
 144 620 144 620 160 612 c 1,17,-1
EndSplineSet
EndChar

StartChar: ogonek
Encoding: 731 731 224
Width: 333
Flags: W
LayerCount: 2
Fore
SplineSet
309 -140 m 1,0,1
 267 -163 267 -163 245.5 -170 c 128,-1,2
 224 -177 224 -177 196 -177 c 0,3,4
 146 -177 146 -177 115 -152 c 128,-1,5
 84 -127 84 -127 84 -86 c 0,6,7
 84 -29 84 -29 123 8 c 1,8,-1
 149 8 l 1,9,10
 136 -18 136 -18 136 -41 c 0,11,12
 136 -82 136 -82 165 -109 c 128,-1,13
 194 -136 194 -136 240 -136 c 0,14,15
 253 -136 253 -136 268 -133 c 128,-1,16
 283 -130 283 -130 299 -125 c 1,17,-1
 309 -140 l 1,0,1
EndSplineSet
EndChar

StartChar: caron
Encoding: 711 711 225
Width: 333
Flags: W
LayerCount: 2
Fore
SplineSet
286 631 m 1,0,-1
 189 457 l 1,1,-1
 145 457 l 1,2,-1
 48 631 l 1,3,-1
 71 631 l 1,4,-1
 167 525 l 1,5,-1
 263 631 l 1,6,-1
 286 631 l 1,0,-1
EndSplineSet
EndChar

StartChar: Lslash
Encoding: 321 321 226
Width: 592
Flags: W
LayerCount: 2
Fore
SplineSet
565 146 m 1,0,1
 532 101 532 101 512 59 c 0,2,3
 498 30 498 30 489 -6 c 1,4,5
 419 -4 419 -4 380 -3 c 0,6,7
 237 1 237 1 210 1 c 2,8,-1
 172 1 l 1,9,-1
 94 -4 l 1,10,-1
 80 -5 l 1,11,-1
 81 8 l 1,12,-1
 92 9 l 2,13,14
 129 13 129 13 143 25 c 128,-1,15
 157 37 157 37 157 68 c 2,16,-1
 157 257 l 1,17,-1
 41 161 l 1,18,-1
 41 217 l 1,19,-1
 157 313 l 1,20,-1
 157 554 l 2,21,22
 157 583 157 583 143 596 c 128,-1,23
 129 609 129 609 92 613 c 2,24,-1
 81 614 l 1,25,-1
 80 627 l 1,26,-1
 94 626 l 1,27,-1
 172 621 l 1,28,-1
 210 621 l 1,29,-1
 288 626 l 1,30,-1
 302 627 l 1,31,-1
 301 614 l 1,32,-1
 290 613 l 2,33,34
 253 609 253 609 239 597 c 128,-1,35
 225 585 225 585 225 554 c 2,36,-1
 225 369 l 1,37,-1
 368 487 l 1,38,-1
 368 431 l 1,39,-1
 225 313 l 1,40,-1
 225 94 l 2,41,42
 225 53 225 53 232.5 44.5 c 128,-1,43
 240 36 240 36 276 36 c 2,44,-1
 380 36 l 2,45,46
 436 36 436 36 455.5 46 c 128,-1,47
 475 56 475 56 512 104 c 2,48,-1
 544 146 l 1,49,-1
 565 146 l 1,0,1
EndSplineSet
EndChar

StartChar: lslash
Encoding: 322 322 227
Width: 452
Flags: W
LayerCount: 2
Fore
SplineSet
443 108 m 1,0,1
 417 74 417 74 401 43 c 0,2,3
 389 20 389 20 383 -3 c 1,4,-1
 181 1 l 1,5,-1
 147 1 l 2,6,7
 131 1 131 1 113.5 -1 c 128,-1,8
 96 -3 96 -3 79 -4 c 2,9,-1
 65 -5 l 1,10,-1
 66 9 l 1,11,-1
 77 10 l 2,12,13
 112 14 112 14 122 25.5 c 128,-1,14
 132 37 132 37 132 69 c 2,15,-1
 132 181 l 1,16,-1
 31 116 l 1,17,-1
 31 162 l 1,18,-1
 132 227 l 1,19,-1
 132 373 l 2,20,21
 132 404 132 404 122 416 c 128,-1,22
 112 428 112 428 77 432 c 2,23,-1
 66 433 l 1,24,-1
 65 447 l 1,25,-1
 79 446 l 2,26,27
 109 443 109 443 119 442 c 128,-1,28
 129 441 129 441 147 441 c 2,29,-1
 180 441 l 2,30,31
 196 441 196 441 213.5 443 c 128,-1,32
 231 445 231 445 248 446 c 2,33,-1
 262 447 l 1,34,-1
 261 433 l 1,35,-1
 250 432 l 2,36,37
 215 428 215 428 205 416.5 c 128,-1,38
 195 405 195 405 195 373 c 2,39,-1
 195 267 l 1,40,-1
 297 333 l 1,41,-1
 297 287 l 1,42,-1
 195 221 l 1,43,-1
 195 69 l 2,44,45
 195 43 195 43 200 37 c 128,-1,46
 205 31 205 31 229 31 c 2,47,-1
 303 31 l 2,48,49
 342 31 342 31 356 38 c 128,-1,50
 370 45 370 45 396 78 c 2,51,-1
 420 108 l 1,52,-1
 443 108 l 1,0,1
EndSplineSet
EndChar

StartChar: brokenbar
Encoding: 166 166 232
Width: 510
Flags: W
LayerCount: 2
Fore
SplineSet
282 461 m 1,0,-1
 228 461 l 1,1,-1
 228 813 l 1,2,-1
 282 813 l 1,3,-1
 282 461 l 1,0,-1
282 -17 m 1,4,-1
 228 -17 l 1,5,-1
 228 335 l 1,6,-1
 282 335 l 1,7,-1
 282 -17 l 1,4,-1
EndSplineSet
EndChar

StartChar: Eth
Encoding: 208 208 233
Width: 816
Flags: W
LayerCount: 2
Fore
SplineSet
736 323 m 0,0,1
 736 190 736 190 633.5 94.5 c 128,-1,2
 531 -1 531 -1 377 -1 c 2,3,-1
 172 1 l 1,4,-1
 94 -4 l 1,5,-1
 80 -5 l 1,6,-1
 81 8 l 1,7,-1
 92 9 l 2,8,9
 129 13 129 13 143 25 c 128,-1,10
 157 37 157 37 157 68 c 2,11,-1
 157 284 l 1,12,-1
 40 284 l 1,13,-1
 40 330 l 1,14,-1
 157 330 l 1,15,-1
 157 554 l 2,16,17
 157 583 157 583 143 596 c 128,-1,18
 129 609 129 609 92 613 c 2,19,-1
 81 614 l 1,20,-1
 80 627 l 1,21,-1
 94 626 l 1,22,-1
 172 621 l 1,23,-1
 377 626 l 2,24,25
 529 626 529 626 632.5 541.5 c 128,-1,26
 736 457 736 457 736 323 c 0,0,1
656 320 m 0,27,28
 656 443 656 443 575 521 c 128,-1,29
 494 599 494 599 376 599 c 2,30,-1
 225 595 l 1,31,-1
 225 330 l 1,32,-1
 367 330 l 1,33,-1
 367 284 l 1,34,-1
 225 284 l 1,35,-1
 225 112 l 2,36,37
 225 60 225 60 254 41.5 c 128,-1,38
 283 23 283 23 376 23 c 0,39,40
 496 23 496 23 576 110.5 c 128,-1,41
 656 198 656 198 656 320 c 0,27,28
EndSplineSet
EndChar

StartChar: eth
Encoding: 240 240 234
Width: 628
Flags: W
LayerCount: 2
Fore
SplineSet
563 229 m 0,0,1
 563 135 563 135 488 67 c 128,-1,2
 413 -1 413 -1 301 -1 c 2,3,-1
 147 1 l 2,4,5
 131 1 131 1 113.5 -1 c 128,-1,6
 96 -3 96 -3 79 -4 c 2,7,-1
 65 -5 l 1,8,-1
 66 9 l 1,9,-1
 77 10 l 2,10,11
 112 14 112 14 122 25.5 c 128,-1,12
 132 37 132 37 132 69 c 2,13,-1
 132 205 l 1,14,-1
 25 205 l 1,15,-1
 25 247 l 1,16,-1
 132 247 l 1,17,-1
 132 373 l 2,18,19
 132 404 132 404 122 416 c 128,-1,20
 112 428 112 428 77 432 c 2,21,-1
 66 433 l 1,22,-1
 65 447 l 1,23,-1
 79 446 l 2,24,25
 101 444 101 444 123.5 442.5 c 128,-1,26
 146 441 146 441 184 441 c 2,27,-1
 301 444 l 2,28,29
 412 444 412 444 487.5 384 c 128,-1,30
 563 324 563 324 563 229 c 0,0,1
493 227 m 0,31,32
 493 312 493 312 436.5 365.5 c 128,-1,33
 380 419 380 419 299 419 c 2,34,-1
 195 416 l 1,35,-1
 195 247 l 1,36,-1
 352 247 l 1,37,-1
 352 205 l 1,38,-1
 195 205 l 1,39,-1
 195 81 l 2,40,41
 195 46 195 46 215.5 34 c 128,-1,42
 236 22 236 22 299 22 c 0,43,44
 382 22 382 22 437.5 82.5 c 128,-1,45
 493 143 493 143 493 227 c 0,31,32
EndSplineSet
EndChar

StartChar: Thorn
Encoding: 222 222 237
Width: 590
Flags: W
LayerCount: 2
Fore
SplineSet
547 354 m 0,0,1
 547 267 547 267 472 209 c 128,-1,2
 397 151 397 151 294 151 c 1,3,-1
 260 154 l 1,4,-1
 260 163 l 1,5,-1
 285 162 l 2,6,7
 366 162 366 162 423.5 208.5 c 128,-1,8
 481 255 481 255 481 331 c 0,9,10
 481 395 481 395 436 439 c 0,11,12
 386 487 386 487 300 487 c 0,13,14
 251 487 251 487 238 479.5 c 128,-1,15
 225 472 225 472 225 438 c 2,16,-1
 225 68 l 2,17,18
 225 39 225 39 239 26 c 128,-1,19
 253 13 253 13 290 9 c 2,20,-1
 301 8 l 1,21,-1
 302 -5 l 1,22,-1
 288 -4 l 1,23,-1
 210 1 l 1,24,-1
 172 1 l 1,25,-1
 94 -4 l 1,26,-1
 80 -5 l 1,27,-1
 81 8 l 1,28,-1
 92 9 l 2,29,30
 129 13 129 13 143 25 c 128,-1,31
 157 37 157 37 157 68 c 2,32,-1
 157 554 l 2,33,34
 157 583 157 583 143 596 c 128,-1,35
 129 609 129 609 92 613 c 2,36,-1
 81 614 l 1,37,-1
 80 627 l 1,38,-1
 94 626 l 1,39,-1
 172 621 l 1,40,-1
 210 621 l 1,41,-1
 288 626 l 1,42,-1
 302 627 l 1,43,-1
 301 614 l 1,44,-1
 290 613 l 2,45,46
 253 609 253 609 239 597 c 128,-1,47
 225 585 225 585 225 554 c 2,48,-1
 225 507 l 1,49,-1
 328 510 l 2,50,51
 429 510 429 510 488 465.5 c 128,-1,52
 547 421 547 421 547 354 c 0,0,1
EndSplineSet
EndChar

StartChar: thorn
Encoding: 254 254 238
Width: 460
Flags: W
LayerCount: 2
Fore
SplineSet
427 248 m 0,0,1
 427 185 427 185 372 144 c 128,-1,2
 317 103 317 103 241 103 c 2,3,-1
 220 104 l 1,4,-1
 220 117 l 1,5,-1
 233 117 l 2,6,7
 287 117 287 117 325 148 c 128,-1,8
 363 179 363 179 363 232 c 0,9,10
 363 276 363 276 331.5 307 c 128,-1,11
 300 338 300 338 243 338 c 0,12,13
 215 338 215 338 205 336 c 128,-1,14
 195 334 195 334 195 307 c 2,15,-1
 195 69 l 2,16,17
 195 38 195 38 205 26 c 128,-1,18
 215 14 215 14 250 10 c 2,19,-1
 261 9 l 1,20,-1
 262 -5 l 1,21,-1
 248 -4 l 2,22,23
 218 -1 218 -1 208 0 c 128,-1,24
 198 1 198 1 180 1 c 2,25,-1
 147 1 l 2,26,27
 131 1 131 1 113.5 -1 c 128,-1,28
 96 -3 96 -3 79 -4 c 2,29,-1
 65 -5 l 1,30,-1
 66 9 l 1,31,-1
 77 10 l 2,32,33
 112 14 112 14 122 25.5 c 128,-1,34
 132 37 132 37 132 69 c 2,35,-1
 132 373 l 2,36,37
 132 404 132 404 122 416 c 128,-1,38
 112 428 112 428 77 432 c 2,39,-1
 66 433 l 1,40,-1
 65 447 l 1,41,-1
 79 446 l 2,42,43
 109 443 109 443 119 442 c 128,-1,44
 129 441 129 441 147 441 c 2,45,-1
 180 441 l 2,46,47
 196 441 196 441 213.5 443 c 128,-1,48
 231 445 231 445 248 446 c 2,49,-1
 262 447 l 1,50,-1
 261 433 l 1,51,-1
 250 432 l 2,52,53
 215 428 215 428 205 416.5 c 128,-1,54
 195 405 195 405 195 373 c 2,55,-1
 195 359 l 1,56,-1
 266 360 l 2,57,58
 339 360 339 360 383 327.5 c 128,-1,59
 427 295 427 295 427 248 c 0,0,1
EndSplineSet
EndChar

StartChar: minus
Encoding: 173 173 239
Width: 667
Flags: W
LayerCount: 2
Fore
SplineSet
597 276 m 1,0,-1
 69 276 l 1,1,-1
 69 337 l 1,2,-1
 597 337 l 1,3,-1
 597 276 l 1,0,-1
EndSplineSet
EndChar

StartChar: multiply
Encoding: 215 215 240
Width: 668
Flags: W
LayerCount: 2
Fore
SplineSet
575 525 m 1,0,-1
 371 321 l 1,1,-1
 573 119 l 1,2,-1
 536 82 l 1,3,-1
 335 284 l 1,4,-1
 131 82 l 1,5,-1
 94 119 l 1,6,-1
 297 321 l 1,7,-1
 94 525 l 1,8,-1
 130 563 l 1,9,-1
 334 358 l 1,10,-1
 538 563 l 1,11,-1
 575 525 l 1,0,-1
EndSplineSet
EndChar

StartChar: onesuperior
Encoding: 185 185 241
Width: 346
Flags: W
LayerCount: 2
Fore
SplineSet
262 221 m 1,0,-1
 249 222 l 2,1,2
 222 225 222 225 213 226 c 128,-1,3
 204 227 204 227 188 227 c 2,4,-1
 158 227 l 2,5,6
 144 227 144 227 128.5 225 c 128,-1,7
 113 223 113 223 97 222 c 2,8,-1
 85 221 l 1,9,-1
 85 234 l 1,10,-1
 95 235 l 2,11,12
 126 238 126 238 135.5 249 c 128,-1,13
 145 260 145 260 145 288 c 2,14,-1
 145 562 l 2,15,16
 145 591 145 591 136 601 c 128,-1,17
 127 611 127 611 95 615 c 2,18,-1
 85 616 l 1,19,-1
 85 628 l 1,20,-1
 97 627 l 1,21,-1
 158 623 l 1,22,-1
 188 623 l 1,23,-1
 249 627 l 1,24,-1
 262 628 l 1,25,-1
 261 616 l 1,26,-1
 251 615 l 2,27,28
 219 611 219 611 210.5 601.5 c 128,-1,29
 202 592 202 592 202 562 c 2,30,-1
 202 288 l 2,31,32
 202 260 202 260 211 249 c 128,-1,33
 220 238 220 238 251 235 c 2,34,-1
 261 234 l 1,35,-1
 262 221 l 1,0,-1
EndSplineSet
EndChar

StartChar: twosuperior
Encoding: 178 178 242
Width: 411
Flags: W
LayerCount: 2
Fore
SplineSet
350 166 m 1,0,-1
 337 167 l 1,1,-1
 337 176 l 1,2,3
 333 209 333 209 322.5 217.5 c 128,-1,4
 312 226 312 226 283 226 c 2,5,-1
 59 226 l 1,6,-1
 63 241 l 1,7,8
 78 259 78 259 149 334 c 0,9,10
 204 393 204 393 230 431 c 0,11,12
 266 485 266 485 266 528 c 0,13,14
 266 567 266 567 244 592 c 128,-1,15
 222 617 222 617 184 617 c 0,16,17
 156 617 156 617 135.5 597.5 c 128,-1,18
 115 578 115 578 112 551 c 0,19,20
 112 529 112 529 120.5 518.5 c 128,-1,21
 129 508 129 508 152 504 c 2,22,-1
 161 503 l 1,23,-1
 163 490 l 1,24,25
 137 492 137 492 123 493 c 0,26,27
 80 497 80 497 64 500 c 1,28,29
 64 566 64 566 106 604 c 0,30,31
 143 637 143 637 194 637 c 0,32,33
 249 637 249 637 286 609 c 128,-1,34
 323 581 323 581 323 532 c 0,35,36
 323 470 323 470 218 364 c 0,37,38
 173 319 173 319 128 275 c 1,39,-1
 283 275 l 2,40,41
 311 275 311 275 322 284 c 128,-1,42
 333 293 333 293 337 324 c 1,43,-1
 337 334 l 1,44,-1
 350 335 l 1,45,-1
 349 322 l 1,46,-1
 345 261 l 1,47,-1
 345 239 l 1,48,-1
 349 178 l 1,49,-1
 350 166 l 1,0,-1
EndSplineSet
EndChar

StartChar: threesuperior
Encoding: 179 179 243
Width: 396
Flags: W
LayerCount: 2
Fore
SplineSet
319 624 m 1,0,1
 309 580 309 580 287.5 540.5 c 128,-1,2
 266 501 266 501 235 469 c 1,3,4
 279 458 279 458 305.5 424.5 c 128,-1,5
 332 391 332 391 332 345 c 0,6,7
 332 291 332 291 293.5 251.5 c 128,-1,8
 255 212 255 212 197 212 c 0,9,10
 166 212 166 212 141.5 222 c 128,-1,11
 117 232 117 232 96 250 c 0,12,13
 83 261 83 261 73 261 c 0,14,15
 60 261 60 261 43 248 c 2,16,-1
 35 243 l 1,17,-1
 26 251 l 1,18,-1
 35 257 l 1,19,-1
 73 290 l 1,20,-1
 90 307 l 1,21,-1
 124 344 l 1,22,-1
 131 354 l 1,23,-1
 140 344 l 1,24,-1
 134 336 l 2,25,26
 120 319 120 319 120 308 c 0,27,28
 120 299 120 299 129 283 c 0,29,30
 137 264 137 264 158.5 249 c 128,-1,31
 180 234 180 234 207 234 c 0,32,33
 242 234 242 234 261.5 264 c 128,-1,34
 281 294 281 294 281 340 c 1,35,36
 277 383 277 383 250 409 c 128,-1,37
 223 435 223 435 187 435 c 0,38,39
 179 435 179 435 171 432 c 0,40,41
 168 431 168 431 163 428 c 1,42,-1
 160 433 l 1,43,44
 206 471 206 471 233.5 505 c 128,-1,45
 261 539 261 539 272 575 c 1,46,-1
 162 575 l 2,47,48
 134 575 134 575 123 566 c 128,-1,49
 112 557 112 557 109 526 c 2,50,-1
 108 516 l 1,51,-1
 95 515 l 1,52,-1
 96 527 l 2,53,54
 99 554 99 554 100 563 c 128,-1,55
 101 572 101 572 101 589 c 2,56,-1
 101 610 l 2,57,58
 101 624 101 624 99 640 c 128,-1,59
 97 656 97 656 96 671 c 2,60,-1
 95 684 l 1,61,-1
 108 683 l 1,62,-1
 109 673 l 2,63,64
 112 641 112 641 122.5 632.5 c 128,-1,65
 133 624 133 624 162 624 c 2,66,-1
 319 624 l 1,0,1
EndSplineSet
EndChar

StartChar: onehalf
Encoding: 189 189 244
Width: 960
Flags: W
LayerCount: 2
Fore
SplineSet
860 -60 m 1,0,-1
 847 -59 l 1,1,-1
 847 -50 l 1,2,3
 843 -17 843 -17 832.5 -8.5 c 128,-1,4
 822 0 822 0 793 0 c 2,5,-1
 569 0 l 1,6,-1
 573 15 l 1,7,8
 588 33 588 33 659 108 c 0,9,10
 714 167 714 167 740 205 c 0,11,12
 776 259 776 259 776 302 c 0,13,14
 776 341 776 341 754 366 c 128,-1,15
 732 391 732 391 694 391 c 0,16,17
 666 391 666 391 645.5 371.5 c 128,-1,18
 625 352 625 352 622 325 c 0,19,20
 622 303 622 303 630.5 292.5 c 128,-1,21
 639 282 639 282 662 278 c 2,22,-1
 671 277 l 1,23,-1
 673 264 l 1,24,25
 647 266 647 266 633 267 c 0,26,27
 590 271 590 271 574 274 c 1,28,29
 574 340 574 340 616 378 c 0,30,31
 653 411 653 411 704 411 c 0,32,33
 759 411 759 411 796 383 c 128,-1,34
 833 355 833 355 833 306 c 0,35,36
 833 244 833 244 728 138 c 0,37,38
 683 93 683 93 638 49 c 1,39,-1
 793 49 l 2,40,41
 821 49 821 49 832 58 c 128,-1,42
 843 67 843 67 847 98 c 1,43,-1
 847 108 l 1,44,-1
 860 109 l 1,45,-1
 859 96 l 1,46,-1
 855 35 l 1,47,-1
 855 13 l 1,48,-1
 859 -48 l 1,49,-1
 860 -60 l 1,0,-1
704 654 m 1,50,-1
 218 -27 l 1,51,-1
 177 -27 l 1,52,-1
 663 654 l 1,53,-1
 704 654 l 1,50,-1
262 221 m 1,54,-1
 249 222 l 2,55,56
 222 225 222 225 213 226 c 128,-1,57
 204 227 204 227 188 227 c 2,58,-1
 158 227 l 2,59,60
 144 227 144 227 128.5 225 c 128,-1,61
 113 223 113 223 97 222 c 2,62,-1
 85 221 l 1,63,-1
 85 234 l 1,64,-1
 95 235 l 2,65,66
 126 238 126 238 135.5 249 c 128,-1,67
 145 260 145 260 145 288 c 2,68,-1
 145 562 l 2,69,70
 145 591 145 591 136 601 c 128,-1,71
 127 611 127 611 95 615 c 2,72,-1
 85 616 l 1,73,-1
 85 628 l 1,74,-1
 97 627 l 1,75,-1
 158 623 l 1,76,-1
 188 623 l 1,77,-1
 249 627 l 1,78,-1
 262 628 l 1,79,-1
 261 616 l 1,80,-1
 251 615 l 2,81,82
 219 611 219 611 210.5 601.5 c 128,-1,83
 202 592 202 592 202 562 c 2,84,-1
 202 288 l 2,85,86
 202 260 202 260 211 249 c 128,-1,87
 220 238 220 238 251 235 c 2,88,-1
 261 234 l 1,89,-1
 262 221 l 1,54,-1
EndSplineSet
EndChar

StartChar: onequarter
Encoding: 188 188 245
Width: 926
Flags: W
LayerCount: 2
Fore
SplineSet
819 46 m 1,0,-1
 806 47 l 1,1,-1
 805 57 l 2,2,3
 802 89 802 89 791.5 97.5 c 128,-1,4
 781 106 781 106 752 106 c 1,5,-1
 751 62 l 2,6,7
 751 34 751 34 760 23 c 128,-1,8
 769 12 769 12 801 9 c 2,9,-1
 811 8 l 1,10,-1
 812 -5 l 1,11,-1
 799 -4 l 2,12,13
 778 -1 778 -1 761 0 c 128,-1,14
 744 1 744 1 738 1 c 2,15,-1
 708 1 l 2,16,17
 694 1 694 1 678 -1 c 128,-1,18
 662 -3 662 -3 647 -4 c 2,19,-1
 634 -5 l 1,20,-1
 635 8 l 1,21,-1
 645 9 l 2,22,23
 676 12 676 12 685.5 23 c 128,-1,24
 695 34 695 34 695 62 c 2,25,-1
 695 106 l 1,26,-1
 511 106 l 1,27,-1
 712 397 l 1,28,-1
 738 397 l 1,29,-1
 799 401 l 1,30,-1
 812 402 l 1,31,-1
 811 390 l 1,32,-1
 801 389 l 2,33,34
 769 385 769 385 760 375 c 128,-1,35
 751 365 751 365 751 336 c 2,36,-1
 751 142 l 1,37,38
 780 142 780 142 791 151 c 128,-1,39
 802 160 802 160 805 192 c 2,40,-1
 806 202 l 1,41,-1
 819 202 l 1,42,-1
 818 190 l 2,43,44
 815 163 815 163 814 154 c 128,-1,45
 813 145 813 145 813 129 c 2,46,-1
 813 120 l 2,47,48
 813 106 813 106 815 90 c 128,-1,49
 817 74 817 74 818 58 c 2,50,-1
 819 46 l 1,0,-1
704 654 m 1,51,-1
 218 -27 l 1,52,-1
 177 -27 l 1,53,-1
 663 654 l 1,54,-1
 704 654 l 1,51,-1
262 221 m 1,55,-1
 249 222 l 2,56,57
 222 225 222 225 213 226 c 128,-1,58
 204 227 204 227 188 227 c 2,59,-1
 158 227 l 2,60,61
 144 227 144 227 128.5 225 c 128,-1,62
 113 223 113 223 97 222 c 2,63,-1
 85 221 l 1,64,-1
 85 234 l 1,65,-1
 95 235 l 2,66,67
 126 238 126 238 135.5 249 c 128,-1,68
 145 260 145 260 145 288 c 2,69,-1
 145 562 l 2,70,71
 145 591 145 591 136 601 c 128,-1,72
 127 611 127 611 95 615 c 2,73,-1
 85 616 l 1,74,-1
 85 628 l 1,75,-1
 97 627 l 1,76,-1
 158 623 l 1,77,-1
 188 623 l 1,78,-1
 249 627 l 1,79,-1
 262 628 l 1,80,-1
 261 616 l 1,81,-1
 251 615 l 2,82,83
 219 611 219 611 210.5 601.5 c 128,-1,84
 202 592 202 592 202 562 c 2,85,-1
 202 288 l 2,86,87
 202 260 202 260 211 249 c 128,-1,88
 220 238 220 238 251 235 c 2,89,-1
 261 234 l 1,90,-1
 262 221 l 1,55,-1
695 140 m 1,91,-1
 695 317 l 1,92,-1
 571 140 l 1,93,-1
 695 140 l 1,91,-1
EndSplineSet
EndChar

StartChar: threequarters
Encoding: 190 190 246
Width: 966
Flags: W
LayerCount: 2
Fore
SplineSet
859 46 m 1,0,-1
 846 47 l 1,1,-1
 845 57 l 2,2,3
 842 89 842 89 831.5 97.5 c 128,-1,4
 821 106 821 106 792 106 c 1,5,-1
 791 62 l 2,6,7
 791 34 791 34 800 23 c 128,-1,8
 809 12 809 12 841 9 c 2,9,-1
 851 8 l 1,10,-1
 852 -5 l 1,11,-1
 839 -4 l 2,12,13
 818 -1 818 -1 801 0 c 128,-1,14
 784 1 784 1 778 1 c 2,15,-1
 748 1 l 2,16,17
 734 1 734 1 718 -1 c 128,-1,18
 702 -3 702 -3 687 -4 c 2,19,-1
 674 -5 l 1,20,-1
 675 8 l 1,21,-1
 685 9 l 2,22,23
 716 12 716 12 725.5 23 c 128,-1,24
 735 34 735 34 735 62 c 2,25,-1
 735 106 l 1,26,-1
 551 106 l 1,27,-1
 752 397 l 1,28,-1
 778 397 l 1,29,-1
 839 401 l 1,30,-1
 852 402 l 1,31,-1
 851 390 l 1,32,-1
 841 389 l 2,33,34
 809 385 809 385 800 375 c 128,-1,35
 791 365 791 365 791 336 c 2,36,-1
 791 142 l 1,37,38
 820 142 820 142 831 151 c 128,-1,39
 842 160 842 160 845 192 c 2,40,-1
 846 202 l 1,41,-1
 859 202 l 1,42,-1
 858 190 l 2,43,44
 855 163 855 163 854 154 c 128,-1,45
 853 145 853 145 853 129 c 2,46,-1
 853 120 l 2,47,48
 853 106 853 106 855 90 c 128,-1,49
 857 74 857 74 858 58 c 2,50,-1
 859 46 l 1,0,-1
764 654 m 1,51,-1
 278 -27 l 1,52,-1
 237 -27 l 1,53,-1
 723 654 l 1,54,-1
 764 654 l 1,51,-1
352 345 m 0,55,56
 352 291 352 291 313.5 251.5 c 128,-1,57
 275 212 275 212 217 212 c 0,58,59
 186 212 186 212 161.5 222 c 128,-1,60
 137 232 137 232 116 250 c 0,61,62
 103 261 103 261 93 261 c 0,63,64
 80 261 80 261 63 248 c 2,65,-1
 55 243 l 1,66,-1
 46 251 l 1,67,-1
 55 257 l 1,68,-1
 93 290 l 1,69,-1
 110 307 l 1,70,-1
 144 344 l 1,71,-1
 151 354 l 1,72,-1
 160 344 l 1,73,-1
 154 336 l 2,74,75
 140 319 140 319 140 308 c 0,76,77
 140 299 140 299 149 283 c 0,78,79
 157 264 157 264 178.5 249 c 128,-1,80
 200 234 200 234 227 234 c 0,81,82
 262 234 262 234 281.5 264 c 128,-1,83
 301 294 301 294 301 340 c 1,84,85
 297 383 297 383 270 409 c 128,-1,86
 243 435 243 435 207 435 c 0,87,88
 199 435 199 435 191 432 c 0,89,90
 188 431 188 431 183 428 c 1,91,-1
 180 433 l 1,92,93
 226 471 226 471 253.5 505 c 128,-1,94
 281 539 281 539 292 575 c 1,95,-1
 182 575 l 2,96,97
 154 575 154 575 143 566 c 128,-1,98
 132 557 132 557 129 526 c 2,99,-1
 128 516 l 1,100,-1
 115 515 l 1,101,-1
 116 527 l 2,102,103
 119 554 119 554 120 563 c 128,-1,104
 121 572 121 572 121 589 c 2,105,-1
 121 610 l 2,106,107
 121 624 121 624 119 640 c 128,-1,108
 117 656 117 656 116 671 c 2,109,-1
 115 684 l 1,110,-1
 128 683 l 1,111,-1
 129 673 l 2,112,113
 132 641 132 641 142.5 632.5 c 128,-1,114
 153 624 153 624 182 624 c 2,115,-1
 339 624 l 1,116,117
 329 580 329 580 307.5 540.5 c 128,-1,118
 286 501 286 501 255 469 c 1,119,120
 299 458 299 458 325.5 424.5 c 128,-1,121
 352 391 352 391 352 345 c 0,55,56
735 140 m 1,122,-1
 735 317 l 1,123,-1
 611 140 l 1,124,-1
 735 140 l 1,122,-1
EndSplineSet
EndChar
